<?xml version="1.0" encoding="UTF-8"?>
<svg version="1.1" xmlns="http://www.w3.org/2000/svg" width="512" height="512">
<path d="M0 0 C1.45108658 0.00273422 1.45108658 0.00273422 2.93148804 0.00552368 C17.26440977 0.05095174 31.21023917 0.55983928 45.3125 3.3125 C46.65803955 3.55395752 46.65803955 3.55395752 48.03076172 3.80029297 C107.84088904 14.62287989 165.35495829 48.68064457 202.3125 97.3125 C202.72918945 97.85277832 203.14587891 98.39305664 203.57519531 98.94970703 C211.2584873 108.9447116 218.00092968 119.40459036 224.3125 130.3125 C224.70679199 130.98974121 225.10108398 131.66698242 225.50732422 132.36474609 C238.68961173 155.2833756 247.29510918 180.85822563 252.625 206.6875 C252.77243652 207.39817627 252.91987305 208.10885254 253.07177734 208.84106445 C256.05713787 224.48358366 256.6873098 240.11919606 256.625 256 C256.62226578 257.45108658 256.62226578 257.45108658 256.61947632 258.93148804 C256.57404826 273.26440977 256.06516072 287.21023917 253.3125 301.3125 C253.15152832 302.20952637 252.99055664 303.10655273 252.82470703 304.03076172 C242.00212011 363.84088904 207.94435543 421.35495829 159.3125 458.3125 C158.77222168 458.72918945 158.23194336 459.14587891 157.67529297 459.57519531 C147.6802884 467.2584873 137.22040964 474.00092968 126.3125 480.3125 C125.63525879 480.70679199 124.95801758 481.10108398 124.26025391 481.50732422 C86.65686251 503.13596116 43.74617007 512.78895955 0.6875 512.625 C-0.83935928 512.62176727 -0.83935928 512.62176727 -2.39706421 512.61846924 C-17.00613523 512.56879854 -31.33825853 512.31790191 -45.6875 509.3125 C-47.14978027 509.01448486 -47.14978027 509.01448486 -48.64160156 508.71044922 C-108.22582385 496.24649799 -164.47712629 464.27705313 -201.6875 415.3125 C-202.10418945 414.77222168 -202.52087891 414.23194336 -202.95019531 413.67529297 C-210.6334873 403.6802884 -217.37592968 393.22040964 -223.6875 382.3125 C-224.08179199 381.63525879 -224.47608398 380.95801758 -224.88232422 380.26025391 C-238.06461173 357.3416244 -246.67010918 331.76677437 -252 305.9375 C-252.14743652 305.22682373 -252.29487305 304.51614746 -252.44677734 303.78393555 C-255.43213787 288.14141634 -256.0623098 272.50580394 -256 256.625 C-255.99817719 255.65760895 -255.99635437 254.6902179 -255.99447632 253.69351196 C-255.94904826 239.36059023 -255.44016072 225.41476083 -252.6875 211.3125 C-252.44604248 209.96696045 -252.44604248 209.96696045 -252.19970703 208.59423828 C-241.37712011 148.78411096 -207.31935543 91.27004171 -158.6875 54.3125 C-158.14722168 53.89581055 -157.60694336 53.47912109 -157.05029297 53.04980469 C-147.0552884 45.3665127 -136.59540964 38.62407032 -125.6875 32.3125 C-125.01025879 31.91820801 -124.33301758 31.52391602 -123.63525391 31.11767578 C-100.7166244 17.93538827 -75.14177437 9.32989082 -49.3125 4 C-48.60182373 3.85256348 -47.89114746 3.70512695 -47.15893555 3.55322266 C-31.51641634 0.56786213 -15.88080394 -0.0623098 0 0 Z " fill="#33707F" transform="translate(255.6875,-0.3125)"/>
<path d="M0 0 C2.07520813 1.47230556 3.58188556 3.08470609 5.25390625 5 C7.62050717 7.71073752 10.29136209 9.96152054 13.03125 12.28515625 C15 14 15 14 16.78125 15.80859375 C17.63203125 16.64583984 17.63203125 16.64583984 18.5 17.5 C18.9846875 18.0053125 19.469375 18.510625 19.96875 19.03125 C23.29726374 20.61869501 26.50297806 19.63927079 30 19 C31.96614404 18.66405202 33.93229002 18.32811534 35.8984375 17.9921875 C39.14287886 17.43430185 42.38584273 16.87303215 45.625 16.28515625 C52.38756512 15.14160813 58.23840358 14.89562294 65 16 C66.00289062 16.15871582 67.00578125 16.31743164 68.0390625 16.48095703 C72.41882581 17.19525035 76.79173773 17.94525061 81.16210938 18.71484375 C82.22880859 18.89402344 83.29550781 19.07320313 84.39453125 19.2578125 C85.35206299 19.4242627 86.30959473 19.59071289 87.29614258 19.76220703 C91.84136572 20.16194043 94.24846095 19.59915803 97.83203125 16.7421875 C98.83448275 15.79586262 99.8276555 14.83963522 100.8125 13.875 C101.8665015 12.87427698 102.92119093 11.87427803 103.9765625 10.875 C104.48864258 10.38515625 105.00072266 9.8953125 105.52832031 9.390625 C108.13779407 6.92487143 110.86011526 4.59103897 113.57421875 2.2421875 C114.40443006 1.51888012 115.2214037 0.7785963 116 0 C142.37945865 -1.11122262 179.22884767 12.52158672 199 30 C208.11161111 38.800988 210.49443864 47.13092383 212.9375 59.3125 C213.19547363 60.57964844 213.45344727 61.84679687 213.71923828 63.15234375 C220.80480348 98.39709299 220.80480348 98.39709299 220 106 C218.59716797 107.7800293 218.59716797 107.7800293 216.6171875 109.38671875 C215.88338867 109.98274902 215.14958984 110.5787793 214.39355469 111.19287109 C210.39510363 114.21169349 206.3079677 117.05567685 202.125 119.8125 C201.20662354 120.41924561 200.28824707 121.02599121 199.34204102 121.65112305 C156.99959644 149.3108602 108.8937237 163.50486607 58.375 163.3125 C57.35709381 163.31034485 56.33918762 163.3081897 55.29043579 163.30596924 C40.68136477 163.25629854 26.34924147 163.00540191 12 160 C10.53771973 159.70198486 10.53771973 159.70198486 9.04589844 159.39794922 C-28.56520659 151.53038024 -64.44038485 136.77516734 -95.13085938 113.40380859 C-96.41046505 112.44276724 -97.72766577 111.53037782 -99.07226562 110.66259766 C-101.09998811 109.2320605 -102.5673957 108.02933296 -104 106 C-104.48799143 102.53820846 -103.69543011 99.39720961 -103 96 C-102.65320461 93.58841209 -102.31533361 91.17553102 -101.984375 88.76171875 C-94.9837079 42.26569316 -94.9837079 42.26569316 -87 34 C-86.30261719 33.26136719 -85.60523437 32.52273438 -84.88671875 31.76171875 C-67.4684712 14.79959553 -24.68568087 -5.15883832 0 0 Z " fill="#261D17" transform="translate(198,349)"/>
<path d="M0 0 C0.2475 0.639375 0.495 1.27875 0.75 1.9375 C1.7970177 4.13881973 1.7970177 4.13881973 3.85668945 4.7175293 C6.84767296 5.11171632 8.9224115 3.83442476 11.64990234 2.72509766 C16.11580253 1.34719162 20.67968374 1.61044051 25.3125 1.6875 C26.30056641 1.68427734 27.28863281 1.68105469 28.30664062 1.67773438 C35.59850473 1.73233649 35.59850473 1.73233649 39 4 C38.18595703 4.58007812 38.18595703 4.58007812 37.35546875 5.171875 C36.28232422 5.95304687 36.28232422 5.95304687 35.1875 6.75 C34.47980469 7.26046875 33.77210938 7.7709375 33.04296875 8.296875 C30.97022309 10.02482358 29.52624146 11.78526476 28 14 C28.92039062 14.15855469 29.84078125 14.31710938 30.7890625 14.48046875 C39.94201061 16.16751927 48.32353944 18.61765097 57 22 C56.2575 22.61875 56.2575 22.61875 55.5 23.25 C53.56613908 25.12202338 53.56613908 25.12202338 54 29 C54.53367187 29.13535156 55.06734375 29.27070312 55.6171875 29.41015625 C63.34722528 31.64357547 71.0338546 35.59133973 75.625 42.4375 C76.07875 43.283125 76.5325 44.12875 77 45 C74.03 45 71.06 45 68 45 C69.299375 45.495 70.59875 45.99 71.9375 46.5 C80.27299111 50.24112593 86.00001662 56.04251435 90.3203125 64.01953125 C91 66 91 66 90 69 C89.0925 68.34 88.185 67.68 87.25 67 C84.06824185 64.65060172 84.06824185 64.65060172 80 65 C80.49628906 65.41507812 80.99257813 65.83015625 81.50390625 66.2578125 C89.58496829 73.58750445 94.90029251 83.07252684 96 94 C93.03 94 90.06 94 87 94 C87.86625 94.61875 88.7325 95.2375 89.625 95.875 C94.74523264 100.22719774 98.6083519 105.53636214 99.375 112.31640625 C99.375 115.23653887 99.26969685 118.09326727 99 121 C98.01 121.495 98.01 121.495 97 122 C96.49339844 121.18595703 96.49339844 121.18595703 95.9765625 120.35546875 C95.53054688 119.64003906 95.08453125 118.92460937 94.625 118.1875 C94.18414062 117.47980469 93.74328125 116.77210938 93.2890625 116.04296875 C92.21811524 114.34567961 91.11323761 112.66985642 90 111 C90.10610596 111.97573975 90.10610596 111.97573975 90.21435547 112.97119141 C90.93560256 120.12408656 91.15198146 127.18893749 91.125 134.375 C91.12886719 135.42816406 91.13273438 136.48132813 91.13671875 137.56640625 C91.13478516 139.09201172 91.13478516 139.09201172 91.1328125 140.6484375 C91.13168457 141.55770996 91.13055664 142.46698242 91.12939453 143.40380859 C90.99871933 146.02569554 90.58053488 148.44322523 90 151 C86.04 150.01 86.04 150.01 82 149 C81.97421875 149.82242188 81.9484375 150.64484375 81.921875 151.4921875 C81.36960664 162.36183292 78.58723178 171.23334953 72 180 C71.67 180 71.34 180 71 180 C70.87882813 178.72382813 70.75765625 177.44765625 70.6328125 176.1328125 C70.46400509 174.46349474 70.2947089 172.79422635 70.125 171.125 C70.04636719 170.28324219 69.96773437 169.44148437 69.88671875 168.57421875 C69.80292969 167.76855469 69.71914063 166.96289062 69.6328125 166.1328125 C69.55949707 165.38918457 69.48618164 164.64555664 69.41064453 163.87939453 C69.12608718 161.76617496 69.12608718 161.76617496 67 160 C63.59421832 162.79047405 62.12311146 164.20953955 61.43359375 168.63671875 C61.41731872 169.98688171 61.41931094 171.33736147 61.4375 172.6875 C61.21235326 180.99522538 60.18598835 188.32130865 53.9375 194.375 C45.05376882 200.95831237 34.7922025 202.29323457 24.02880859 201.31787109 C15.24834566 199.94215957 8.66240656 194.4777931 3 188 C2.04914357 187.03424765 1.09151212 186.07508415 0.125 185.125 C-0.91666667 184.08333333 -1.95833333 183.04166667 -3 182 C-8.55550028 181.48556855 -8.55550028 181.48556855 -13.5625 183.5 C-15.59584903 185.58548619 -17.4426459 187.70967834 -19.3125 189.9375 C-25.00030637 196.5773957 -31.90397683 200.53721437 -40.69921875 201.3359375 C-51.35866676 201.44033954 -61.4822009 200.6445351 -69.56640625 192.79296875 C-74.99121521 186.00826217 -75.52580688 178.44069173 -75.32177734 170.06518555 C-75.35082593 165.73243919 -75.92213511 163.60679316 -79.0390625 160.484375 C-80.01617187 159.66453125 -80.99328125 158.8446875 -82 158 C-83.94420051 166.33306851 -84.56797712 174.47323261 -85 183 C-94.75743623 173.88768352 -94.94661984 161.59898111 -96 149 C-97.29217171 149.47780303 -98.58372046 149.95729106 -99.875 150.4375 C-100.59429687 150.70433594 -101.31359375 150.97117188 -102.0546875 151.24609375 C-104.03648845 151.97916854 -104.03648845 151.97916854 -106 153 C-107.24063784 145.34125934 -107.11179358 137.74288354 -107.0625 130 C-107.05747487 128.63932456 -107.05291376 127.27864733 -107.04882812 125.91796875 C-107.03710459 122.61193275 -107.02069427 119.30598999 -107 116 C-110.27793728 117.9067259 -112.74437771 119.53397879 -115.125 122.5 C-116.98676293 124.79449702 -118.87831427 126.94108604 -121 129 C-122.05794818 117.36257001 -115.88307233 105.24462771 -108.70458984 96.40478516 C-105.91416223 93.16228261 -102.99184912 90.05806711 -100 87 C-102.64 87 -105.28 87 -108 87 C-107.47741957 82.58973792 -105.93147994 80.21008836 -103.125 76.8125 C-102.42632812 75.95269531 -101.72765625 75.09289062 -101.0078125 74.20703125 C-99 72 -99 72 -96 70 C-98.97 70 -101.94 70 -105 70 C-104.17779047 62.12531716 -99.53752845 56.13050318 -93.69140625 50.95703125 C-91.8433149 49.57013917 -89.92782222 48.27373968 -88 47 C-90.97 47 -93.94 47 -97 47 C-88.4091066 35.98603411 -77.73757485 31.05554824 -64 29 C-64.515625 28.484375 -65.03125 27.96875 -65.5625 27.4375 C-67.62076292 23.94740201 -66.96381768 21.85527073 -66 18 C-65.04358442 16.6350652 -64.05013268 15.29421757 -63 14 C-62.41734375 14.18175781 -61.8346875 14.36351562 -61.234375 14.55078125 C-54.54308794 16.60235511 -47.80119035 18.35228894 -41 20 C-40.814375 18.60974609 -40.814375 18.60974609 -40.625 17.19140625 C-39.65414206 12.23396289 -37.05384143 9.48682999 -33.08984375 6.6171875 C-22.70585785 0.32272055 -11.90019283 -0.47530356 0 0 Z " fill="#271E17" transform="translate(263,35)"/>
<path d="M0 0 C0.14248169 0.92111572 0.14248169 0.92111572 0.2878418 1.86083984 C0.73734081 4.70188704 1.21226374 7.53814906 1.6875 10.375 C1.83638672 11.34050781 1.98527344 12.30601562 2.13867188 13.30078125 C3.27948415 19.96670398 5.02172165 28.02172165 10 33 C10.0501123 32.34926514 10.10022461 31.69853027 10.15185547 31.02807617 C10.38392045 28.08042989 10.62930221 25.13403991 10.875 22.1875 C10.95363281 21.16333984 11.03226563 20.13917969 11.11328125 19.08398438 C11.19707031 18.10107422 11.28085938 17.11816406 11.3671875 16.10546875 C11.47716064 14.74651489 11.47716064 14.74651489 11.58935547 13.36010742 C12 11 12 11 14 8 C17.0718736 9.91691329 19.11332775 11.89523354 21 15 C21.50221192 18.58005352 21.6627459 21.97649814 21.72949219 25.57885742 C21.90680736 33.24439302 23.36399075 39.04252621 28.5625 44.875 C37.73989194 51.27412441 48.18241747 52.22099446 59 51 C68.60124442 48.53981719 74.2152995 43.73087562 80.25 36.1875 C82.91808602 32.85239247 84.54789512 32.05188089 88.8125 31.5625 C92.59202107 31.67974792 94.71906719 32.73538192 97.52734375 35.37890625 C98.56115356 36.5169197 99.55041426 37.69623829 100.50390625 38.90234375 C105.62571873 45.33237822 111.67963027 50.02342302 120.02880859 51.31347656 C130.49667249 52.2644489 140.6186829 51.00888021 149.4375 44.875 C155.13882169 38.47839518 156.14972036 32.02999462 156.3125 23.75 C156.45067046 16.80532777 156.45067046 16.80532777 158.609375 13.640625 C160.5625 12 160.5625 12 164 10 C165.91562291 12.87343437 166.29210899 13.77503541 166.6328125 17.01171875 C166.71660156 17.76904297 166.80039062 18.52636719 166.88671875 19.30664062 C166.96535156 20.09232422 167.04398438 20.87800781 167.125 21.6875 C167.21136719 22.48478516 167.29773438 23.28207031 167.38671875 24.10351562 C167.59848472 26.06823326 167.80021473 28.03402796 168 30 C174.20553542 20.22415652 176.56488204 11.41260472 178 0 C183.36157772 0.66000058 185.45371886 1.84578495 189 6 C194.52699502 17.05399004 189.51587496 38.31819512 185.828125 49.578125 C183.89327904 54.52273134 182.25302961 58.63334219 178 62 C175.640625 62.390625 175.640625 62.390625 173.25 62.25 C172.45078125 62.21390625 171.6515625 62.1778125 170.828125 62.140625 C170.22484375 62.09421875 169.6215625 62.0478125 169 62 C168.67 63.175625 168.34 64.35125 168 65.5625 C161.38049242 85.23542906 146.82113088 104.41294943 129.59765625 116.0078125 C126.74402233 118.11447799 126.10942925 118.64158598 125.03515625 122.16015625 C125.01775391 124.06087891 125.01775391 124.06087891 125 126 C124.8984551 127.83225293 124.79262711 129.66427119 124.68359375 131.49609375 C124.59806495 133.47641454 124.51610577 135.45689233 124.4375 137.4375 C124.37272461 138.96407227 124.37272461 138.96407227 124.30664062 140.52148438 C124.20131418 143.01421028 124.09918328 145.50702338 124 148 C125.051875 147.896875 126.10375 147.79375 127.1875 147.6875 C132.03210579 148.08459884 132.88999887 149.37578564 136 153 C137.02423038 153.97919471 138.06263613 154.94373422 139.11328125 155.89453125 C139.63857422 156.37470703 140.16386719 156.85488281 140.70507812 157.34960938 C141.50075195 158.07374023 141.50075195 158.07374023 142.3125 158.8125 C142.86228516 159.31458984 143.41207031 159.81667969 143.97851562 160.33398438 C145.31805239 161.55703968 146.65888992 162.77867008 148 164 C142.91001327 170.32809161 137.10921803 175.66301458 131 181 C130.53706543 181.4734082 130.07413086 181.94681641 129.59716797 182.43457031 C126.73219902 185.20587496 125.27988901 185.98831361 121.2578125 186.15625 C119.87584042 185.96704646 118.49788604 185.74663477 117.125 185.5 C116.01668823 185.33794067 116.01668823 185.33794067 114.88598633 185.17260742 C110.46256137 184.50145087 106.08651594 183.62434109 101.70532227 182.72314453 C94.16671869 181.18897257 87.63635508 180.80319113 80 182 C79.26281738 182.11182617 78.52563477 182.22365234 77.76611328 182.33886719 C73.67797595 182.95978819 69.59509866 183.60582066 65.515625 184.28125 C64.75894531 184.39662109 64.00226563 184.51199219 63.22265625 184.63085938 C61.76284097 184.87330673 60.31022301 185.16516678 58.87109375 185.50976562 C56.10461834 186.08897988 53.83344923 186.45495405 51.28613281 185.06445312 C49.55891632 183.63838702 48.03615372 182.12971448 46.5 180.5 C45.37972198 179.38589789 44.25863 178.27261365 43.13671875 177.16015625 C42.60224121 176.61633301 42.06776367 176.07250977 41.51708984 175.51220703 C38.97839998 172.98168803 36.22863658 170.70846719 33.48828125 168.40234375 C32 167 32 167 30 164 C32.06057175 162.08122455 34.12337063 160.16494202 36.1875 158.25 C36.76564453 157.71117187 37.34378906 157.17234375 37.93945312 156.6171875 C39.61474064 155.0649437 41.30661057 153.53243259 43 152 C44.26263672 150.81664062 44.26263672 150.81664062 45.55078125 149.609375 C48.56537835 147.62849142 50.46194872 147.67087895 54 148 C53.85991329 144.4789137 53.71189018 140.95820288 53.5625 137.4375 C53.52318359 136.44685547 53.48386719 135.45621094 53.44335938 134.43554688 C53.6810782 124.94643001 53.6810782 124.94643001 49.98828125 116.83984375 C48.66376953 115.89818359 48.66376953 115.89818359 47.3125 114.9375 C29.4386989 101.21877734 17.57302127 84.76203755 9 64 C9 63.34 9 62.68 9 62 C8.40832031 62.06960937 7.81664062 62.13921875 7.20703125 62.2109375 C6.41683594 62.26507813 5.62664062 62.31921875 4.8125 62.375 C3.64654297 62.47941406 3.64654297 62.47941406 2.45703125 62.5859375 C-1.30227899 61.68944062 -3.0229305 59.12620592 -5 56 C-10.45046375 43.70476782 -12.12731816 30.90469763 -12.375 17.5625 C-12.40118408 16.70954346 -12.42736816 15.85658691 -12.4543457 14.9777832 C-12.46897512 9.48741734 -11.67132386 6.34690205 -8 2 C-4.9744375 -0.08007422 -3.85524891 0 0 0 Z " fill="#F2B281" transform="translate(167,184)"/>
<path d="M0 0 C0.43699219 1.41539063 0.43699219 1.41539063 0.8828125 2.859375 C6.07482629 19.28713032 12.45847921 34.08114904 28 43 C30.65388657 44.20475303 33.21315259 45.12265915 36 46 C35.65388672 44.94039062 35.65388672 44.94039062 35.30078125 43.859375 C33.06767443 36.83347371 31.08361352 29.76471077 29.25 22.625 C29.02739502 21.78163086 28.80479004 20.93826172 28.57543945 20.06933594 C27.35623886 15.23462443 26.75813048 10.98519945 27 6 C43.92495378 12.13491039 58.10103004 26.93887848 66.0625 42.75 C66.72126925 44.16069778 67.37264542 45.57505391 68 47 C69.17702346 42.32957089 69.19129527 37.78441267 69.1875 33 C69.1884668 31.74546021 69.1884668 31.74546021 69.18945312 30.46557617 C69.13060774 23.4877172 68.37748872 16.8505466 67 10 C72.87673562 12.5004685 76.26382183 17.99045467 78.8125 23.6875 C80.66738868 28.86166315 81.11801631 33.31638561 81.0625 38.8125 C81.05347656 39.97394531 81.04445313 41.13539063 81.03515625 42.33203125 C81.02355469 43.21246094 81.01195312 44.09289062 81 45 C89.18510004 40.16334998 91.66156656 33.96399486 94 25 C99.41760781 31.41109463 101.61987725 40.76718626 101.20703125 49.0546875 C100.92224665 51.73058806 100.540749 54.36384864 100 57 C103.465 54.525 103.465 54.525 107 52 C108.29854721 53.07507629 109.58858361 54.16043736 110.875 55.25 C111.59429687 55.85328125 112.31359375 56.4565625 113.0546875 57.078125 C114.97052118 58.97087634 115.96449045 60.53657727 117 63 C115.02 64.98 113.04 66.96 111 69 C107.4682364 67.30506881 104.26748441 65.2717622 101 63.12109375 C93.00401731 58.63897064 79.33746047 59.90240237 70.67578125 61.68359375 C68.25203536 62.60058395 66.1899384 63.6195719 64 65 C63.25492187 65.45890625 62.50984375 65.9178125 61.7421875 66.390625 C56.90930604 69.6818346 55.83297421 71.33405157 53 77 C47.72 77 42.44 77 37 77 C36.525625 75.96875 36.05125 74.9375 35.5625 73.875 C31.86899803 67.4276856 25.06012358 64.05297103 18.26171875 61.60205078 C14.08206171 60.48946073 9.92677335 60.51446146 5.625 60.5625 C4.2328125 60.57168457 4.2328125 60.57168457 2.8125 60.58105469 C-6.65980557 60.79785041 -12.7042338 62.97085988 -20 69 C-21.70801695 67.48109564 -23.39092055 65.93391453 -25.0625 64.375 C-26.00222656 63.51648438 -26.94195312 62.65796875 -27.91015625 61.7734375 C-30 59 -30 59 -29.90625 55.8125 C-28.99498632 52.98444032 -27.95759415 51.21293252 -26 49 C-21.70761377 50.65091778 -19.1206085 53.73754566 -16 57 C-16.0721875 56.25878906 -16.144375 55.51757812 -16.21875 54.75390625 C-19.36640412 19.03677549 -19.36640412 19.03677549 -10 5 C-6.89402864 1.46286552 -4.89097635 0 0 0 Z " fill="#F0B080" transform="translate(211,125)"/>
<path d="M0 0 C4.33125 2.1346875 4.33125 2.1346875 8.75 4.3125 C24.02104322 11.63385882 36.62542377 14.44071963 52.98193359 8.77148438 C59.50874166 6.27635814 65.73732888 3.08000219 72 0 C71.67 9.57 71.34 19.14 71 29 C73.31 29 75.62 29 78 29 C80.54296875 31.13671875 80.54296875 31.13671875 83 34 C84.02423038 34.97919471 85.06263613 35.94373422 86.11328125 36.89453125 C86.63857422 37.37470703 87.16386719 37.85488281 87.70507812 38.34960938 C88.23552734 38.83236328 88.76597656 39.31511719 89.3125 39.8125 C89.86228516 40.31458984 90.41207031 40.81667969 90.97851562 41.33398438 C92.31805239 42.55703968 93.65888992 43.77867008 95 45 C89.91001327 51.32809161 84.10921803 56.66301458 78 62 C77.53706543 62.4734082 77.07413086 62.94681641 76.59716797 63.43457031 C73.73219902 66.20587496 72.27988901 66.98831361 68.2578125 67.15625 C66.87584042 66.96704646 65.49788604 66.74663477 64.125 66.5 C63.38612549 66.39196045 62.64725098 66.2839209 61.88598633 66.17260742 C57.46256137 65.50145087 53.08651594 64.62434109 48.70532227 63.72314453 C41.16671869 62.18897257 34.63635508 61.80319113 27 63 C26.26281738 63.11182617 25.52563477 63.22365234 24.76611328 63.33886719 C20.67797595 63.95978819 16.59509866 64.60582066 12.515625 65.28125 C11.75894531 65.39662109 11.00226563 65.51199219 10.22265625 65.63085938 C8.76284097 65.87330673 7.31022301 66.16516678 5.87109375 66.50976562 C3.10461834 67.08897988 0.83344923 67.45495405 -1.71386719 66.06445312 C-3.44108368 64.63838702 -4.96384628 63.12971448 -6.5 61.5 C-7.62027802 60.38589789 -8.74137 59.27261365 -9.86328125 58.16015625 C-10.39775879 57.61633301 -10.93223633 57.07250977 -11.48291016 56.51220703 C-14.02160002 53.98168803 -16.77136342 51.70846719 -19.51171875 49.40234375 C-21 48 -21 48 -23 45 C-20.93942825 43.08122455 -18.87662937 41.16494202 -16.8125 39.25 C-16.23435547 38.71117187 -15.65621094 38.17234375 -15.06054688 37.6171875 C-13.38525936 36.0649437 -11.69338943 34.53243259 -10 33 C-9.15824219 32.21109375 -8.31648437 31.4221875 -7.44921875 30.609375 C-5 29 -5 29 1 29 C0.67 19.43 0.34 9.86 0 0 Z " fill="#E1A176" transform="translate(220,303)"/>
<path d="M0 0 C4.84088623 2.9466264 7.13535749 6.75321336 9 12 C10.08455183 18.50731099 7.62428103 23.69894317 4 29 C-2.11159473 35.11159473 -8.65389932 37.28464047 -17.25 37.4375 C-24.20542025 37.32818102 -29.43501141 36.28900855 -35 32 C-40.7908227 25.98076898 -41.38883146 20.07062504 -41.26171875 12.04296875 C-40.78829248 6.53850506 -39.36439811 2.99389449 -35.10546875 -0.59765625 C-24.93722995 -6.81639174 -10.10280276 -5.84258473 0 0 Z " fill="#F2C2A2" transform="translate(235,194)"/>
<path d="M0 0 C5.32966355 2.97231236 8.34985884 6.01999919 10.25 11.8125 C10.97530309 18.72642812 10.8221776 24.77675164 7.25 30.8125 C3.33571015 35.34483562 -0.80183775 38.67134154 -6.75 39.8125 C-15.12323986 40.40094197 -22.67351716 40.85956756 -29.75 35.8125 C-30.636875 35.27625 -31.52375 34.74 -32.4375 34.1875 C-36.52694705 29.98752735 -39.41847199 25.09365219 -40.015625 19.18359375 C-39.74965522 14.34442144 -38.7073467 10.17328035 -35.55859375 6.41796875 C-25.92128402 -2.13696494 -12.16986038 -3.96442421 0 0 Z " fill="#F2C2A2" transform="translate(307.75,191.1875)"/>
<path d="M0 0 C3.6204657 1.596762 6.44429757 3.8150509 9.5 6.3125 C10.90765625 7.45138672 10.90765625 7.45138672 12.34375 8.61328125 C14.8957206 10.90630189 16.94458765 13.26106609 19 16 C14.46725893 20.64123753 9.89503816 25.17171643 4.8984375 29.31640625 C2.97003313 30.92860675 2.97003313 30.92860675 1.5390625 32.83984375 C-0.25015688 34.92726635 -1.44053227 35.94208667 -4 37 C-9.79819246 37.0495572 -15.3147054 36.0515386 -21 35 C-22.53084781 34.74625939 -24.06209605 34.49492195 -25.59375 34.24609375 C-27.04216148 34.00029399 -28.49010214 33.75169975 -29.9375 33.5 C-30.6173999 33.38213135 -31.2972998 33.2642627 -31.99780273 33.14282227 C-36.76156608 32.23843392 -36.76156608 32.23843392 -39 30 C-28.22134742 21.23009631 -17.20347463 12.81692134 -6.05200195 4.52709961 C-4.03092409 3.02301371 -2.01454447 1.5128217 0 0 Z " fill="#F0F6FB" transform="translate(296,333)"/>
<path d="M0 0 C3.21829127 1.81385943 6.0396717 3.97090814 8.890625 6.30078125 C10.12266421 7.29035087 11.35578813 8.27857112 12.58984375 9.265625 C13.24130371 9.78753418 13.89276367 10.30944336 14.56396484 10.84716797 C18.93767268 14.30355923 23.40477815 17.64159637 27.86621094 20.98364258 C31.75780863 23.93001935 35.28397647 26.94188066 38.640625 30.48828125 C32.83600688 32.02597252 27.07521822 33.15059014 21.140625 34.05078125 C20.33753906 34.17646484 19.53445312 34.30214844 18.70703125 34.43164062 C17.11570939 34.67794733 15.52255557 34.91272836 13.92773438 35.13525391 C11.65283131 35.45595469 11.65283131 35.45595469 9.49414062 35.99365234 C6.73267426 36.57303177 4.47067115 36.94151768 1.92773438 35.55297852 C0.19989274 34.12699185 -1.32292855 32.61830629 -2.859375 30.98828125 C-3.97965302 29.87417914 -5.100745 28.7608949 -6.22265625 27.6484375 C-6.75713379 27.10461426 -7.29161133 26.56079102 -7.84228516 26.00048828 C-10.38097502 23.46996928 -13.13073842 21.19674844 -15.87109375 18.890625 C-17.359375 17.48828125 -17.359375 17.48828125 -19.359375 14.48828125 C-17.27818054 12.54843959 -15.19452953 10.61135831 -13.109375 8.67578125 C-12.22958984 7.8549707 -12.22958984 7.8549707 -11.33203125 7.01757812 C-10.19135698 5.96021152 -9.04374567 4.91026958 -7.88867188 3.86865234 C-6.65775618 2.75760551 -5.4499619 1.62097061 -4.25 0.4765625 C-2.359375 -0.51171875 -2.359375 -0.51171875 0 0 Z " fill="#F1F7FC" transform="translate(216.359375,333.51171875)"/>
<path d="M0 0 C-0.63575526 5.02418479 -2.10886286 9.34529105 -3.94140625 14.0234375 C-4.22853989 14.76961334 -4.51567352 15.51578918 -4.81150818 16.28457642 C-5.72319126 18.65014423 -6.64270911 21.0125745 -7.5625 23.375 C-8.18476607 24.98547576 -8.80651636 26.59615092 -9.42773438 28.20703125 C-10.94586371 32.14035342 -12.47102353 36.07088236 -14 40 C-19.60729371 39.14840388 -22.80940011 37.78745358 -27 34 C-31.6699838 27.6176888 -31.6599656 20.67333136 -31 13 C-30.04239905 8.79068936 -28.40174214 6.1820877 -25.10546875 3.40234375 C-17.3399825 -1.34690593 -8.75203144 -0.45689259 0 0 Z " fill="#F2CAAE" transform="translate(225,190)"/>
<path d="M0 0 C0.66 0.66 1.32 1.32 2 2 C0.09963505 7.25866377 -1.82125088 12.50917537 -3.76171875 17.75317383 C-4.41914098 19.53883525 -5.07086539 21.32660503 -5.71679688 23.11645508 C-6.64530833 25.6862387 -7.59392768 28.24778768 -8.546875 30.80859375 C-8.97525665 32.01484657 -8.97525665 32.01484657 -9.41229248 33.24546814 C-10.26074219 35.48999023 -10.26074219 35.48999023 -12 39 C-14.63528308 40.03919276 -15.54372456 40.1950802 -18.18359375 39.06640625 C-24.18376287 35.0628272 -28.54192834 31.05014224 -30.58984375 23.95703125 C-31.58765232 18.16077249 -30.60751088 13.30674207 -27.2578125 8.5 C-20.22442466 0.71216572 -10.12465754 -1.57158863 0 0 Z " fill="#F2CAAE" transform="translate(299,190)"/>
<path d="M0 0 C3.01111938 4.51667907 3.10067926 7.6639991 3 13 C1.68 12.34 0.36 11.68 -1 11 C-0.67 7.37 -0.34 3.74 0 0 Z " fill="#356A76" transform="translate(349,173)"/>
<path d="M0 0 C2.31 0 4.62 0 7 0 C2.25 4 2.25 4 0 4 C0 2.68 0 1.36 0 0 Z " fill="#929898" transform="translate(291,332)"/>
<path d="M0 0 C1.98 0 3.96 0 6 0 C6 1.32 6 2.64 6 4 C1.125 2.25 1.125 2.25 0 0 Z " fill="#999C9C" transform="translate(215,332)"/>
</svg>
