<?xml version="1.0" encoding="UTF-8"?>
<svg version="1.1" xmlns="http://www.w3.org/2000/svg" width="512" height="512">
<path d="M0 0 C2.1945493 1.66136655 4.24131389 3.3946982 6.28125 5.2421875 C7.19132812 6.0465625 8.10140625 6.8509375 9.0390625 7.6796875 C11.47162052 9.84798434 13.88394818 12.03506829 16.28125 14.2421875 C17.04308594 13.90445312 17.80492187 13.56671875 18.58984375 13.21875 C33.31548874 6.85785966 47.7613598 4.59125219 63.28125 10.2421875 C77.21467097 16.2065532 86.84543362 25.49632534 93.28125 39.2421875 C93.6636439 40.81894156 94.02082418 42.40218832 94.34375 43.9921875 C95.69847314 48.55417687 98.39878704 49.81758596 102.46875 52.0546875 C103.08089355 52.37155518 103.69303711 52.68842285 104.32373047 53.01489258 C112.31470757 57.16635204 119.21952472 62.69587858 126.28125 68.2421875 C127.24804688 68.99371094 128.21484375 69.74523437 129.2109375 70.51953125 C178.67575141 109.92992453 210.79392396 168.41606906 217.91015625 231.265625 C223.98112899 296.32089075 206.01629836 360.62592085 164.28125 411.2421875 C161.75223131 414.1248885 159.18308724 416.9587122 156.5703125 419.765625 C154.63541784 421.85900933 152.79548094 423.99300957 150.96875 426.1796875 C141.14306501 437.39601468 129.28725411 446.50382035 117.28125 455.2421875 C116.38164551 455.90299316 116.38164551 455.90299316 115.46386719 456.57714844 C97.58399319 469.56870748 77.18760624 479.24772192 56.28125 486.2421875 C55.44787109 486.52143066 54.61449219 486.80067383 53.75585938 487.08837891 C29.27611665 495.14242284 4.68409287 498.66936692 -21.03125 498.6171875 C-21.99619385 498.61697601 -22.9611377 498.61676453 -23.95532227 498.61654663 C-39.86185339 498.58186 -55.11747663 497.56852767 -70.71875 494.2421875 C-71.60240234 494.06026855 -72.48605469 493.87834961 -73.39648438 493.69091797 C-113.74359705 485.17234833 -152.24289638 465.73167782 -182.34765625 437.4609375 C-184.40027646 435.54019898 -186.4988453 433.72973069 -188.65625 431.9296875 C-233.33136952 392.79355637 -257.98791817 331.25435307 -262.26318359 273.21875 C-265.98552677 215.01142896 -248.02767327 155.9620633 -211.71875 110.2421875 C-211.038125 109.36949219 -210.3575 108.49679688 -209.65625 107.59765625 C-192.0860039 85.53795388 -171.29721398 67.6453618 -147.5234375 52.58203125 C-146.88970215 52.18040771 -146.2559668 51.77878418 -145.60302734 51.36499023 C-143.71875 50.2421875 -143.71875 50.2421875 -141.79150391 49.30883789 C-136.76103164 46.83864681 -135.13844529 43.87231016 -133.34375 38.8046875 C-130.14017749 30.69051585 -126.01076333 24.17688898 -120.71875 17.2421875 C-120.01878906 16.26572266 -120.01878906 16.26572266 -119.3046875 15.26953125 C-92.2563994 -19.82686711 -35.1919086 -22.75338918 0 0 Z " fill="#9589E7" transform="translate(277.71875,13.7578125)"/>
<path d="M0 0 C3.60218636 1.50429904 5.6758326 3.59135643 8.3125 6.4375 C27.70063151 26.0510749 53.76538638 37.8668865 80.52734375 43.23828125 C84 44 84 44 85 45 C85.08685603 46.56172745 85.10702219 48.12729344 85.09765625 49.69140625 C85.09443359 50.63564453 85.09121094 51.57988281 85.08789062 52.55273438 C85.07951172 53.54595703 85.07113281 54.53917969 85.0625 55.5625 C85.05798828 56.55958984 85.05347656 57.55667969 85.04882812 58.58398438 C85.03700007 61.05604849 85.02051849 63.52799518 85 66 C85.589021 65.98428955 86.17804199 65.9685791 86.78491211 65.95239258 C89.50234027 65.889308 92.21961361 65.85078009 94.9375 65.8125 C95.86369141 65.78736328 96.78988281 65.76222656 97.74414062 65.73632812 C107.11634523 65.63767334 114.29902459 67.460608 121.20703125 73.96875 C127.20089118 80.75917955 129.52277435 88.21429843 129.40234375 97.1796875 C128.2204344 105.4645278 123.54068042 112.32592908 117.22265625 117.59765625 C109.90120656 122.21698919 104.1022034 122.38515486 95.5625 122.1875 C94.44939453 122.17396484 93.33628906 122.16042969 92.18945312 122.14648438 C89.45912788 122.11132997 86.72982256 122.06212106 84 122 C84.03222656 123.175625 84.06445312 124.35125 84.09765625 125.5625 C84.06451275 147.1152459 69.68117304 170.29193016 55 185 C49.68186942 189.8051467 44.05576402 194.69525996 37.4359045 197.52178574 C35.24687495 198.78323333 34.20690884 199.42172446 33.34695446 201.82515287 C33.0967354 204.21003611 33.07382816 206.5111628 33.12025452 208.90899658 C33.10515773 210.27394607 33.10515773 210.27394607 33.08975595 211.66647029 C33.06446631 214.72280256 33.08916301 217.7766976 33.11352539 220.83300781 C33.10563954 223.02077499 33.09468071 225.20853294 33.08087158 227.39627075 C33.05208015 233.34238672 33.06641047 239.28771792 33.08831334 245.23383427 C33.10391647 251.44523779 33.08009831 257.65648503 33.06040955 263.86785889 C33.03268884 274.29543775 33.02935902 284.72279059 33.04467773 295.15039062 C33.06038908 305.8906804 33.06142977 316.63080638 33.04272461 327.37109375 C33.04157668 328.03315587 33.04042875 328.695218 33.03924603 329.37734261 C33.03339662 332.69872436 33.02724289 336.02010547 33.02097714 339.34148645 C32.96988749 366.89437636 32.96862072 394.44708936 33 422 C18.33967022 426.28800725 3.53333239 426.36563726 -11.625 426.3125 C-12.5916861 426.31200653 -13.55837219 426.31151306 -14.55435181 426.31100464 C-52.74876133 426.25123867 -52.74876133 426.25123867 -57 422 C-57.085912 419.15808171 -57.10585883 416.34075597 -57.084198 413.49887085 C-57.07996313 412.14517472 -57.07996313 412.14517472 -57.0756427 410.76413119 C-57.06517642 407.7156033 -57.04781024 404.66714998 -57.03076172 401.61865234 C-57.02234099 399.4427003 -57.01450644 397.26674592 -57.00721741 395.09078979 C-56.995442 391.6073017 -56.98323066 388.12381962 -56.96924853 384.64033961 C-56.93477247 375.99642842 -56.91853581 367.35262502 -56.91360474 358.70864868 C-56.91287205 357.4564684 -56.91213936 356.20428813 -56.91138446 354.91416299 C-56.90871848 349.74518584 -56.90667163 344.57620863 -56.9049089 339.40723109 C-56.90334106 335.42496996 -56.90126046 331.44270963 -56.8984375 327.46044922 C-56.8979772 326.79893441 -56.8975169 326.13741961 -56.89704265 325.4558589 C-56.88902749 315.41099059 -56.85102503 305.36649941 -56.79785156 295.32177734 C-56.7364824 283.66210523 -56.71377612 272.00308682 -56.73666394 260.34326518 C-56.74731789 254.16930917 -56.73822439 247.99678187 -56.68233871 241.82304001 C-56.63018804 236.01283144 -56.62928975 230.2048748 -56.66770744 224.39458084 C-56.67270404 222.26245234 -56.65887847 220.13018389 -56.62482262 217.99832153 C-55.98184376 206.86128666 -55.98184376 206.86128666 -60.41330338 197.2373085 C-63.22708229 195.42686383 -65.88676473 194.19843281 -69 193 C-89.91365305 179.02805342 -101.57926253 156.27639457 -107.625 132.546875 C-108.14650852 129.00496299 -108.0606647 125.57921736 -108 122 C-109.01199463 122.03927612 -109.01199463 122.03927612 -110.04443359 122.0793457 C-113.1543775 122.18442935 -116.26394648 122.24867417 -119.375 122.3125 C-120.43589844 122.35439453 -121.49679688 122.39628906 -122.58984375 122.43945312 C-131.07310548 122.5695645 -137.67779597 120.85317022 -144.11254883 115.11669922 C-149.6339889 109.46447008 -153.10512172 102.38688058 -153.4375 94.4375 C-152.98165722 86.08528393 -149.82843952 78.99208901 -144 73 C-137.75817381 67.93608458 -132.76774915 65.85515936 -124.69921875 65.90234375 C-123.72275391 65.90556641 -122.74628906 65.90878906 -121.74023438 65.91210938 C-120.73283203 65.92048828 -119.72542969 65.92886719 -118.6875 65.9375 C-117.66076172 65.94201172 -116.63402344 65.94652344 -115.57617188 65.95117188 C-113.05075612 65.96291799 -110.52537048 65.98085229 -108 66 C-108 59.73 -108 53.46 -108 47 C-106.36933594 46.81824219 -104.73867187 46.63648438 -103.05859375 46.44921875 C-63.34070727 41.93125589 -28.15723682 29.60947253 0 0 Z " fill="#F8B795" transform="translate(268,86)"/>
<path d="M0 0 C6.28814751 3.14407376 11.95488278 6.0258124 17.625 10 C18.30103271 10.47074951 18.97706543 10.94149902 19.67358398 11.42651367 C73.51036071 49.45274434 109.71159717 105.95254093 121 171 C131.36899699 234.68894592 115.15634647 299.71087967 77.65087891 351.87646484 C72.59550443 358.78758543 67.12320497 365.25579837 61.2890625 371.5234375 C59.35416784 373.61682183 57.51423094 375.75082207 55.6875 377.9375 C45.86181501 389.15382718 34.00600411 398.26163285 22 407 C21.40026367 407.44053711 20.80052734 407.88107422 20.18261719 408.33496094 C-3.76621427 425.73623893 -41.40681351 446 -72 446 C-72.28031236 417.19325502 -72.49192735 388.38671437 -72.62174606 359.57888031 C-72.63406402 356.91619274 -72.64648005 354.25350604 -72.65917969 351.59082031 C-72.66232741 350.92900232 -72.66547514 350.26718432 -72.66871825 349.58531123 C-72.71766396 339.54054781 -72.80217872 329.49649186 -72.90527344 319.45214844 C-73.02487411 307.79410125 -73.10229674 296.13666764 -73.12906194 284.47802401 C-73.1447085 278.30435512 -73.18147771 272.13244156 -73.26876068 265.95933533 C-73.35026824 260.14756448 -73.37533032 254.33827002 -73.35729218 248.5259819 C-73.36059137 246.39417937 -73.38443705 244.26229338 -73.4304657 242.13098526 C-73.76139595 226.01600943 -73.76139595 226.01600943 -69.43686676 221.06636047 C-66.36910951 219.00545025 -63.35812984 217.52523486 -60 216 C-40.79299649 202.23289975 -27.20556635 180.12389381 -22.47265625 156.9921875 C-21.8950681 153.33572036 -21.43871691 149.67573631 -21 146 C-20.32533691 145.99589111 -19.65067383 145.99178223 -18.95556641 145.98754883 C-15.84453839 145.95428292 -12.73538435 145.88360492 -9.625 145.8125 C-8.56410156 145.80669922 -7.50320313 145.80089844 -6.41015625 145.79492188 C2.57494698 145.54686688 10.03879579 143.40446104 16.375 136.75 C21.73072286 129.70539862 24.13135662 122.85530986 23 114 C21.38831396 105.98152893 17.40217547 99.75069506 11.0625 94.625 C7.48377471 92.59002225 7.48377471 92.59002225 1 91 C0.67 60.97 0.34 30.94 0 0 Z " fill="#9589E7" transform="translate(373,62)"/>
<path d="M0 0 C2.1945493 1.66136655 4.24131389 3.3946982 6.28125 5.2421875 C7.19132813 6.0465625 8.10140625 6.8509375 9.0390625 7.6796875 C11.47162052 9.84798434 13.88394818 12.03506829 16.28125 14.2421875 C17.04308594 13.90445312 17.80492187 13.56671875 18.58984375 13.21875 C33.31548874 6.85785966 47.7613598 4.59125219 63.28125 10.2421875 C76.89871468 16.07130437 87.39453459 25.47008407 93.28125 39.2421875 C96.99991617 49.84208886 96.66918634 60.3795349 96.57421875 71.4453125 C96.56861265 73.37871977 96.56434735 75.31213135 96.56135559 77.24554443 C96.54998658 82.29583831 96.52058915 87.34586693 96.48724365 92.39605713 C96.45637008 97.56478285 96.44281356 102.73355209 96.42773438 107.90234375 C96.39571066 118.01575937 96.34300902 128.12890971 96.28125 138.2421875 C89.35125 138.2421875 82.42125 138.2421875 75.28125 138.2421875 C74.95125 131.3121875 74.62125 124.3821875 74.28125 117.2421875 C71.208125 116.5821875 68.135 115.9221875 64.96875 115.2421875 C54.16003232 112.75554787 44.27199572 109.017554 34.28125 104.2421875 C33.59272949 103.9131543 32.90420898 103.58412109 32.19482422 103.24511719 C16.95168911 95.82153646 4.0517915 85.40508038 -7.71875 73.2421875 C-11.0943848 74.68674962 -13.06235483 76.48679 -15.53125 79.1796875 C-29.68943651 93.59235122 -47.86794723 103.43605555 -66.71875 110.2421875 C-67.94335938 110.69464844 -69.16796875 111.14710937 -70.4296875 111.61328125 C-85.8363423 117.05567398 -101.40905897 119.44863929 -117.71875 119.2421875 C-117.71875 125.5121875 -117.71875 131.7821875 -117.71875 138.2421875 C-124.97875 138.2421875 -132.23875 138.2421875 -139.71875 138.2421875 C-139.83268708 128.54806987 -139.92399669 118.85441248 -139.97781086 109.15977097 C-140.00366696 104.65589851 -140.03861288 100.15251624 -140.09594727 95.64892578 C-140.46814188 65.60388406 -139.5402617 38.90697286 -118.71875 15.2421875 C-118.1103125 14.4378125 -117.501875 13.6334375 -116.875 12.8046875 C-89.20794839 -20.07499702 -34.3786892 -22.22760078 0 0 Z " fill="#5A5B5E" transform="translate(277.71875,13.7578125)"/>
<path d="M0 0 C0 58.74 0 117.48 0 178 C-10.14308682 176.87299035 -10.14308682 176.87299035 -13.8046875 175.8359375 C-14.62501465 175.60495361 -15.4453418 175.37396973 -16.29052734 175.13598633 C-17.14340332 174.88486084 -17.9962793 174.63373535 -18.875 174.375 C-20.24519287 173.97414185 -20.24519287 173.97414185 -21.64306641 173.56518555 C-57.85839545 162.76692215 -90.40203634 144.89272363 -118 119 C-120.06982011 117.17533625 -122.15368784 115.36896812 -124.24609375 113.5703125 C-124.82488281 113.05210937 -125.40367188 112.53390625 -126 112 C-126.73347656 111.38769531 -127.46695313 110.77539062 -128.22265625 110.14453125 C-130 108 -130 108 -130.3125 105.44140625 C-128.30555399 86.95241612 -121.08476433 70.41887354 -107 58 C-96.02194011 49.39598337 -82.91400307 43.46472355 -70.61811829 36.97097778 C-64.02225089 33.48735449 -57.44825063 29.96360015 -50.875 26.4375 C-49.1571228 25.51710938 -49.1571228 25.51710938 -47.40454102 24.578125 C-39.20339566 20.18413806 -31.00614272 15.78295755 -22.8125 11.375 C-21.75595215 10.8070874 -20.6994043 10.2391748 -19.61083984 9.65405273 C-18.61133301 9.11594971 -17.61182617 8.57784668 -16.58203125 8.0234375 C-15.16591553 7.26111816 -15.16591553 7.26111816 -13.72119141 6.48339844 C-10.37112999 4.65718516 -7.05465538 2.77455647 -3.7487793 0.86962891 C-2 0 -2 0 0 0 Z " fill="#5A5B5E" transform="translate(211,330)"/>
<path d="M0 0 C10.61266248 5.30633124 21.16116522 10.66576709 31.625 16.25 C33.03204617 16.99913794 34.43911025 17.74824223 35.84619141 18.49731445 C44.57611555 23.14954664 53.28570262 27.8378098 61.953125 32.60571289 C66.8459451 35.29482966 71.76026545 37.93505718 76.703125 40.53125 C98.82013258 52.18071376 116.95231702 63.72515641 126.12890625 87.984375 C126.92582093 90.64845694 127.49331205 93.26707683 128 96 C128.25652344 96.97582031 128.51304687 97.95164062 128.77734375 98.95703125 C129.43198703 102.29014963 129.63995045 104.65560142 129 108 C125.93951541 112.40019087 122.12381076 115.65293442 118 119 C117.07703125 119.78246094 116.1540625 120.56492187 115.203125 121.37109375 C113.39759638 122.87657065 111.57436599 124.36106207 109.734375 125.82421875 C107.93169855 127.25863415 106.14956347 128.71930634 104.390625 130.20703125 C92.30918879 140.41191302 78.96671607 148.64259158 65 156 C64.31583008 156.36448242 63.63166016 156.72896484 62.92675781 157.10449219 C44.67352058 166.69230757 20.74617968 177 0 177 C0 118.59 0 60.18 0 0 Z " fill="#5A5B5E" transform="translate(302,330)"/>
<path d="M0 0 C4.93181973 1.61498681 9.59083918 3.54535844 14.31640625 5.68359375 C24.40699963 9.28967007 34.13532946 10.53065999 44.8125 10.4375 C46.03718994 10.42992676 47.26187988 10.42235352 48.52368164 10.41455078 C62.18460583 10.16671305 73.29643073 7.30054837 85.5234375 1.171875 C88 0 88 0 90 0 C90 41.58 90 83.16 90 126 C75.27182544 130.20804987 60.58404073 130.36581502 45.375 130.3125 C44.4083139 130.31200653 43.44162781 130.31151306 42.44564819 130.31100464 C4.25123867 130.25123867 4.25123867 130.25123867 0 126 C-0.09605864 124.36776544 -0.12187821 122.7313561 -0.12025452 121.09629822 C-0.12162918 120.03474014 -0.12300385 118.97318207 -0.12442017 117.87945557 C-0.12082489 116.70485779 -0.11722961 115.53026001 -0.11352539 114.32006836 C-0.11367142 113.09097244 -0.11381744 111.86187653 -0.1139679 110.59553528 C-0.11338892 107.21551328 -0.10835964 103.83555171 -0.10139394 100.45554042 C-0.09515988 96.92678806 -0.09455656 93.39803497 -0.09336853 89.86927795 C-0.09025537 83.18276881 -0.08204218 76.49627594 -0.07201904 69.80977398 C-0.06085744 62.19925697 -0.05534733 54.5887392 -0.05032361 46.97821605 C-0.03985956 31.31880126 -0.02226041 15.65940273 0 0 Z " fill="#EDEDED" transform="translate(211,382)"/>
<path d="M0 0 C1.27141846 -0.00945648 2.54283691 -0.01891296 3.8527832 -0.02865601 C5.24170238 -0.02328631 6.63061873 -0.01713337 8.01953125 -0.01025391 C9.44295399 -0.01227479 10.86637572 -0.01518636 12.28979492 -0.01895142 C15.27239849 -0.02337412 18.25473246 -0.01694576 21.23730469 -0.00292969 C25.06088216 0.01416256 28.88382791 0.00432104 32.7073822 -0.01364708 C35.64649212 -0.02448659 38.58545222 -0.0210379 41.52456665 -0.0132637 C42.93437779 -0.01126214 44.34420253 -0.01371947 45.7539978 -0.02070236 C47.72401673 -0.02831864 49.69408334 -0.0146522 51.6640625 0 C52.78530518 0.00238678 53.90654785 0.00477356 55.06176758 0.00723267 C57.83203125 0.38818359 57.83203125 0.38818359 59.68603516 1.74276733 C62.53378781 5.83155834 61.45437299 11.70776222 60.83203125 16.38818359 C57.69954987 25.91184494 51.76914638 33.9289002 42.89453125 38.76318359 C33.35946005 42.96381925 22.8260784 44.1063659 12.984375 40.35302734 C3.39857366 36.05594399 -4.59844392 28.85974383 -8.546875 18.92724609 C-9.78875663 13.8503715 -9.96132061 8.54854435 -9.16796875 3.38818359 C-6.68966657 -0.19815976 -4.15805117 0.00885121 0 0 Z " fill="#F7F6F4" transform="translate(230.16796875,229.61181640625)"/>
<path d="M0 0 C0.33 0 0.66 0 1 0 C1 6.93 1 13.86 1 21 C7.50613706 20.88232828 7.50613706 20.88232828 14.01147461 20.72973633 C23.27920672 20.64609741 30.38733762 22.5438091 37.20703125 28.96875 C43.20089118 35.75917955 45.52277435 43.21429843 45.40234375 52.1796875 C44.2204344 60.4645278 39.54068042 67.32592908 33.22265625 72.59765625 C21.65670821 79.89497672 16.18687861 77 0 77 C0 51.59 0 26.18 0 0 Z " fill="#E2A88E" transform="translate(352,131)"/>
<path d="M0 0 C3.9290625 1.6396875 3.9290625 1.6396875 7.9375 3.3125 C31.51195936 12.64785714 58.46698716 13.08007692 82.0625 3.3125 C83.71144845 2.54835316 85.35801674 1.77900088 87 1 C87.99 0.67 88.98 0.34 90 0 C90 8.58 90 17.16 90 26 C62.34855216 38.28953237 32.33424935 37.54674492 4 28 C2.68 27.34 1.36 26.68 0 26 C0 17.42 0 8.84 0 0 Z " fill="#E3A98E" transform="translate(211,286)"/>
<path d="M0 0 C0 18.48 0 36.96 0 56 C-27.74576271 56 -27.74576271 56 -36.875 47.3125 C-41.78355976 41.13908678 -44.75109948 34.18345169 -44.31640625 26.21875 C-43.10295245 17.70959251 -39.50870207 10.65785353 -32.78515625 5.203125 C-22.10620681 -2.25970157 -14.51817283 0 0 0 Z " fill="#E2A88E" transform="translate(159,152)"/>
<path d="M0 0 C1.24072266 -0.01611328 2.48144531 -0.03222656 3.75976562 -0.04882812 C4.95150391 -0.04947266 6.14324219 -0.05011719 7.37109375 -0.05078125 C8.46220459 -0.05376221 9.55331543 -0.05674316 10.67749023 -0.05981445 C13.91573191 0.35808506 15.30072505 0.97953036 17.5625 3.3125 C18.0625 6.8125 18.0625 6.8125 17.5625 10.3125 C15.31054546 12.62622968 13.9051239 13.26424927 10.69335938 13.71655273 C7.14896899 13.74840592 3.60703857 13.77032843 0.0625 13.75 C-1.79181641 13.7799707 -1.79181641 13.7799707 -3.68359375 13.81054688 C-4.87082031 13.80990234 -6.05804688 13.80925781 -7.28125 13.80859375 C-8.36599609 13.81044678 -9.45074219 13.8122998 -10.56835938 13.81420898 C-14.11511283 13.19401001 -15.32473325 12.19130476 -17.4375 9.3125 C-17.375 5.6875 -17.375 5.6875 -16.4375 2.3125 C-11.47930365 -0.99296423 -5.82425792 -0.01508094 0 0 Z " fill="#605F60" transform="translate(308.4375,141.6875)"/>
<path d="M0 0 C1.85431641 -0.0299707 1.85431641 -0.0299707 3.74609375 -0.06054688 C4.93332031 -0.05990234 6.12054688 -0.05925781 7.34375 -0.05859375 C8.97086914 -0.06137329 8.97086914 -0.06137329 10.63085938 -0.06420898 C14.17761283 0.55598999 15.38723325 1.55869524 17.5 4.4375 C17.4375 8.0625 17.4375 8.0625 16.5 11.4375 C11.54180365 14.74296423 5.88675792 13.76508094 0.0625 13.75 C-1.79858398 13.77416992 -1.79858398 13.77416992 -3.69726562 13.79882812 C-4.88900391 13.79947266 -6.08074219 13.80011719 -7.30859375 13.80078125 C-8.39970459 13.80376221 -9.49081543 13.80674316 -10.61499023 13.80981445 C-13.85323191 13.39191494 -15.23822505 12.77046964 -17.5 10.4375 C-18 6.9375 -18 6.9375 -17.5 3.4375 C-12.84384658 -1.34638004 -6.19940012 -0.03555443 0 0 Z " fill="#605F60" transform="translate(203.5,141.5625)"/>
<path d="M0 0 C3.375 1 3.375 1 5.375 4 C5.62290112 6.69520404 5.74517523 9.24286697 5.75 11.9375 C5.77449219 12.65357422 5.79898437 13.36964844 5.82421875 14.10742188 C5.84388265 17.64364612 5.66762401 19.61309964 3.5078125 22.46875 C1.375 24 1.375 24 -1.125 24.5625 C-4.75069547 23.74671852 -5.63455366 22.08104507 -7.625 19 C-8.15625 15.625 -8.15625 15.625 -8.125 12 C-8.1353125 10.80375 -8.145625 9.6075 -8.15625 8.375 C-7.31275288 3.01631241 -5.62886276 0 0 0 Z " fill="#494645" transform="translate(309.625,161)"/>
<path d="M0 0 C3.62569547 0.81578148 4.50955366 2.48145493 6.5 5.5625 C7.03125 8.9375 7.03125 8.9375 7 12.5625 C7.0103125 13.75875 7.020625 14.955 7.03125 16.1875 C6.41002659 20.1340958 5.39601776 21.84168617 2.5 24.5625 C-1.125 24.5625 -1.125 24.5625 -4.5 23.5625 C-6.97211853 19.85432221 -6.86730992 16.9199099 -6.875 12.625 C-6.89949219 11.90892578 -6.92398438 11.19285156 -6.94921875 10.45507812 C-6.96888265 6.91885388 -6.79262401 4.94940036 -4.6328125 2.09375 C-2.5 0.5625 -2.5 0.5625 0 0 Z " fill="#494645" transform="translate(203.5,160.4375)"/>
</svg>
