<?xml version="1.0" encoding="UTF-8"?>
<svg version="1.1" xmlns="http://www.w3.org/2000/svg" width="577" height="569">
<path d="M0 0 C0.6177832 0.20995605 1.23556641 0.41991211 1.87207031 0.63623047 C6.64038617 2.28183722 11.32918793 4.09659835 16 6 C16.73686035 6.29922363 17.4737207 6.59844727 18.23291016 6.90673828 C33.77939465 13.30393572 46.68882941 21.72868539 60 32 C61.25490234 32.928125 61.25490234 32.928125 62.53515625 33.875 C66.74395626 37.02281704 70.29403982 40.15803297 73.515625 44.32421875 C75.0312693 46.14141571 75.0312693 46.14141571 77.34375 47.8046875 C80.44164552 50.36500704 82.81943748 53.2667068 85.25 56.4375 C85.72816162 57.05657227 86.20632324 57.67564453 86.69897461 58.31347656 C98.82780921 74.1412328 108.46037783 90.08761783 115.4375 108.8125 C115.85056396 109.92061035 116.26362793 111.0287207 116.68920898 112.17041016 C121.10492143 124.4497576 123.42923079 136.53226377 124.6875 149.5 C124.81705078 150.71558594 124.94660156 151.93117188 125.08007812 153.18359375 C127.33233661 175.51551125 126.63767848 200.64528892 118.77294922 221.90820312 C117.90589317 224.25467697 117.09759712 226.61846095 116.28515625 228.984375 C108.49830782 251.05391058 96.72171899 269.83360802 81.6875 287.625 C81.20804932 288.19331543 80.72859863 288.76163086 80.23461914 289.34716797 C77.08795217 292.98242076 73.74364161 295.98414326 70 299 C69.21625 299.78375 68.4325 300.5675 67.625 301.375 C62.34259377 306.65740623 56.85775493 311.33381462 50.5546875 315.35546875 C48.73998243 316.52365046 46.95596989 317.74012719 45.1953125 318.98828125 C8.58174856 344.18808137 -40.3857781 353.15363611 -83.93945312 345.39794922 C-127.55286994 336.97497891 -168.31083973 312.84790696 -195 277 C-195.721875 276.13375 -196.44375 275.2675 -197.1875 274.375 C-198.9743402 272.03362319 -200.40469735 269.6178963 -201.8203125 267.0390625 C-203.17362088 264.69990034 -204.68045136 262.49321064 -206.1875 260.25 C-214.00848768 247.86676951 -219.31972529 234.99660856 -223.375 220.9375 C-223.69654053 219.82769775 -224.01808105 218.71789551 -224.34936523 217.57446289 C-228.67578254 201.84504979 -230.56945433 186.53213282 -230.4375 170.25 C-230.43379395 169.42239166 -230.43008789 168.59478333 -230.42626953 167.74209595 C-230.34205706 154.47911086 -229.53260602 141.84714112 -226 129 C-225.73687012 128.02385742 -225.47374023 127.04771484 -225.20263672 126.04199219 C-219.72876888 106.29641572 -212.04014751 87.64319694 -200 71 C-199.30777344 69.93910156 -198.61554688 68.87820312 -197.90234375 67.78515625 C-195.64745245 64.48384722 -193.16040552 61.47136766 -190.5625 58.4375 C-190.09779297 57.88642578 -189.63308594 57.33535156 -189.15429688 56.76757812 C-186.24659364 53.34889776 -183.18591471 50.16471062 -180 47 C-178.94648103 45.75997289 -177.90389617 44.51053248 -176.875 43.25 C-170.92811323 36.37919866 -163.60520594 30.9116955 -156 26 C-155.26007813 25.42894531 -154.52015625 24.85789063 -153.7578125 24.26953125 C-145.9874747 18.30919795 -137.85223909 14.07439358 -129 10 C-128.1867627 9.62166016 -127.37352539 9.24332031 -126.53564453 8.85351562 C-88.27294633 -8.78712633 -40.44760394 -13.77834083 0 0 Z " fill="#FEFEFE" transform="translate(346,124)"/>
<path d="M0 0 C3.4266421 2.90745391 6.73622266 5.91135217 10 9 C11.14275391 10.06347656 11.14275391 10.06347656 12.30859375 11.1484375 C27.88679201 26.10566772 38.18142612 44.9585792 43.75 65.6875 C43.96100342 66.4714917 44.17200684 67.2554834 44.3894043 68.06323242 C52.77050219 100.79319085 45.78381545 134.55189774 29.0625 163.25537109 C26.69833558 167.13733777 24.01074451 170.60476648 21 174 C19.95199219 175.20849609 19.95199219 175.20849609 18.8828125 176.44140625 C16.62632545 178.99849798 14.32505668 181.50520234 12 184 C11.31292969 184.7528125 10.62585938 185.505625 9.91796875 186.28125 C-0.62742316 197.39401921 -13.20444519 204.68704258 -27 211 C-27.85851562 211.40992188 -28.71703125 211.81984375 -29.6015625 212.2421875 C-37.63247315 215.80228191 -46.4227351 217.29979173 -55 219 C-55.94101562 219.19722656 -56.88203125 219.39445313 -57.8515625 219.59765625 C-88.77116109 223.54892009 -119.98822972 215.99940496 -145.1875 197.6875 C-172.52971933 176.25413613 -190.01053257 147.91264386 -195.375 113.4375 C-198.84158666 80.70148574 -191.0850266 47.62280842 -170.3046875 21.59228516 C-148.92966559 -4.49452115 -120.43081826 -21.06028333 -86.87890625 -24.74072266 C-55.82945966 -27.53706868 -24.41513123 -20.01737467 0 0 Z " fill="#D042B2" transform="translate(368,190)"/>
<path d="M0 0 C0.6177832 0.20995605 1.23556641 0.41991211 1.87207031 0.63623047 C6.64038617 2.28183722 11.32918793 4.09659835 16 6 C16.73686035 6.29922363 17.4737207 6.59844727 18.23291016 6.90673828 C33.77939465 13.30393572 46.68882941 21.72868539 60 32 C61.25490234 32.928125 61.25490234 32.928125 62.53515625 33.875 C66.74395626 37.02281704 70.29403982 40.15803297 73.515625 44.32421875 C75.0312693 46.14141571 75.0312693 46.14141571 77.34375 47.8046875 C80.44164552 50.36500704 82.81943748 53.2667068 85.25 56.4375 C85.72816162 57.05657227 86.20632324 57.67564453 86.69897461 58.31347656 C98.82780921 74.1412328 108.46037783 90.08761783 115.4375 108.8125 C115.85056396 109.92061035 116.26362793 111.0287207 116.68920898 112.17041016 C121.10492143 124.4497576 123.42923079 136.53226377 124.6875 149.5 C124.81705078 150.71558594 124.94660156 151.93117188 125.08007812 153.18359375 C127.33233661 175.51551125 126.63767848 200.64528892 118.77294922 221.90820312 C117.90589317 224.25467697 117.09759712 226.61846095 116.28515625 228.984375 C108.49830782 251.05391058 96.72171899 269.83360802 81.6875 287.625 C81.20804932 288.19331543 80.72859863 288.76163086 80.23461914 289.34716797 C77.08795217 292.98242076 73.74364161 295.98414326 70 299 C69.21625 299.78375 68.4325 300.5675 67.625 301.375 C62.34259377 306.65740623 56.85775493 311.33381462 50.5546875 315.35546875 C48.73998243 316.52365046 46.95596989 317.74012719 45.1953125 318.98828125 C8.58174856 344.18808137 -40.3857781 353.15363611 -83.93945312 345.39794922 C-127.55286994 336.97497891 -168.31083973 312.84790696 -195 277 C-195.721875 276.13375 -196.44375 275.2675 -197.1875 274.375 C-198.9743402 272.03362319 -200.40469735 269.6178963 -201.8203125 267.0390625 C-203.17362088 264.69990034 -204.68045136 262.49321064 -206.1875 260.25 C-214.00848768 247.86676951 -219.31972529 234.99660856 -223.375 220.9375 C-223.69654053 219.82769775 -224.01808105 218.71789551 -224.34936523 217.57446289 C-228.67578254 201.84504979 -230.56945433 186.53213282 -230.4375 170.25 C-230.43379395 169.42239166 -230.43008789 168.59478333 -230.42626953 167.74209595 C-230.34205706 154.47911086 -229.53260602 141.84714112 -226 129 C-225.73687012 128.02385742 -225.47374023 127.04771484 -225.20263672 126.04199219 C-219.72876888 106.29641572 -212.04014751 87.64319694 -200 71 C-199.30777344 69.93910156 -198.61554688 68.87820312 -197.90234375 67.78515625 C-195.64745245 64.48384722 -193.16040552 61.47136766 -190.5625 58.4375 C-190.09779297 57.88642578 -189.63308594 57.33535156 -189.15429688 56.76757812 C-186.24659364 53.34889776 -183.18591471 50.16471062 -180 47 C-178.94648103 45.75997289 -177.90389617 44.51053248 -176.875 43.25 C-170.92811323 36.37919866 -163.60520594 30.9116955 -156 26 C-155.26007813 25.42894531 -154.52015625 24.85789063 -153.7578125 24.26953125 C-145.9874747 18.30919795 -137.85223909 14.07439358 -129 10 C-128.1867627 9.62166016 -127.37352539 9.24332031 -126.53564453 8.85351562 C-88.27294633 -8.78712633 -40.44760394 -13.77834083 0 0 Z M-171.5625 65.0625 C-200.39159459 99.80525502 -212.26078996 142.20074873 -208.765625 187.00439453 C-208.16189136 192.40522889 -207.19915861 197.70168981 -206 203 C-205.85546387 203.65419922 -205.71092773 204.30839844 -205.56201172 204.98242188 C-200.39089043 227.72848362 -190.25853531 248.59227676 -176 267 C-175.26007813 267.96292969 -174.52015625 268.92585938 -173.7578125 269.91796875 C-148.2621136 302.08247145 -110.50974994 322.1286039 -69.9921875 327.390625 C-29.6767473 331.56497576 11.24108165 320.06464094 43.125 295.0625 C48.23782521 290.87704116 53.15899955 286.49580177 58 282 C58.60457031 281.44957031 59.20914062 280.89914062 59.83203125 280.33203125 C85.83291446 255.67077199 102.72605748 216.35863293 104.1262207 180.79394531 C104.76956093 151.24522642 101.0476855 124.78476485 88 98 C87.45601563 96.88238281 86.91203125 95.76476562 86.3515625 94.61328125 C67.64533582 58.21078849 34.43917182 30.04550696 -4.3515625 17.22265625 C-65.4575506 -1.68137017 -129.39291697 17.48656017 -171.5625 65.0625 Z " fill="#DA4897" transform="translate(346,124)"/>
<path d="M0 0 C0.66 0.33 1.32 0.66 2 1 C1.51789063 1.38671875 1.03578125 1.7734375 0.5390625 2.171875 C-0.09257812 2.69265625 -0.72421875 3.2134375 -1.375 3.75 C-2.00148437 4.26046875 -2.62796875 4.7709375 -3.2734375 5.296875 C-5.07285474 6.87967331 -5.07285474 6.87967331 -5.90161133 8.88134766 C-7.91109789 12.7573922 -11.24253693 15.56966974 -14.3125 18.625 C-15.30926758 19.6459375 -15.30926758 19.6459375 -16.32617188 20.6875 C-22.4065541 26.77389645 -22.4065541 26.77389645 -27 28 C-24.43272993 21.93190711 -20.0327496 18.0003907 -15 14 C-14.40832031 13.23429688 -13.81664062 12.46859375 -13.20703125 11.6796875 C-10.79485296 8.75091881 -8.21335227 6.55112621 -5.25 4.1875 C-4.26515625 3.39730469 -3.2803125 2.60710937 -2.265625 1.79296875 C-1.51796875 1.20128906 -0.7703125 0.60960937 0 0 Z " fill="#C590AD" transform="translate(184,154)"/>
<path d="M0 0 C0.66 0 1.32 0 2 0 C3.65772085 14.8454823 4.67299006 29.0924636 3 44 C2.34 44 1.68 44 1 44 C0.67 29.48 0.34 14.96 0 0 Z " fill="#B38AA0" transform="translate(468,268)"/>
<path d="M0 0 C0.33 0.66 0.66 1.32 1 2 C0.29296875 4.03125 0.29296875 4.03125 -0.8125 6.5 C-2.67506061 10.9251871 -3.79430263 15.14813585 -4.60546875 19.87109375 C-5 22 -5 22 -6 25 C-6.66 25 -7.32 25 -8 25 C-8.33 25.99 -8.66 26.98 -9 28 C-8.3182818 23.15222614 -7.09392826 18.65160616 -5.625 14 C-5.41617188 13.31421875 -5.20734375 12.6284375 -4.9921875 11.921875 C-3.67835978 7.72403521 -2.08125499 3.89474618 0 0 Z " fill="#D0C2CA" transform="translate(131,222)"/>
<path d="M0 0 C2.29158942 2.89818662 4.07862366 5.83140544 5.75 9.125 C6.19859375 9.99382812 6.6471875 10.86265625 7.109375 11.7578125 C7.40328125 12.49773437 7.6971875 13.23765625 8 14 C7.67 14.66 7.34 15.32 7 16 C6.34 14.35 5.68 12.7 5 11 C4.34 11 3.68 11 3 11 C0.84694043 7.14243493 -0.39253254 4.44870215 0 0 Z " fill="#997488" transform="translate(132,364)"/>
<path d="M0 0 C0 0.99 0 1.98 0 3 C-0.66 3.66 -1.32 4.32 -2 5 C-2.680625 6.7325 -2.680625 6.7325 -3.375 8.5 C-5 12 -5 12 -7.1875 13.4375 C-8.0846875 13.7159375 -8.0846875 13.7159375 -9 14 C-7.63922005 11.1902414 -6.15174898 8.52384135 -4.5 5.875 C-4.0771875 5.19179687 -3.654375 4.50859375 -3.21875 3.8046875 C-2 2 -2 2 0 0 Z " fill="#CBBEC5" transform="translate(152,187)"/>
<path d="M0 0 C-1.32 0.33 -2.64 0.66 -4 1 C-4 1.66 -4 2.32 -4 3 C-7.52948291 4.66670026 -9.28272326 5.13583456 -13 4 C-11.40233897 3.13372601 -9.79660056 2.28233535 -8.1875 1.4375 C-7.29417969 0.96183594 -6.40085938 0.48617187 -5.48046875 -0.00390625 C-3 -1 -3 -1 0 0 Z " fill="#BDAAB5" transform="translate(226,132)"/>
<path d="M0 0 C-1.76641683 0.6987693 -3.53832664 1.38366583 -5.3125 2.0625 C-6.79169922 2.63677734 -6.79169922 2.63677734 -8.30078125 3.22265625 C-11 4 -11 4 -14 3 C-13.34 3 -12.68 3 -12 3 C-12 2.34 -12 1.68 -12 1 C-3.96428571 -1.27678571 -3.96428571 -1.27678571 0 0 Z " fill="#926D81" transform="translate(243,127)"/>
<path d="M0 0 C-1.45264038 0.8638129 -2.9123163 1.71580454 -4.375 2.5625 C-5.59316406 3.27599609 -5.59316406 3.27599609 -6.8359375 4.00390625 C-7.55007813 4.33261719 -8.26421875 4.66132813 -9 5 C-9.66 4.67 -10.32 4.34 -11 4 C-8.32997607 0.73663741 -4.08378642 -2.04189321 0 0 Z " fill="#D2C5CC" transform="translate(383,448)"/>
<path d="M0 0 C2.31 0.33 4.62 0.66 7 1 C7 1.66 7 2.32 7 3 C7.99 3.33 8.98 3.66 10 4 C9.01 4.495 9.01 4.495 8 5 C6.0546875 4.22265625 6.0546875 4.22265625 3.875 3.0625 C3.15054687 2.68222656 2.42609375 2.30195313 1.6796875 1.91015625 C1.12539063 1.60980469 0.57109375 1.30945313 0 1 C0 0.67 0 0.34 0 0 Z " fill="#A67991" transform="translate(368,135)"/>
<path d="M0 0 C3.0916909 2.52956528 3.90931332 5.22454612 5 9 C4.01 8.67 3.02 8.34 2 8 C1.26953125 6.15234375 1.26953125 6.15234375 0.8125 3.9375 C0.65394531 3.20402344 0.49539063 2.47054687 0.33203125 1.71484375 C0.22246094 1.14894531 0.11289062 0.58304688 0 0 Z " fill="#CEBCC5" transform="translate(448,207)"/>
</svg>
