<?xml version="1.0" encoding="UTF-8"?>
<svg version="1.1" xmlns="http://www.w3.org/2000/svg" width="512" height="512">
<path d="M0 0 C10.23 0 20.46 0 31 0 C32.55676184 7.94767888 34.00073335 15.89673834 35.27734375 23.89453125 C35.44350441 24.9349633 35.44350441 24.9349633 35.61302185 25.99641418 C36.17632488 29.53327858 36.73384281 33.070981 37.28588867 36.60961914 C37.49523377 37.93506589 37.70462315 39.26050564 37.9140625 40.5859375 C38.1917749 42.36556885 38.1917749 42.36556885 38.47509766 44.18115234 C38.85450812 46.93894781 38.85450812 46.93894781 40 49 C42.64 32.83 45.28 16.66 48 0 C58.23 0 68.46 0 79 0 C79.65012056 7.15132611 80.1791504 14.13118611 80.31640625 21.28515625 C80.33718735 22.22572372 80.35796844 23.1662912 80.37937927 24.13536072 C80.4222816 26.11258179 80.46336295 28.08984316 80.50268555 30.06713867 C80.56187493 33.0311979 80.62712264 35.99507514 80.69335938 38.95898438 C80.94522171 50.64225317 81.04223121 62.31401963 81 74 C74.73 74 68.46 74 62 74 C61.39418448 69.75929137 60.87414789 66.08008152 60.79467773 61.89086914 C60.7647599 60.4801992 60.7647599 60.4801992 60.73423767 59.04103088 C60.71752518 58.04909225 60.70081268 57.05715363 60.68359375 56.03515625 C60.66281265 55.00184677 60.64203156 53.96853729 60.62062073 52.90391541 C60.55556522 49.62350716 60.49644596 46.34302315 60.4375 43.0625 C60.39427289 40.83007049 60.35065729 38.59764846 60.30664062 36.36523438 C60.19992929 30.91023489 60.09808356 25.45516108 60 20 C59.81540977 20.99265114 59.81540977 20.99265114 59.62709045 22.00535583 C58.35024068 28.86748912 57.06796365 35.72859204 55.7824707 42.58911133 C55.30287433 45.15265072 54.82468183 47.71645316 54.34790039 50.28051758 C53.66397511 53.9572374 52.97507442 57.63299439 52.28515625 61.30859375 C52.07157974 62.46274277 51.85800323 63.61689178 51.63795471 64.80601501 C51.33775673 66.3975515 51.33775673 66.3975515 51.03149414 68.02124023 C50.76835167 69.43021828 50.76835167 69.43021828 50.49989319 70.86766052 C50 73 50 73 49 74 C47.58429877 74.08651611 46.164405 74.10704904 44.74609375 74.09765625 C43.89208984 74.09443359 43.03808594 74.09121094 42.15820312 74.08789062 C41.26037109 74.07951172 40.36253906 74.07113281 39.4375 74.0625 C38.53580078 74.05798828 37.63410156 74.05347656 36.70507812 74.04882812 C34.46998686 74.03700225 32.23502563 74.0205222 30 74 C27.11320582 62.3212907 24.98359009 50.51534788 22.8125 38.6875 C21.554375 31.860625 20.29625 25.03375 19 18 C18.67 36.48 18.34 54.96 18 74 C11.73 74 5.46 74 -1 74 C-1.09564697 49.3018266 -1.10911169 24.67773508 0 0 Z " fill="#000000" transform="translate(140,219)"/>
<path d="M0 0 C9.24 0 18.48 0 28 0 C31.70815501 10.9106615 35.09454965 21.87351753 38.3125 32.9375 C39.859375 38.238125 41.40625 43.53875 43 49 C43 32.83 43 16.66 43 0 C49.27 0 55.54 0 62 0 C62 24.09 62 48.18 62 73 C53.09 73 44.18 73 35 73 C33.84577538 69.29130094 32.69203514 65.58245504 31.53930664 61.87329102 C30.96482864 60.02540622 30.38965816 58.17773674 29.81445312 56.33007812 C26.15987879 44.56787668 22.58643209 32.78399116 19 21 C19 38.16 19 55.32 19 73 C12.73 73 6.46 73 0 73 C0 48.91 0 24.82 0 0 Z " fill="#000000" transform="translate(379,219)"/>
<path d="M0 0 C6.6 0 13.2 0 20 0 C20.01458252 1.74128174 20.02916504 3.48256348 20.04418945 5.27661133 C20.09582525 11.02835666 20.16110698 16.77985992 20.23571491 22.53134632 C20.28045208 26.0186768 20.31970032 29.50588957 20.34643555 32.9934082 C20.37740851 37.00241787 20.43219816 41.01079367 20.48828125 45.01953125 C20.49467117 46.27272659 20.5010611 47.52592194 20.50764465 48.8170929 C20.53733589 50.55855843 20.53733589 50.55855843 20.56762695 52.33520508 C20.57873001 53.35890701 20.58983307 54.38260895 20.60127258 55.43733215 C20.80718929 58.02640294 20.80718929 58.02640294 22.33561707 59.86576843 C24.08751966 61.30848901 24.08751966 61.30848901 27.0625 60.8125 C30.09515868 60.23351637 30.09515868 60.23351637 32 58 C32.33185344 55.45240753 32.33185344 55.45240753 32.31884766 52.44873047 C32.33871735 51.28767792 32.35858704 50.12662537 32.37905884 48.9303894 C32.39061005 47.67203278 32.40216125 46.41367615 32.4140625 45.1171875 C32.43342865 43.83264679 32.4527948 42.54810608 32.4727478 41.22463989 C32.52413941 37.80852465 32.56372714 34.39236993 32.60089111 30.97607422 C32.64088698 27.49046001 32.69199938 24.00501097 32.7421875 20.51953125 C32.83902985 13.6798013 32.92238058 6.83997482 33 0 C39.6 0 46.2 0 53 0 C53.04969986 7.48900401 53.0858612 14.97791047 53.10986328 22.46704102 C53.11987697 25.01100336 53.13349185 27.55495432 53.15087891 30.09887695 C53.17533158 33.77037376 53.18652979 37.44171743 53.1953125 41.11328125 C53.20563507 42.23769119 53.21595764 43.36210114 53.22659302 44.52058411 C53.22930795 63.93588632 53.22930795 63.93588632 46.64453125 70.6328125 C38.76586451 77.18277297 28.67522947 76.55570549 19 76 C13.18848482 74.98017282 8.13586698 73.38652558 4 69 C0.84143462 63.5853165 -0.12678761 59.33660042 -0.11352539 53.12988281 C-0.11344986 51.94896057 -0.11337433 50.76803833 -0.11329651 49.55133057 C-0.10813522 48.28142273 -0.10297394 47.01151489 -0.09765625 45.703125 C-0.0962413 44.39921814 -0.09482635 43.09531128 -0.09336853 41.75189209 C-0.08955867 38.29296945 -0.07974151 34.83408909 -0.06866455 31.37518311 C-0.05841746 27.84257581 -0.05386385 24.30996164 -0.04882812 20.77734375 C-0.03811782 13.85154342 -0.02053346 6.9257781 0 0 Z " fill="#000000" transform="translate(307,219)"/>
<path d="M0 0 C3.57503237 3.26860103 6.45653991 6.36961974 8 11 C8.13399703 15.00383132 8.04308887 18.9927355 8 23 C1.73 23 -4.54 23 -11 23 C-11.45572917 20.42838542 -11.91145833 17.85677083 -12.3671875 15.28515625 C-12.57601562 14.53105469 -12.78484375 13.77695313 -13 13 C-15.79870027 11.60064987 -17.90498792 11.74734595 -21 12 C-23.03149327 13.52970933 -23.88706964 14.42436998 -24.38095093 16.94178772 C-24.38333771 17.67521896 -24.38572449 18.40865021 -24.38818359 19.16430664 C-24.39764008 19.99849625 -24.40709656 20.83268585 -24.4168396 21.69215393 C-24.40773056 23.03756508 -24.40773056 23.03756508 -24.3984375 24.41015625 C-24.40130768 25.33340195 -24.40417786 26.25664764 -24.40713501 27.20787048 C-24.40917612 29.15885024 -24.40364299 31.10985043 -24.39111328 33.06079102 C-24.37504208 36.05466191 -24.39096977 39.04718648 -24.41015625 42.04101562 C-24.40817418 43.93489882 -24.40433127 45.82878118 -24.3984375 47.72265625 C-24.40451019 48.62162125 -24.41058289 49.52058624 -24.4168396 50.4467926 C-24.40738312 51.27783005 -24.39792664 52.10886749 -24.38818359 52.96508789 C-24.38579681 53.69772354 -24.38341003 54.43035919 -24.38095093 55.18519592 C-24.13370149 57.41667255 -24.13370149 57.41667255 -21 59 C-16.97106348 59.4566574 -16.97106348 59.4566574 -13.35546875 57.9296875 C-11.30472802 55.01018917 -11.47402201 52.33367979 -11.3125 48.8125 C-11.24675781 47.54019531 -11.18101562 46.26789063 -11.11328125 44.95703125 C-11.05720703 43.49330078 -11.05720703 43.49330078 -11 42 C-13.31 42 -15.62 42 -18 42 C-18 38.37 -18 34.74 -18 31 C-9.42 31 -0.84 31 8 31 C8.06914407 35.02059946 8.12879137 39.03967009 8.16479492 43.06054688 C8.17981428 44.42617816 8.20023608 45.79176176 8.22631836 47.15722656 C8.26300137 49.12803905 8.27818551 51.09921408 8.29296875 53.0703125 C8.3086792 54.25383301 8.32438965 55.43735352 8.34057617 56.65673828 C7.81417173 61.8241809 5.97040957 65.00648544 2.375 68.6875 C-6.01343072 74.99918331 -15.96444804 74.73956985 -26 74 C-32.58678436 72.89142479 -37.5429564 69.97766692 -42 65 C-46.44783114 57.31738258 -45.18625302 46.44105494 -45.18530273 37.84667969 C-45.18748796 35.63717332 -45.20568976 33.42816836 -45.22460938 31.21875 C-45.30942474 10.1396122 -45.30942474 10.1396122 -39 3 C-29.30082261 -4.34423309 -10.72578858 -6.95232352 0 0 Z " fill="#000000" transform="translate(504,220)"/>
<path d="M0 0 C4.31165494 3.69570423 7.08038006 7.53149058 7.625 13.25 C7.625 15.89 7.625 18.53 7.625 21.25 C1.025 21.25 -5.575 21.25 -12.375 21.25 C-12.87 16.3 -12.87 16.3 -13.375 11.25 C-16.675 11.25 -19.975 11.25 -23.375 11.25 C-23.79739719 14.31237962 -24.0313509 16.29104101 -23.375 19.25 C-19.21937784 24.36267454 -12.13501502 27.10914911 -6.46508789 30.28466797 C0.54980685 34.25758789 5.51765395 37.63430795 8.625 45.25 C8.93622348 47.9809159 9.10367689 50.40571707 9.0625 53.125 C9.05347656 53.83245361 9.04445312 54.53990723 9.03515625 55.26879883 C8.85422101 60.71884472 8.33180819 65.11387222 4.625 69.25 C-2.1174172 75.2622476 -11.14330226 76.77297887 -19.95703125 76.4921875 C-28.25170453 75.66138016 -34.65860319 73.88667047 -40.8515625 68.1640625 C-45.62619879 62.16516049 -44.52249568 55.55103597 -44.375 48.25 C-37.775 48.25 -31.175 48.25 -24.375 48.25 C-24.045 51.22 -23.715 54.19 -23.375 57.25 C-21.71151167 60.4035811 -21.71151167 60.4035811 -19 61.0625 C-15.93111943 61.28170576 -14.72442542 61.26379322 -12.375 59.25 C-11.11493685 55.93190536 -11.11493685 55.93190536 -11.375 52.25 C-15.97212484 46.47974995 -22.63775231 43.4233963 -28.98242188 39.88671875 C-35.90058416 35.89646784 -42.20222541 31.33535514 -44.375 23.25 C-45.11310999 16.75079779 -44.83284833 10.93871822 -41.375 5.25 C-31.11545479 -5.69351489 -13.06031207 -6.77201366 0 0 Z " fill="#000000" transform="translate(44.375,219.75)"/>
<path d="M0 0 C11.22 0 22.44 0 34 0 C37.24435702 17.59885423 37.24435702 17.59885423 38.62109375 25.09179688 C39.56112795 30.20788501 40.50174617 35.32386099 41.44580078 40.43920898 C42.20673598 44.56252962 42.96508624 48.68631796 43.72163391 52.81044579 C44.01096768 54.38510317 44.30123815 55.95958873 44.592453 57.53389931 C44.9996509 59.73610286 45.40353745 61.9388895 45.80664062 64.1418457 C46.03758423 65.39649124 46.26852783 66.65113678 46.50646973 67.94380188 C47 71 47 71 47 74 C40.07 74 33.14 74 26 74 C23.03 54.2 20.06 34.4 17 14 C14.26141484 30.20329555 11.5703279 46.38662982 9.25683594 62.65551758 C9.02915527 64.23949341 9.02915527 64.23949341 8.796875 65.85546875 C8.66635742 66.77996826 8.53583984 67.70446777 8.40136719 68.65698242 C8 71 8 71 7 74 C0.07 74 -6.86 74 -14 74 C-11.2347111 57.55450786 -8.32779438 41.13853323 -5.29199219 24.74087524 C-4.93029237 22.78661683 -4.56961729 20.83216848 -4.20996094 18.87753296 C-3.70049784 16.11175469 -3.1868569 13.34678658 -2.671875 10.58203125 C-2.51789246 9.74370758 -2.36390991 8.90538391 -2.20526123 8.04165649 C-1.11475507 2.22951014 -1.11475507 2.22951014 0 0 Z " fill="#000000" transform="translate(78,219)"/>
<path d="M0 0 C0.80308594 -0.01160156 1.60617187 -0.02320313 2.43359375 -0.03515625 C8.7765745 -0.00431518 14.56228569 0.8720897 19.55859375 5.12890625 C20.24115234 6.02416016 20.24115234 6.02416016 20.9375 6.9375 C21.41058594 7.53691406 21.88367188 8.13632813 22.37109375 8.75390625 C25.66198917 13.47958652 24.55950965 18.78109314 24.5 24.375 C18.23 24.375 11.96 24.375 5.5 24.375 C5.17 21.735 4.84 19.095 4.5 16.375 C2.61499729 14.05936913 2.61499729 14.05936913 -0.5 14.125 C-3.61499729 14.05936913 -3.61499729 14.05936913 -5.5 16.375 C-6.16790364 19.2465965 -6.16790364 19.2465965 -5.5 22.375 C-1.26389717 26.42152416 3.35335268 29.13721581 8.5 31.875 C15.52643597 35.61274695 22.39468505 39.32037404 25.8046875 46.87109375 C27.68331906 53.6362782 27.77218678 61.54909085 24.8125 68 C21.19483291 73.91179745 16.05078181 76.52942152 9.5 78.375 C6.3622439 78.79726042 3.28799341 78.85266702 0.125 78.8125 C-0.70918457 78.80492676 -1.54336914 78.79735352 -2.40283203 78.78955078 C-9.44176765 78.60146142 -15.66122564 77.72703981 -21.1328125 72.94921875 C-27.14721451 66.29900853 -26.68683395 59.87594461 -26.5 51.375 C-19.9 51.375 -13.3 51.375 -6.5 51.375 C-6.17 54.345 -5.84 57.315 -5.5 60.375 C-2.8453416 63.64359902 -2.8453416 63.64359902 0.5 63.75 C3.42362286 63.57160717 3.42362286 63.57160717 5.4375 62.3125 C6.72640281 60.26446345 6.72640281 60.26446345 6.8125 57.125 C3.91860338 48.85672396 -6.56781864 45.15515693 -13.79296875 41 C-19.51228514 37.56675957 -23.75948744 33.96362401 -26.1875 27.5625 C-27.166756 20.70770803 -26.65400677 14.59970016 -23.5 8.375 C-16.92314425 1.33929385 -9.18432874 -0.13267891 0 0 Z " fill="#000000" transform="translate(264.5,216.625)"/>
</svg>
