<?xml version="1.0" encoding="UTF-8"?>
<svg version="1.1" xmlns="http://www.w3.org/2000/svg" width="512" height="512">
<path d="M0 0 C0.83926025 0.00563965 1.67852051 0.0112793 2.54321289 0.01708984 C8.68572319 0.13751953 13.96914818 0.78501141 19.625 3.3125 C21.06552734 3.93318359 21.06552734 3.93318359 22.53515625 4.56640625 C29.75267263 7.91511486 35.64128474 12.10884003 41.625 17.3125 C42.38554687 17.94027344 43.14609375 18.56804688 43.9296875 19.21484375 C49.95997887 24.31659545 54.83310068 30.05054343 59.625 36.3125 C60.40617188 37.31667969 61.18734375 38.32085937 61.9921875 39.35546875 C69.76973528 49.6217066 75.74233427 60.88582523 81.625 72.3125 C82.06344238 73.16199219 82.50188477 74.01148437 82.95361328 74.88671875 C92.99196847 94.56946521 100.52246764 115.37865279 107.3125 136.375 C107.65168457 137.42139648 107.99086914 138.46779297 108.34033203 139.54589844 C108.64438965 140.51172852 108.94844727 141.47755859 109.26171875 142.47265625 C109.65943481 143.73541382 109.65943481 143.73541382 110.06518555 145.02368164 C110.625 147.3125 110.625 147.3125 110.625 151.3125 C111.285 151.3125 111.945 151.3125 112.625 151.3125 C112.74182129 150.31516846 112.85864258 149.31783691 112.97900391 148.2902832 C113.55575263 144.28037768 114.68515594 140.50475961 115.9609375 136.66796875 C116.31336517 135.5897863 116.31336517 135.5897863 116.6729126 134.48982239 C117.44008927 132.15695571 118.21846646 129.82809397 119 127.5 C119.26721863 126.70037842 119.53443726 125.90075684 119.80975342 125.0769043 C131.14707696 91.2833321 145.53415122 57.81685977 168.625 30.3125 C169.35074219 29.42175781 170.07648438 28.53101562 170.82421875 27.61328125 C181.94484277 14.51931175 198.19888402 1.83701545 215.83105469 0.09448242 C237.32482882 -1.01988994 251.91841741 6.20704033 267.83203125 20.26171875 C279.26453399 31.07624837 288.02986479 44.62218934 295.625 58.3125 C296.05135742 59.07626953 296.47771484 59.84003906 296.91699219 60.62695312 C338.62487306 135.99540597 352.74136 227.06655592 365.625 357.3125 C365.67827454 358.08857605 365.73154907 358.8646521 365.78643799 359.66424561 C367.79106546 389.23614768 367.78610658 418.66889016 367.625 448.3125 C346.175 448.3125 324.725 448.3125 302.625 448.3125 C302.50125 438.928125 302.3775 429.54375 302.25 419.875 C300.7201732 319.87901891 295.4366713 217.82240964 250.625 59.3125 C249.87089844 57.72308594 249.87089844 57.72308594 249.1015625 56.1015625 C244.6159559 47.25426108 238.15404762 37.99037803 228.625 34.3125 C222.18494183 33.20511103 217.21089433 34.23724825 211.70703125 37.7265625 C170.53791205 69.08615424 164.51932386 156.96466933 158.03637695 204.5022583 C153.38202259 239.1642804 150.2067285 273.91392785 148 308.8125 C147.9374704 309.79245941 147.8749408 310.77241882 147.81051636 311.78207397 C146.1846526 337.48842963 145.46016395 363.18522841 145.0625 388.9375 C144.918125 397.97125 144.77375 407.005 144.625 416.3125 C122.845 416.3125 101.065 416.3125 78.625 416.3125 C78.50125 407.670625 78.3775 399.02875 78.25 390.125 C76.80609635 303.21320113 71.55038885 214.82975589 16.625 42.3125 C10.51821462 36.55412076 5.70710066 33.84538736 -2.75390625 33.98046875 C-9.74438183 34.86599844 -14.86965924 40.10909509 -19.2421875 45.3046875 C-71.46288147 118.94925592 -71.26871003 245.83377749 -76.5625 339.75 C-76.59942963 340.45319366 -76.63635925 341.15638733 -76.67440796 341.88088989 C-76.93873853 347.02353624 -77.16415344 352.16740475 -77.375 357.3125 C-77.41537384 358.28741394 -77.45574768 359.26232788 -77.49734497 360.26678467 C-78.28642222 379.69755706 -78.66128543 399.11905972 -78.9375 418.5625 C-79.081875 428.38 -79.22625 438.1975 -79.375 448.3125 C-100.825 448.3125 -122.275 448.3125 -144.375 448.3125 C-144.5404341 417.87262551 -144.52208016 387.67141406 -142.375 357.3125 C-142.31183594 356.41587646 -142.24867188 355.51925293 -142.18359375 354.59545898 C-136.23876896 271.25863211 -123.59271294 187.61371575 -39.375 15.3125 C-27.70260986 5.89564418 -15.08684389 -0.10636309 0 0 Z " fill="#FFC106" transform="translate(144.375,31.6875)"/>
</svg>
