<?xml version="1.0" encoding="UTF-8"?>
<svg version="1.1" xmlns="http://www.w3.org/2000/svg" width="512" height="512">
<path d="M0 0 C0.94735519 0.0028299 1.89471039 0.00565979 2.87077332 0.00857544 C5.88663541 0.01974063 8.90219691 0.04483861 11.91796875 0.0703125 C13.96679258 0.08034703 16.01562107 0.08947205 18.06445312 0.09765625 C23.07824023 0.11966801 28.09180358 0.15417279 33.10546875 0.1953125 C33.23301324 0.74487673 33.36055773 1.29444096 33.4919672 1.86065865 C36.63201536 15.39045532 39.77226381 28.92020549 42.91272068 42.4499073 C44.7290409 50.27499447 46.54522183 58.10011395 48.36126137 65.92526627 C49.24245406 69.7219964 50.12383102 73.51868373 51.00521851 77.31536865 C52.15161531 82.25384765 53.29705442 87.19254738 54.44180298 92.13140869 C56.77716151 102.20272023 59.11517441 112.27306058 61.50732422 122.33105469 C61.84705122 123.76454477 62.18672988 125.19804632 62.52635193 126.63156128 C63.1129964 129.10108854 63.70406894 131.56957092 64.30091858 134.03665161 C64.67004616 135.59221268 64.67004616 135.59221268 65.04663086 137.17919922 C65.2543663 138.04149139 65.46210175 138.90378357 65.6761322 139.79220581 C66.10546875 142.1953125 66.10546875 142.1953125 66.10546875 147.1953125 C52.90546875 147.1953125 39.70546875 147.1953125 26.10546875 147.1953125 C25.11546875 142.3690625 25.11546875 142.3690625 24.10546875 137.4453125 C23.79222656 135.93372559 23.79222656 135.93372559 23.47265625 134.39160156 C23.31023437 133.58948242 23.1478125 132.78736328 22.98046875 131.9609375 C22.81289063 131.14399414 22.6453125 130.32705078 22.47265625 129.48535156 C22.10546875 127.1953125 22.10546875 127.1953125 22.10546875 123.1953125 C4.94546875 123.1953125 -12.21453125 123.1953125 -29.89453125 123.1953125 C-30.55453125 126.1653125 -31.21453125 129.1353125 -31.89453125 132.1953125 C-33.54453125 137.1453125 -35.19453125 142.0953125 -36.89453125 147.1953125 C-51.74453125 147.1953125 -66.59453125 147.1953125 -81.89453125 147.1953125 C-81.19181165 143.68171451 -80.70802827 141.43640086 -79.29077148 138.34350586 C-78.96145126 137.61775864 -78.63213104 136.89201141 -78.29283142 136.14427185 C-77.9332283 135.3657637 -77.57362518 134.58725555 -77.203125 133.78515625 C-76.82656265 132.95842911 -76.45000031 132.13170197 -76.06202698 131.27992249 C-75.24876753 129.4957246 -74.43316628 127.71259268 -73.61547852 125.93041992 C-71.42587639 121.1576121 -69.25335856 116.37702505 -67.078125 111.59765625 C-66.41579361 110.14436417 -66.41579361 110.14436417 -65.74008179 108.66171265 C-61.7341275 99.86477051 -57.80463202 91.03516961 -53.89453125 82.1953125 C-47.93188319 68.73139128 -41.90035384 55.29942971 -35.83203125 41.8828125 C-35.43411377 41.00230225 -35.03619629 40.12179199 -34.6262207 39.21459961 C-32.74972998 35.06355106 -30.86854358 30.91478629 -28.97607422 26.77099609 C-27.61613544 23.79298382 -26.27815306 20.80666812 -24.95751953 17.81103516 C-24.35469766 16.46637922 -23.75168178 15.12181024 -23.1484375 13.77734375 C-22.63740479 12.62081299 -22.12637207 11.46428223 -21.59985352 10.27270508 C-16.35561129 0.8090439 -9.93265032 -0.11208383 0 0 Z M2.10546875 44.1953125 C-0.60739104 51.2584925 -3.31250904 58.32460116 -6.01220703 65.39282227 C-6.93196493 67.7981305 -7.85350793 70.20275692 -8.77685547 72.60668945 C-10.10200859 76.0576387 -11.42077026 79.51097087 -12.73828125 82.96484375 C-13.36168396 84.58215141 -13.36168396 84.58215141 -13.99768066 86.23213196 C-14.56827209 87.73334846 -14.56827209 87.73334846 -15.15039062 89.26489258 C-15.48792358 90.14647537 -15.82545654 91.02805817 -16.17321777 91.93635559 C-17.0466221 94.27639878 -17.0466221 94.27639878 -16.89453125 97.1953125 C-6.33453125 97.1953125 4.22546875 97.1953125 15.10546875 97.1953125 C14.39519531 93.78832031 13.68492187 90.38132812 12.953125 86.87109375 C12.26468154 83.56812529 11.57630716 80.26514245 10.88793945 76.9621582 C10.40982162 74.66819783 9.93163209 72.37425239 9.45336914 70.08032227 C8.76559864 66.78145215 8.07808679 63.48252821 7.390625 60.18359375 C7.17704849 59.15945877 6.96347198 58.13532379 6.74342346 57.08015442 C6.54329147 56.11953598 6.34315948 55.15891754 6.13696289 54.16918945 C5.96153458 53.32757767 5.78610626 52.48596588 5.60536194 51.61885071 C5.09535545 49.1462821 4.59809015 46.6713982 4.10546875 44.1953125 C3.44546875 44.1953125 2.78546875 44.1953125 2.10546875 44.1953125 Z " fill="#061346" transform="translate(445.89453125,182.8046875)"/>
<path d="M0 0 C10.6836153 -0.09284791 21.36713395 -0.16384004 32.05107117 -0.20724869 C37.01254571 -0.22808703 41.97374337 -0.25633595 46.93505859 -0.30175781 C51.72669176 -0.34534963 56.51805927 -0.36916532 61.30987549 -0.37950897 C63.13425882 -0.38687645 64.95862829 -0.40126339 66.78289795 -0.42292023 C69.34646559 -0.45213201 71.90894787 -0.45594867 74.47265625 -0.45410156 C75.22000534 -0.46848267 75.96735443 -0.48286377 76.73735046 -0.49768066 C82.18446518 -0.45545767 86.47455705 0.91258354 91 4 C95.71718659 9.94790896 96.62288938 17.15651242 98.09375 24.46484375 C98.36876609 25.7843838 98.64495291 27.10368032 98.92224121 28.42274475 C99.64791193 31.88816192 100.35964225 35.35628663 101.06781006 38.82531738 C102.19498525 44.33400609 103.34364623 49.83828572 104.49060059 55.34288406 C104.76720036 56.6717891 105.04316303 58.00082692 105.31848145 59.32999802 C107.09728332 67.91486722 108.98698844 76.43965574 111.25585938 84.90844727 C112 88 112 88 112.54101562 91.84350586 C112.6580081 94.85734069 112.6580081 94.85734069 114 96 C120.58318435 80.5552544 127.06881442 65.07107964 133.5 49.5625 C134.04610428 48.24585861 134.04610428 48.24585861 134.60324097 46.90261841 C138.26114838 38.0796032 141.90861801 29.2526777 145.5 20.40234375 C145.89257996 19.4352523 145.89257996 19.4352523 146.29309082 18.44862366 C147.48823755 15.50209974 148.67928529 12.55399898 149.86523438 9.60375977 C150.27064453 8.60014404 150.67605469 7.59652832 151.09375 6.5625 C151.44115234 5.69753906 151.78855469 4.83257812 152.14648438 3.94140625 C153 2 153 2 154 1 C155.41225046 0.9071274 156.82908934 0.88253228 158.24438477 0.88647461 C159.14524307 0.88655014 160.04610138 0.88662567 160.97425842 0.88670349 C161.95341721 0.89186478 162.93257599 0.89702606 163.94140625 0.90234375 C164.93881332 0.9037587 165.9362204 0.90517365 166.96385193 0.90663147 C170.16343124 0.91224886 173.36294169 0.92480429 176.5625 0.9375 C178.72591045 0.94251276 180.88932199 0.94707605 183.05273438 0.95117188 C188.36851325 0.96222393 193.68425171 0.97897896 199 1 C194.85598551 11.19871971 190.34626547 21.22038147 185.8125 31.25 C185.01479357 33.0181478 184.21727132 34.78637869 183.41992188 36.5546875 C181.76714814 40.2197216 180.11359145 43.8844009 178.45947266 47.54882812 C174.63223615 56.02921512 170.81664943 64.51484457 167 73 C165.51575855 76.29953926 164.0313878 79.59902031 162.546875 82.8984375 C162.17803696 83.71821075 161.80919891 84.53798401 161.42918396 85.38259888 C159.06116249 90.64470487 156.69033024 95.90553678 154.31774902 101.16558838 C152.68660407 104.7821363 151.0564032 108.39910943 149.42626953 112.01611328 C148.6562309 113.72400719 147.88574058 115.43169753 147.11474609 117.13916016 C143.01684848 126.21476076 138.9735213 135.303344 135.12011719 144.48583984 C134 147 134 147 133 148 C131.58774954 148.0928726 130.17091066 148.11746772 128.75561523 148.11352539 C127.40432777 148.11341209 127.40432777 148.11341209 126.02574158 148.11329651 C125.04658279 148.10813522 124.06742401 148.10297394 123.05859375 148.09765625 C122.06118668 148.0962413 121.0637796 148.09482635 120.03614807 148.09336853 C116.83656876 148.08775114 113.63705831 148.07519571 110.4375 148.0625 C108.27408955 148.05748724 106.11067801 148.05292395 103.94726562 148.04882812 C98.63148675 148.03777607 93.31574829 148.02102104 88 148 C83.64250374 133.24940339 79.41689446 118.46330965 75.2421875 103.66015625 C74.85804058 102.29808107 74.85804058 102.29808107 74.46613312 100.90848923 C72.60094788 94.29357456 70.73782426 87.67807985 68.875 81.0625 C67.00240132 74.41266906 65.12905077 67.76305124 63.25418472 61.11385918 C62.51736075 58.49947547 61.78169592 55.88476764 61.04611206 53.27003479 C60.14229039 50.05848621 59.23171482 46.84897396 58.31585693 43.64083862 C57.41354992 40.47845201 56.53880452 37.30990201 55.67877197 34.13577271 C55.24983003 32.59133319 54.82062165 31.04696764 54.39111328 29.50268555 C54.20518553 28.79540597 54.01925777 28.08812639 53.82769585 27.3594141 C52.70930658 23.39925579 51.63909278 20.95728497 48.25 18.546875 C46.1875775 17.52663727 46.1875775 17.52663727 44 16.75 C43.24162842 16.41178223 42.48325684 16.07356445 41.7019043 15.72509766 C39.4877398 14.75518947 37.25399239 13.87234468 35 13 C33.93394531 12.53851563 32.86789063 12.07703125 31.76953125 11.6015625 C21.4798976 7.3334714 10.63094507 4.30222031 0 1 C0 0.67 0 0.34 0 0 Z " fill="#071447" transform="translate(0,183)"/>
<path d="M0 0 C-1.65812121 10.73415308 -3.83091185 21.35978591 -6 32 C-9.99198359 33.3306612 -12.53189185 32.00644671 -16.3125 30.625 C-29.12693403 26.01129675 -46.49065889 23.84184256 -59.2578125 29.734375 C-61.35779236 31.2599209 -62.62005498 32.8063488 -64 35 C-64.53872366 38.61714456 -64.43167352 40.33588689 -62.42578125 43.421875 C-59.54673861 46.48172708 -56.41286965 48.35655149 -52.75 50.3125 C-52.05124756 50.69712402 -51.35249512 51.08174805 -50.63256836 51.47802734 C-46.34890777 53.8126535 -42.00506141 55.99861319 -37.61621094 58.12744141 C-25.70129342 63.91492987 -13.97080103 71.33077657 -8.5 84 C-5.02665208 95.04028445 -5.64523135 107.72283532 -11 118 C-20.38366246 134.7129136 -32.97333463 142.21112622 -50.88867188 147.41308594 C-75.01587305 154.12004612 -102.82993514 150.65963891 -126 142 C-125.30846625 137.65800629 -124.6146368 133.31638748 -123.91870117 128.97509766 C-123.68239622 127.49896105 -123.44671289 126.02272479 -123.21166992 124.54638672 C-122.87322741 122.42128257 -122.53253254 120.29654979 -122.19140625 118.171875 C-121.98717041 116.8940918 -121.78293457 115.61630859 -121.57250977 114.29980469 C-121.1421811 111.81949668 -120.66485814 109.42446261 -120 107 C-114.83042711 107.80993308 -110.14424754 109.79535256 -105.32226562 111.74023438 C-96.14353104 115.31417644 -87.24769366 116.36199776 -77.4375 116.375 C-75.97280273 116.41173828 -75.97280273 116.41173828 -74.47851562 116.44921875 C-66.34354368 116.48186747 -60.43452834 114.59341936 -53.9375 109.6875 C-51.77451146 107.07541245 -51.77451146 107.07541245 -51.3125 103.625 C-52.2411726 98.72836264 -54.32977675 96.30119777 -58 93 C-61.61252148 90.68832662 -65.39525127 88.81030263 -69.25 86.9375 C-101.78009959 70.75749622 -101.78009959 70.75749622 -107.6328125 54.2109375 C-109.81974616 41.04280505 -107.88289004 29.51085915 -100.5 18.375 C-88.81573744 3.26306632 -71.10727665 -3.08784318 -52.79931641 -5.69091797 C-35.06620127 -7.64889143 -16.74641708 -6.39408652 0 0 Z " fill="#293688" transform="translate(377,184)"/>
<path d="M0 0 C13.86 0 27.72 0 42 0 C40.69731162 9.11881866 39.33826467 18.18886938 37.76928711 27.26000977 C37.5560228 28.50247971 37.34275848 29.74494965 37.12303162 31.02507019 C36.54637459 34.3842829 35.96730042 37.74307457 35.38770366 41.10178113 C34.77823899 44.63589424 34.17094524 48.17038044 33.56336975 51.70481873 C32.54511768 57.62643921 31.52538962 63.54780392 30.50463867 69.46899414 C29.19578849 77.06144382 27.88943162 84.65432032 26.58383846 92.24733067 C25.45721737 98.79935255 24.32944031 105.35117538 23.20148778 111.90296817 C22.8405126 114.00002061 22.47969945 116.09710088 22.11890984 118.19418526 C21.44723333 122.0977845 20.77435111 126.00117537 20.10131836 129.90454102 C19.90233948 131.06146454 19.7033606 132.21838806 19.49835205 133.41036987 C19.31475632 134.47402267 19.13116058 135.53767548 18.94200134 136.63356018 C18.78328521 137.55468377 18.62456907 138.47580736 18.46104336 139.42484379 C18.00784465 141.95618374 17.50433014 144.47834932 17 147 C2.81 147 -11.38 147 -26 147 C-21.18368733 117.67645967 -16.04722537 88.41616092 -10.83862305 59.16009521 C-9.95846049 54.21252228 -9.08080573 49.26450574 -8.20313549 44.31649017 C-7.35405686 39.53120289 -6.50360331 34.74616079 -5.65270424 29.9611969 C-5.24843244 27.68704554 -4.84454705 25.41282545 -4.44106102 23.13853455 C-3.88290143 19.99380217 -3.32293296 16.84939733 -2.76245117 13.70507812 C-2.59780869 12.77548782 -2.4331662 11.84589752 -2.26353455 10.88813782 C-2.11096191 10.03435043 -1.95838928 9.18056305 -1.80119324 8.30090332 C-1.66979541 7.56229317 -1.53839758 6.82368301 -1.403018 6.06269073 C-1.00525199 4.02688027 -0.50309291 2.01237163 0 0 Z " fill="#293688" transform="translate(213,183)"/>
<path d="M0 0 C0.94735519 0.0028299 1.89471039 0.00565979 2.87077332 0.00857544 C5.88663541 0.01974063 8.90219691 0.04483861 11.91796875 0.0703125 C13.96679258 0.08034703 16.01562107 0.08947205 18.06445312 0.09765625 C23.07824023 0.11966801 28.09180358 0.15417279 33.10546875 0.1953125 C35.58793959 10.81649826 38.06567301 21.43877682 40.53734589 32.06248093 C41.68516142 36.99532702 42.83461216 41.92778017 43.98779297 46.859375 C45.10038274 51.6176522 46.20868608 56.37690905 47.31401062 61.13687897 C47.73670084 62.95372398 48.16094059 64.7702092 48.58674622 66.5863266 C49.18236604 69.12790822 49.77248941 71.67070729 50.36132812 74.21386719 C50.53899216 74.96624664 50.71665619 75.7186261 50.89970398 76.49380493 C51.67207632 79.85376694 52.10546875 82.72365742 52.10546875 86.1953125 C48.2111507 84.61645775 45.62348088 81.95429515 42.74609375 78.99609375 C42.23802185 78.48282028 41.72994995 77.96954681 41.20648193 77.4407196 C39.58463226 75.80111551 37.96961215 74.15500097 36.35546875 72.5078125 C34.23914147 70.35463215 32.11958468 68.2047098 29.99609375 66.05859375 C29.22658386 65.2807679 29.22658386 65.2807679 28.44152832 64.48722839 C25.03044334 61.06283713 21.51285446 57.82845321 17.83496094 54.69555664 C15.12677692 52.34634845 12.61617078 49.81448513 10.10546875 47.2578125 C9.37263672 46.51821289 9.37263672 46.51821289 8.625 45.76367188 C7.4494335 44.57658021 6.27708049 43.38630752 5.10546875 42.1953125 C4.61046875 43.1853125 4.61046875 43.1853125 4.10546875 44.1953125 C3.44546875 43.8653125 2.78546875 43.5353125 2.10546875 43.1953125 C1.56889648 43.91690552 1.56889648 43.91690552 1.02148438 44.65307617 C-2.1638573 48.92063046 -5.39985429 53.14222711 -8.68725586 57.33154297 C-14.78611826 65.10578284 -20.73422561 72.97492217 -26.57226562 80.9465332 C-30.80613564 86.72689607 -35.08687988 92.46974904 -39.39453125 98.1953125 C-46.01887161 107.00696731 -52.5720768 115.86905122 -59.09912109 124.75292969 C-62.31857865 129.13251269 -65.54456225 133.50728738 -68.76953125 137.8828125 C-70.79078125 140.6259375 -72.81203125 143.3690625 -74.89453125 146.1953125 C-62.68453125 146.1953125 -50.47453125 146.1953125 -37.89453125 146.1953125 C-37.56453125 145.5353125 -37.23453125 144.8753125 -36.89453125 144.1953125 C-36.89453125 145.1853125 -36.89453125 146.1753125 -36.89453125 147.1953125 C-51.74453125 147.1953125 -66.59453125 147.1953125 -81.89453125 147.1953125 C-81.19181165 143.68171451 -80.70802827 141.43640086 -79.29077148 138.34350586 C-78.96145126 137.61775864 -78.63213104 136.89201141 -78.29283142 136.14427185 C-77.9332283 135.3657637 -77.57362518 134.58725555 -77.203125 133.78515625 C-76.82656265 132.95842911 -76.45000031 132.13170197 -76.06202698 131.27992249 C-75.24876753 129.4957246 -74.43316628 127.71259268 -73.61547852 125.93041992 C-71.42587639 121.1576121 -69.25335856 116.37702505 -67.078125 111.59765625 C-66.41579361 110.14436417 -66.41579361 110.14436417 -65.74008179 108.66171265 C-61.7341275 99.86477051 -57.80463202 91.03516961 -53.89453125 82.1953125 C-47.93188319 68.73139128 -41.90035384 55.29942971 -35.83203125 41.8828125 C-35.43411377 41.00230225 -35.03619629 40.12179199 -34.6262207 39.21459961 C-32.74972998 35.06355106 -30.86854358 30.91478629 -28.97607422 26.77099609 C-27.61613544 23.79298382 -26.27815306 20.80666812 -24.95751953 17.81103516 C-24.35469766 16.46637922 -23.75168178 15.12181024 -23.1484375 13.77734375 C-22.63740479 12.62081299 -22.12637207 11.46428223 -21.59985352 10.27270508 C-19.31574079 6.15083809 -16.76725691 3.30515303 -12.70043945 0.89501953 C-8.46635216 -0.16083135 -4.34619225 -0.0490441 0 0 Z " fill="#283688" transform="translate(445.89453125,182.8046875)"/>
<path d="M0 0 C0.79719955 0.00222061 1.59439911 0.00444122 2.41575623 0.00672913 C3.31661453 0.00680466 4.21747284 0.00688019 5.14562988 0.00695801 C6.12478867 0.01211929 7.10394745 0.01728058 8.11277771 0.02259827 C9.11018478 0.02401321 10.10759186 0.02542816 11.13522339 0.02688599 C14.3348027 0.03250337 17.53431315 0.04505881 20.73387146 0.05775452 C22.89728191 0.06276728 25.06069345 0.06733057 27.22410583 0.07142639 C32.53988471 0.08247845 37.85562317 0.09923348 43.17137146 0.12025452 C39.02735968 10.31896755 34.51775871 20.34069515 29.98387146 30.37025452 C29.19202985 32.12522117 28.40036667 33.88026833 27.60887146 35.63539124 C25.96190176 39.28721672 24.31416475 42.93869465 22.66600037 46.58998108 C20.21925326 52.0121016 17.77840026 57.43685996 15.33934021 62.86244202 C14.94864853 63.73147156 14.55795685 64.6005011 14.15542603 65.49586487 C13.37738471 67.22649604 12.59934414 68.95712755 11.82130432 70.6877594 C5.30485688 85.18059031 -1.23062344 99.66432375 -7.82862854 114.12025452 C-9.38147914 109.46170271 -6.86262495 106.3288585 -4.85987854 102.03041077 C-3.72080243 98.81597249 -3.54125935 98.1764676 -4.82862854 95.12025452 C-6.64811916 93.12852612 -8.46239324 91.30437623 -10.43019104 89.47181702 C-11.5713711 88.37343508 -12.71197892 87.27445835 -13.85206604 86.17494202 C-15.65381398 84.45388405 -17.46045405 82.73885286 -19.27784729 81.03431702 C-21.03173665 79.38315003 -22.76304944 77.71081628 -24.49269104 76.03431702 C-25.04155975 75.53098846 -25.59042847 75.02765991 -26.15592957 74.50907898 C-27.6631012 73.03285217 -27.6631012 73.03285217 -29.82862854 70.12025452 C-29.86277434 65.29146919 -27.72038793 60.99606919 -25.83644104 56.60853577 C-25.5343573 55.89020569 -25.23227356 55.17187561 -24.92103577 54.43177795 C-23.93765437 52.09629417 -22.94565191 49.76457887 -21.95362854 47.43275452 C-20.93053592 45.00914061 -19.90974498 42.58456688 -18.88926697 40.15985107 C-18.20197973 38.52684347 -17.51400964 36.8941231 -16.82536316 35.26168823 C-13.1497614 26.53819944 -9.59673132 17.76635532 -6.06739807 8.98280334 C-5.65086975 7.95179504 -5.23434143 6.92078674 -4.80519104 5.85853577 C-4.4450592 4.9617511 -4.08492737 4.06496643 -3.71388245 3.14100647 C-2.40721573 0.15830365 -2.40721573 0.15830365 0 0 Z " fill="#293688" transform="translate(155.82862854003906,183.87974548339844)"/>
<path d="M0 0 C5.14237576 4.24804954 9.82845214 8.79964875 14.51171875 13.546875 C16.69199526 15.69634698 18.91734512 17.70719643 21.25 19.6875 C24.92751279 22.82684019 27.9440509 26.25646236 31 30 C14.9867457 45.93237928 -6.215574 50.13025073 -28.0625 50.3125 C-44.92884829 50.26102462 -60.20884147 47.90182771 -76 42 C-75.30846625 37.65800629 -74.6146368 33.31638748 -73.91870117 28.97509766 C-73.68239622 27.49896105 -73.44671289 26.02272479 -73.21166992 24.54638672 C-72.87322741 22.42128257 -72.53253254 20.29654979 -72.19140625 18.171875 C-71.98717041 16.8940918 -71.78293457 15.61630859 -71.57250977 14.29980469 C-71.1421811 11.81949668 -70.66485814 9.42446261 -70 7 C-64.83042711 7.80993308 -60.14424754 9.79535256 -55.32226562 11.74023438 C-46.14353104 15.31417644 -37.24769366 16.36199776 -27.4375 16.375 C-26.46103516 16.39949219 -25.48457031 16.42398437 -24.47851562 16.44921875 C-17.38603548 16.47768355 -10.94394675 15.39941044 -5.41210938 10.63134766 C-4.25135911 9.44330044 -3.12235346 8.22438559 -2 7 C-1.34 7 -0.68 7 0 7 C0 4.69 0 2.38 0 0 Z " fill="#061347" transform="translate(327,284)"/>
<path d="M0 0 C10.6836153 -0.09284791 21.36713395 -0.16384004 32.05107117 -0.20724869 C37.01254571 -0.22808703 41.97374337 -0.25633595 46.93505859 -0.30175781 C51.72669176 -0.34534963 56.51805927 -0.36916532 61.30987549 -0.37950897 C63.13425882 -0.38687645 64.95862829 -0.40126339 66.78289795 -0.42292023 C69.34646559 -0.45213201 71.90894787 -0.45594867 74.47265625 -0.45410156 C75.22000534 -0.46848267 75.96735443 -0.48286377 76.73735046 -0.49768066 C82.18110747 -0.45548369 86.48102025 0.90623425 91 4 C95.54759942 9.80890023 96.5498657 16.64771407 98.015625 23.7578125 C98.27631775 24.97902802 98.5370105 26.20024353 98.80560303 27.45846558 C99.49168034 30.68677482 100.16681584 33.9171277 100.83740234 37.14868164 C101.38747383 39.78349151 101.95026538 42.41551135 102.51343155 45.04754829 C103.18680878 48.19971019 103.85117228 51.35375919 104.515625 54.5078125 C104.76556213 55.68497833 105.01549927 56.86214417 105.27301025 58.07498169 C105.61401764 59.72226761 105.61401764 59.72226761 105.96191406 61.40283203 C106.16302795 62.36544952 106.36414185 63.32806702 106.5713501 64.31985474 C106.98910216 66.93186094 107.07965473 69.36019114 107 72 C104.59025284 68.9462063 102.6997983 65.77303353 100.8125 62.375 C97.36385264 56.42283668 93.48050673 51.20685482 89 46 C88.26136719 45.11570313 87.52273437 44.23140625 86.76171875 43.3203125 C77.16944012 32.23659938 65.8725755 23.90781066 53 17 C53.495 19.475 53.495 19.475 54 22 C50.82923626 20.82945436 47.83667287 19.43501535 44.83203125 17.8984375 C33.61352342 12.22299269 22.45295538 7.9673063 10.35668945 4.51318359 C9.29667725 4.20977051 8.23666504 3.90635742 7.14453125 3.59375 C6.19940674 3.33271484 5.25428223 3.07167969 4.28051758 2.80273438 C2 2 2 2 0 0 Z " fill="#F6971B" transform="translate(0,183)"/>
<path d="M0 0 C1.46373047 0.02707031 1.46373047 0.02707031 2.95703125 0.0546875 C3.69308594 0.07789063 4.42914063 0.10109375 5.1875 0.125 C2.1875 2.125 2.1875 2.125 -0.65625 3.62109375 C-5.15566693 6.64517847 -6.99864878 11.44502161 -9.3125 16.1875 C-10.3616254 18.26710559 -11.41112003 20.34652494 -12.4609375 22.42578125 C-13.00588867 23.51842285 -13.55083984 24.61106445 -14.11230469 25.73681641 C-16.99443209 31.48037817 -19.97129487 37.17454512 -22.9375 42.875 C-24.12903093 45.17441456 -25.32043967 47.47389245 -26.51171875 49.7734375 C-29.23768405 55.02638118 -31.98535395 60.2673338 -34.75 65.5 C-38.94148966 73.43476656 -43.06902138 81.40217016 -47.1875 89.375 C-51.9050643 98.50605697 -56.62661307 107.63491465 -61.375 116.75 C-61.83890137 117.64235352 -62.30280273 118.53470703 -62.78076172 119.45410156 C-66.04858445 125.71989423 -69.41040692 131.93116104 -72.8125 138.125 C-74.14767179 134.11948462 -72.69828358 132.04634825 -70.97265625 128.44140625 C-70.6599881 127.76753876 -70.34731995 127.09367126 -70.025177 126.39938354 C-69.3432812 124.93217341 -68.65698878 123.46700063 -67.96688843 122.00363159 C-66.09106102 118.02459582 -64.24770571 114.03049137 -62.3984375 110.0390625 C-62.01461411 109.21315109 -61.63079071 108.38723969 -61.2353363 107.53630066 C-57.72701587 99.97659083 -54.33086003 92.36983827 -50.96429443 84.74615479 C-44.63033775 70.40284394 -38.21235841 56.09838691 -31.75 41.8125 C-31.15353165 40.49268631 -31.15353165 40.49268631 -30.54501343 39.14620972 C-28.66824217 34.99452286 -26.78680631 30.84510603 -24.89404297 26.70068359 C-23.53410419 23.72267132 -22.19612181 20.73635562 -20.87548828 17.74072266 C-20.27266641 16.39606672 -19.66965053 15.05149774 -19.06640625 13.70703125 C-18.55537354 12.55050049 -18.04434082 11.39396973 -17.51782227 10.20239258 C-15.22180239 6.05903818 -12.56207847 3.05699236 -8.36328125 0.8203125 C-5.46617554 0.03059609 -2.99835759 -0.07224958 0 0 Z " fill="#3B56BD" transform="translate(441.8125,182.875)"/>
<path d="M0 0 C3.42563841 1.71281921 5.05368575 2.80561567 7.64453125 5.4140625 C8.32193359 6.09339844 8.99933594 6.77273438 9.69726562 7.47265625 C10.39529297 8.18292969 11.09332031 8.89320313 11.8125 9.625 C12.49892578 10.31207031 13.18535156 10.99914062 13.89257812 11.70703125 C17.91677095 15.76548872 21.75370704 19.938194 25.48852539 24.26367188 C27.19666611 26.22592302 28.96868377 28.10231991 30.8125 29.9375 C31.37582031 30.50339844 31.93914062 31.06929688 32.51953125 31.65234375 C33.97715572 33.10165172 33.97715572 33.10165172 36 34 C36 34.66 36 35.32 36 36 C22.14 36 8.28 36 -6 36 C-4.02 24.12 -2.04 12.24 0 0 Z " fill="#071449" transform="translate(193,294)"/>
<path d="M0 0 C2.64 0 5.28 0 8 0 C6.71493951 8.64587884 4.88426998 17.11265625 2.83105469 25.60351562 C1.92523789 29.35301719 1.03414269 33.10600016 0.14453125 36.859375 C-0.03709564 37.62552124 -0.21872253 38.39166748 -0.40585327 39.18103027 C-2.19586395 46.76779597 -3.85726357 54.3802156 -5.5 62 C-9.10951173 78.71972896 -13.03173815 95.3622112 -17 112 C-17.66 111.67 -18.32 111.34 -19 111 C-18.4473449 103.92272146 -17.60282477 96.9867138 -16.34179688 90.00219727 C-16.17744644 89.07067337 -16.01309601 88.13914948 -15.84376526 87.17939758 C-15.30652101 84.14092948 -14.76275744 81.1036701 -14.21875 78.06640625 C-13.84106877 75.93943089 -13.46375542 73.81239017 -13.08679199 71.68528748 C-12.29942587 67.24777819 -11.50908117 62.81081413 -10.71630859 58.37426758 C-9.70001188 52.6866221 -8.68898761 46.99805607 -7.67989349 41.30912876 C-6.71552124 35.87372665 -5.74845709 30.4388045 -4.78125 25.00390625 C-4.59719101 23.9682358 -4.41313202 22.93256535 -4.22349548 21.86551094 C-3.70322379 18.94075232 -3.18102771 16.01634423 -2.65820312 13.09204102 C-2.50440689 12.22603271 -2.35061066 11.36002441 -2.19215393 10.46777344 C-2.04918381 9.67041275 -1.90621368 8.87305206 -1.75891113 8.05152893 C-1.6357679 7.3615661 -1.51262466 6.67160326 -1.38574982 5.96073246 C-0.9908296 3.95338765 -0.51303146 1.98015037 0 0 Z " fill="#3B56BD" transform="translate(213,183)"/>
<path d="M0 0 C9.90130645 -0.09288003 19.80250842 -0.16385614 29.7041626 -0.20724869 C34.30244387 -0.22808014 38.90042601 -0.25631609 43.49853516 -0.30175781 C47.94004232 -0.34537476 52.38126264 -0.36917049 56.82296753 -0.37950897 C58.51338208 -0.386872 60.2037818 -0.40125021 61.89407349 -0.42292023 C78.95535243 -0.63285488 78.95535243 -0.63285488 85 4 C88.85823036 9.15631907 90.09099276 14.45568084 91.359375 20.6953125 C91.65053192 22.06101883 91.65053192 22.06101883 91.9475708 23.45431519 C92.35302669 25.36760505 92.75273893 27.28212024 93.14697266 29.19775391 C93.75013667 32.12566345 94.37157372 35.04923532 94.99609375 37.97265625 C95.38909387 39.83831595 95.78105693 41.70419448 96.171875 43.5703125 C96.3561908 44.44124542 96.54050659 45.31217834 96.73040771 46.20950317 C97.5457454 50.19611665 98.24485877 53.90541718 98 58 C95.79898282 54.69847422 95.2339751 52.28521666 94.37890625 48.42578125 C94.23347885 47.78311813 94.08805145 47.14045502 93.93821716 46.47831726 C93.47370035 44.42432594 93.01720742 42.36868358 92.5625 40.3125 C89.89085242 24.92621702 89.89085242 24.92621702 82 12 C75.36929809 8.02157885 67.54573537 7.78642455 60 7 C59.22849609 6.9189502 58.45699219 6.83790039 57.66210938 6.75439453 C48.22525073 5.78072026 38.77858343 4.97403112 29.31958008 4.24951172 C19.47731627 3.49553573 9.74204779 2.63819766 0 1 C0 0.67 0 0.34 0 0 Z " fill="#FEBA01" transform="translate(6,183)"/>
<path d="M0 0 C-1.34191406 0.41958984 -1.34191406 0.41958984 -2.7109375 0.84765625 C-16.26475472 5.34151249 -26.91812531 11.99050567 -33.8125 24.9375 C-39.02065844 36.1932898 -39.4534935 48.12194637 -36.09765625 60.046875 C-32.65422607 69.31105015 -27.16030403 75.5783014 -19 81 C-19.99 81.495 -19.99 81.495 -21 82 C-31.99309565 76.54046597 -41.52515415 68.04586845 -45.609375 56.23828125 C-47.90107071 43.10686483 -45.85596369 31.47024523 -38.5 20.375 C-31.40784209 11.20230131 -12.88702077 -4.14225668 0 0 Z " fill="#3A56BC" transform="translate(315,182)"/>
<path d="M0 0 C5.87697246 0.74454888 11.37286698 2.53256469 17 4.3125 C17.97195312 4.60833984 18.94390625 4.90417969 19.9453125 5.20898438 C28.89512595 8.03171164 35.38920437 11.51166195 40 20 C43.21382454 28.01594001 45.3386518 36.54222736 47 45 C47.99 45 48.98 45 50 45 C50.495 49.455 50.495 49.455 51 54 C48.59025284 50.9462063 46.6997983 47.77303353 44.8125 44.375 C41.36385264 38.42283668 37.48050673 33.20685482 33 28 C32.26136719 27.11570313 31.52273437 26.23140625 30.76171875 25.3203125 C22.17447989 15.39790556 11.89805934 6.69721889 0 1 C0 0.67 0 0.34 0 0 Z " fill="#E97C02" transform="translate(56,201)"/>
<path d="M0 0 C2.05078125 0.03255208 4.1015625 0.06510417 6.15234375 0.09765625 C4.76976805 4.54588839 3.03029226 8.62983317 0.984375 12.8125 C0.67235641 13.45321442 0.36033783 14.09392883 0.03886414 14.75405884 C-0.98242809 16.84942732 -2.00879924 18.94226465 -3.03515625 21.03515625 C-3.74649528 22.49256125 -4.45742727 23.95016498 -5.16796875 25.40795898 C-6.64365745 28.43507476 -8.12093569 31.4614074 -9.59912109 34.48730469 C-12.86613062 41.18007641 -16.10671956 47.88562579 -19.3475647 54.59109497 C-20.6479993 57.28152754 -21.94937892 59.97150247 -23.2507782 62.66146851 C-24.44992407 65.14010754 -25.6487947 67.61887968 -26.84765625 70.09765625 C-27.83765625 70.09765625 -28.82765625 70.09765625 -29.84765625 70.09765625 C-29.24681631 65.23985131 -27.77302131 61.05173534 -25.85546875 56.5859375 C-25.55338501 55.86760742 -25.25130127 55.14927734 -24.94006348 54.40917969 C-23.95668208 52.0736959 -22.96467962 49.74198061 -21.97265625 47.41015625 C-20.94956363 44.98654235 -19.92877269 42.56196862 -18.90829468 40.13725281 C-18.22100744 38.50424521 -17.53303735 36.87152483 -16.84439087 35.23908997 C-13.16878911 26.51560117 -9.61575903 17.74375705 -6.08642578 8.96020508 C-5.66989746 7.92919678 -5.25336914 6.89818848 -4.82421875 5.8359375 C-4.46408691 4.93915283 -4.10395508 4.04236816 -3.73291016 3.1184082 C-2.42289411 0.12805994 -2.42289411 0.12805994 0 0 Z " fill="#3B56BD" transform="translate(155.84765625,183.90234375)"/>
<path d="M0 0 C8.8293034 1.76586068 17.38564937 4.40877168 26 7 C26 8.98 26 10.96 26 13 C22.57094969 11.66275093 19.23769371 10.20576754 15.91796875 8.6171875 C14.98662109 8.17246094 14.05527344 7.72773438 13.09570312 7.26953125 C12.13599609 6.80933594 11.17628906 6.34914062 10.1875 5.875 C9.20845703 5.40707031 8.22941406 4.93914062 7.22070312 4.45703125 C4.81312587 3.30609188 2.40625301 2.15370472 0 1 C0 0.67 0 0.34 0 0 Z " fill="#EC8107" transform="translate(28,192)"/>
<path d="M0 0 C1 2 1 2 0.44140625 4.1640625 C0.15136719 4.97617188 -0.13867188 5.78828125 -0.4375 6.625 C-0.72496094 7.44226563 -1.01242187 8.25953125 -1.30859375 9.1015625 C-1.65083984 10.04128906 -1.65083984 10.04128906 -2 11 C-2.66 10.34 -3.32 9.68 -4 9 C-4.99 9.495 -4.99 9.495 -6 10 C-4.34832443 6.4213696 -2.21713508 3.25179812 0 0 Z " fill="#0E1D5A" transform="translate(448,224)"/>
</svg>
