<?xml version="1.0" encoding="UTF-8"?>
<svg version="1.1" xmlns="http://www.w3.org/2000/svg" width="512" height="512">
<path d="M0 0 C1.87574302 -0.00389679 3.75148309 -0.00954025 5.62721622 -0.0167709 C10.76140828 -0.03148891 15.89529248 -0.021366 21.0294745 -0.00703418 C26.57416919 0.00409232 32.1188213 -0.00787249 37.66351318 -0.01687622 C48.51702185 -0.03079867 59.37041404 -0.02326006 70.22391714 -0.00820064 C82.86467951 0.00867031 95.50541297 0.00544787 108.14618312 0.00170528 C131.38111341 -0.00434885 154.61597738 0.01142199 177.85088799 0.03689292 C199.05318919 0.06001248 220.25542219 0.06539354 241.45773315 0.05516052 C246.88854532 0.05255842 252.3193575 0.04997338 257.75016975 0.0475626 C258.41880806 0.04726515 259.08744636 0.0469677 259.77634642 0.04666124 C277.50482741 0.03904402 295.23330351 0.04551964 312.96178234 0.05625862 C315.50317629 0.05778445 318.04457024 0.05930481 320.5859642 0.06081963 C321.83635899 0.06157744 323.08675378 0.06233525 324.37503932 0.06311603 C333.18598647 0.06785841 341.99691822 0.06600778 350.80786514 0.06175423 C361.54406724 0.05682776 372.28019879 0.06281131 383.01638474 0.08264852 C388.49393078 0.09252007 393.97136942 0.09762701 399.4489212 0.08975601 C404.46368108 0.08269743 409.47822424 0.08950815 414.49295555 0.10735964 C416.3063643 0.11140291 418.11979281 0.11040631 419.93319418 0.10384078 C431.9506477 0.06405686 441.71780636 0.42657318 451.4201355 8.39573669 C456.7632913 13.79904059 460.61555488 20.49446452 460.64197445 28.16284084 C460.64766569 29.12631418 460.65335693 30.08978751 460.65922064 31.08245701 C460.66040051 32.14332572 460.66158039 33.20419444 460.66279602 34.29721069 C460.67042775 35.98507143 460.67042775 35.98507143 460.67821366 37.70703036 C460.69397652 41.49771441 460.7024734 45.28837935 460.71090698 49.0790863 C460.71762521 51.09889963 460.72512715 53.11870893 460.73274731 55.13851904 C460.76607594 63.97737013 460.78759627 72.81623285 460.80594715 81.65512618 C460.81074297 83.95763252 460.81572621 86.26013839 460.82075238 88.56264424 C460.85173009 102.86668647 460.87841069 117.17073278 460.89517117 131.47479916 C460.89912057 134.78837021 460.90312356 138.10194118 460.90719604 141.41551208 C460.90820441 142.23906815 460.90921277 143.06262421 460.91025168 143.91113652 C460.92724375 157.24014213 460.96833566 170.56896161 461.01921903 183.89787643 C461.07105499 197.58925902 461.1001215 211.28054606 461.10736805 224.97202593 C461.11202338 232.65644123 461.12670111 240.34055197 461.16711235 248.02486992 C461.2015029 254.57225831 461.21531556 261.11928718 461.20268821 267.66676068 C461.19688142 271.00434382 461.20388921 274.34055545 461.23085785 277.67812538 C461.43561632 304.45666534 461.43561632 304.45666534 452.69336605 314.59986782 C442.82949671 324.26118692 431.00397949 324.07820964 418.0553894 324.00914001 C416.17297191 324.01375258 414.29055802 324.02010789 412.40815163 324.02804899 C407.25083502 324.04471646 402.09381524 324.03650761 396.93649769 324.02410412 C391.36858441 324.01504543 385.80072179 324.02902744 380.2328186 324.0400238 C369.33138417 324.05780481 358.43005994 324.05397086 347.5286212 324.04237324 C338.66833308 324.03333757 329.80807583 324.03211551 320.94778442 324.03646851 C319.68646183 324.03708144 318.42513923 324.03769437 317.12559474 324.03832588 C314.56319538 324.03960478 312.00079603 324.04090164 309.43839669 324.04221624 C286.0988376 324.05329575 262.75934917 324.04180832 239.41980377 324.02084585 C218.12365821 324.00186409 196.82760834 324.00356263 175.53146362 324.02268982 C151.59275218 324.04411868 127.65410051 324.05252219 103.7153759 324.04024076 C101.16243363 324.03896658 98.60949136 324.03770909 96.05654907 324.03646851 C94.17243315 324.03554285 94.17243315 324.03554285 92.25025427 324.0345985 C83.40120828 324.03114565 74.55219625 324.03697256 65.70315552 324.04638672 C54.91826834 324.0576082 44.1334976 324.0545634 33.34862375 324.03326374 C27.84662626 324.02275546 22.34482288 324.0186279 16.84282684 324.03186035 C11.80448195 324.04379439 6.76651079 324.03720473 1.72819972 324.01595014 C-0.09265946 324.01148841 -1.91355032 324.01374068 -3.73438907 324.0234533 C-15.85694509 324.08314767 -26.55157508 323.54649851 -35.6893425 314.60042572 C-45.97414968 302.66225256 -44.34927842 288.8200442 -44.27420044 273.90159607 C-44.27903991 271.19023668 -44.29280963 268.47893821 -44.30606079 265.76760864 C-44.33263955 259.18774651 -44.32702348 252.6082967 -44.30958495 246.0284189 C-44.29599448 240.67742002 -44.29421419 235.32653611 -44.30072784 229.9755249 C-44.30164724 229.21184039 -44.30256664 228.44815588 -44.3035139 227.66132942 C-44.30543239 226.10956757 -44.30737767 224.55780575 -44.30934945 223.00604397 C-44.3264291 208.47985496 -44.30683348 193.95389371 -44.27454725 179.42774206 C-44.24774326 166.98320311 -44.25240025 154.53900006 -44.28005981 142.09446716 C-44.31222154 127.61770592 -44.32478142 113.14114393 -44.30638623 98.66435194 C-44.30447508 97.11852999 -44.30258886 95.572708 -44.30072784 94.02688599 C-44.29980219 93.26645584 -44.29887654 92.50602569 -44.29792283 91.72255221 C-44.29275801 86.38247039 -44.30145249 81.04251573 -44.31560516 75.70245361 C-44.3324916 69.18815204 -44.32775801 62.67428383 -44.2959207 56.16003144 C-44.28022865 52.8406652 -44.27711028 49.52261206 -44.29381561 46.20316124 C-44.41490871 19.69055966 -44.41490871 19.69055966 -35.72474289 9.40198517 C-25.85044441 -0.40201183 -12.98049343 -0.0747553 0 0 Z " fill="#1A4371" transform="translate(47.497833251953125,101.49879455566406)"/>
<path d="M0 0 C3.33345652 2.70307064 3.33345652 2.70307064 7.4375 3.16015625 C10.19079476 2.27516865 11.31747908 1.39052738 13.328125 -0.6484375 C35.63769862 -21.03260702 65.30438282 -24.65440088 94.25439453 -23.82324219 C101.82874748 -23.46527277 108.76589463 -21.99017512 115.953125 -19.6484375 C116.7251123 -19.40706055 117.49709961 -19.16568359 118.29248047 -18.91699219 C148.75871189 -9.21514801 172.00201206 11.18957395 186.765625 39.3515625 C200.39285519 67.73091216 201.75710298 99.86065036 191.71484375 129.56640625 C181.56299674 158.05227137 161.64643597 179.68385345 134.953125 193.3515625 C131.01049682 195.19736221 127.02949824 196.82635152 122.953125 198.3515625 C122.04691406 198.70992187 121.14070313 199.06828125 120.20703125 199.4375 C93.91826468 209.13626825 62.65597969 207.8903717 37.11914062 196.53613281 C30.85251932 193.58928911 25.02376617 190.20041173 19.44140625 186.09765625 C18.68327637 185.54086182 17.92514648 184.98406738 17.14404297 184.41040039 C15.66741259 183.30700714 14.20591981 182.18299235 12.76220703 181.03686523 C8.74139268 177.8808797 8.74139268 177.8808797 3.80078125 177.7578125 C0.76932013 179.45443272 -1.8416691 181.29568022 -4.546875 183.4765625 C-23.40898364 197.96079901 -44.71977206 204.95889157 -68.45361328 204.74267578 C-70.54656064 204.72656492 -72.63757836 204.74265247 -74.73046875 204.76171875 C-87.3972637 204.78294594 -99.52007846 202.79418648 -111.421875 198.2890625 C-112.21223145 197.99161133 -113.00258789 197.69416016 -113.81689453 197.38769531 C-127.96973169 191.82815609 -139.92567404 183.61608831 -151.046875 173.3515625 C-151.78164062 172.69800781 -152.51640625 172.04445313 -153.2734375 171.37109375 C-174.57349208 151.47124197 -185.24341834 120.74704864 -186.28515625 92.1953125 C-186.96507012 59.19805122 -174.38338426 31.28310012 -151.734375 7.6015625 C-135.70415142 -7.86182149 -116.51846109 -17.30717466 -95.046875 -22.6484375 C-93.99242187 -22.91527344 -92.93796875 -23.18210938 -91.8515625 -23.45703125 C-59.78459452 -30.08055028 -25.11193081 -20.22373054 0 0 Z " fill="#F6AF2C" transform="translate(250.046875,172.6484375)"/>
<path d="M0 0 C3.08674282 2.38049606 6.34573459 4.42073589 9.6640625 6.4609375 C11.69684984 8.08716738 12.36671973 9.54406738 13.44140625 11.8828125 C14.76533597 12.89522935 16.09739792 13.89720639 17.44140625 14.8828125 C17.44140625 15.5428125 17.44140625 16.2028125 17.44140625 16.8828125 C16.405 16.89699219 15.36859375 16.91117188 14.30078125 16.92578125 C12.93094568 16.97269343 11.56115538 17.02094077 10.19140625 17.0703125 C9.16853516 17.07901367 9.16853516 17.07901367 8.125 17.08789062 C4.22078105 17.2584633 2.72727675 17.58930081 -0.04296875 20.43359375 C-0.79320312 21.64595703 -0.79320312 21.64595703 -1.55859375 22.8828125 C-0.46973877 22.82782593 -0.46973877 22.82782593 0.64111328 22.77172852 C3.94910792 22.6256866 7.25642452 22.53501886 10.56640625 22.4453125 C12.27957031 22.35733398 12.27957031 22.35733398 14.02734375 22.26757812 C22.35904331 22.09803773 22.35904331 22.09803773 25.58496094 24.43701172 C29.44140625 28.87271734 29.44140625 28.87271734 29.44140625 30.8828125 C16.57140625 30.8828125 3.70140625 30.8828125 -9.55859375 30.8828125 C-9.88859375 32.8628125 -10.21859375 34.8428125 -10.55859375 36.8828125 C-9.24141357 36.85662842 -7.9242334 36.83044434 -6.56713867 36.8034668 C-1.68645168 36.71305811 3.19416117 36.65559694 8.07543945 36.6081543 C10.18917277 36.58298887 12.3028189 36.54885324 14.41625977 36.50561523 C17.45220423 36.44505309 20.48699987 36.41662341 23.5234375 36.39453125 C24.94388115 36.35582161 24.94388115 36.35582161 26.39302063 36.31632996 C28.8431075 36.31527931 31.04872477 36.35587202 33.44140625 36.8828125 C36.02003368 39.73287439 36.44140625 41.05873695 36.44140625 44.8828125 C18.95140625 45.2128125 1.46140625 45.5428125 -16.55859375 45.8828125 C-17.21859375 47.5328125 -17.87859375 49.1828125 -18.55859375 50.8828125 C-17.50076691 50.86948883 -17.50076691 50.86948883 -16.42156982 50.855896 C-9.77119667 50.77570327 -3.1209587 50.71482469 3.52978897 50.67556381 C6.94894305 50.65470049 10.36769719 50.62640745 13.78662109 50.58105469 C17.71837556 50.52922632 21.64996882 50.50985672 25.58203125 50.4921875 C26.80819153 50.47154236 28.03435181 50.45089722 29.29766846 50.42962646 C30.43854919 50.42932434 31.57942993 50.42902222 32.75488281 50.42871094 C33.75859924 50.41982849 34.76231567 50.41094604 35.79644775 50.40179443 C39.20514523 51.02170778 40.39788123 52.12229043 42.44140625 54.8828125 C42.44140625 56.2028125 42.44140625 57.5228125 42.44140625 58.8828125 C20.99140625 58.8828125 -0.45859375 58.8828125 -22.55859375 58.8828125 C-22.88859375 60.8628125 -23.21859375 62.8428125 -23.55859375 64.8828125 C-0.78859375 64.8828125 21.98140625 64.8828125 45.44140625 64.8828125 C45.44140625 67.1928125 45.44140625 69.5028125 45.44140625 71.8828125 C19.04140625 71.8828125 -7.35859375 71.8828125 -34.55859375 71.8828125 C-35.87859375 80.1328125 -37.19859375 88.3828125 -38.55859375 96.8828125 C-40.30859375 105.5078125 -40.30859375 105.5078125 -41.04296875 108.796875 C-42.15774604 114.9642802 -42.15774604 114.9642802 -40.5078125 120.80859375 C-37.47937948 122.47756986 -34.78841405 122.16436719 -31.37109375 122.0703125 C-30.09878906 122.04324219 -28.82648438 122.01617187 -27.515625 121.98828125 C-26.53980469 121.95347656 -25.56398437 121.91867187 -24.55859375 121.8828125 C-23.56859375 117.9228125 -23.56859375 117.9228125 -22.55859375 113.8828125 C-25.19859375 113.8828125 -27.83859375 113.8828125 -30.55859375 113.8828125 C-30.61275563 112.27901909 -30.65146013 110.67469844 -30.68359375 109.0703125 C-30.70679688 108.17699219 -30.73 107.28367187 -30.75390625 106.36328125 C-30.55859375 103.8828125 -30.55859375 103.8828125 -28.55859375 100.8828125 C-28.55859375 101.8728125 -28.55859375 102.8628125 -28.55859375 103.8828125 C-26.57859375 103.8828125 -24.59859375 103.8828125 -22.55859375 103.8828125 C-22.37683594 104.47449219 -22.19507813 105.06617188 -22.0078125 105.67578125 C-19.93056291 113.37305294 -19.93056291 113.37305294 -14.75390625 119 C-8.92859004 121.84010078 -2.93809149 122.97656609 3.44140625 123.8828125 C3.44140625 124.2128125 3.44140625 124.5428125 3.44140625 124.8828125 C-5.13859375 124.8828125 -13.71859375 124.8828125 -22.55859375 124.8828125 C-21.89859375 126.8628125 -21.23859375 128.8428125 -20.55859375 130.8828125 C10.13140625 131.3778125 10.13140625 131.3778125 41.44140625 131.8828125 C40.44140625 137.8828125 40.44140625 137.8828125 38.44140625 139.8828125 C36.11288452 140.1612854 36.11288452 140.1612854 33.16552734 140.20166016 C32.06453705 140.22152985 30.96354675 140.24139954 29.82919312 140.26187134 C28.63645782 140.27342255 27.44372253 140.28497375 26.21484375 140.296875 C24.38791489 140.32592422 24.38791489 140.32592422 22.52407837 140.3555603 C18.62159295 140.41549465 14.71907826 140.46179721 10.81640625 140.5078125 C8.17576815 140.54597949 5.53514268 140.58503045 2.89453125 140.625 C-3.58973201 140.72120754 -10.07407083 140.80621426 -16.55859375 140.8828125 C-16.22859375 142.2028125 -15.89859375 143.5228125 -15.55859375 144.8828125 C1.27140625 145.2128125 18.10140625 145.5428125 35.44140625 145.8828125 C33.44140625 150.8828125 33.44140625 150.8828125 32.44140625 152.8828125 C18.58140625 153.2128125 4.72140625 153.5428125 -9.55859375 153.8828125 C-6.24643252 159.12879986 -6.24643252 159.12879986 -2.16699219 159.54223633 C-0.84731445 159.55794678 0.47236328 159.57365723 1.83203125 159.58984375 C2.5366449 159.60496506 3.24125854 159.62008636 3.96722412 159.63566589 C6.2089443 159.67851765 8.44931747 159.68737718 10.69140625 159.6953125 C12.2148795 159.71845919 13.73832075 159.74382491 15.26171875 159.77148438 C18.98825521 159.83430775 22.71434214 159.86666569 26.44140625 159.8828125 C25.36739517 162.79798542 24.66330449 164.66091426 22.44140625 166.8828125 C20.19482422 167.20166016 20.19482422 167.20166016 17.43359375 167.296875 C16.44746094 167.33554687 15.46132813 167.37421875 14.4453125 167.4140625 C12.89650391 167.46046875 12.89650391 167.46046875 11.31640625 167.5078125 C9.75599609 167.56582031 9.75599609 167.56582031 8.1640625 167.625 C5.59002314 167.71946016 3.0159947 167.80502464 0.44140625 167.8828125 C2.60635509 171.26430958 2.60635509 171.26430958 6.359375 172.4921875 C7.43832031 172.53859375 8.51726562 172.585 9.62890625 172.6328125 C10.71558594 172.68953125 11.80226563 172.74625 12.921875 172.8046875 C13.75332031 172.83046875 14.58476562 172.85625 15.44140625 172.8828125 C12.64989697 178.70752018 8.5620625 181.6146806 3.23828125 185.05078125 C1.15387045 186.41612854 -0.8848706 187.80817422 -2.91796875 189.24609375 C-22.79271106 203.17097034 -42.15121802 208.20689123 -66.30859375 208.3203125 C-67.00161591 208.32666718 -67.69463806 208.33302185 -68.40866089 208.33956909 C-81.71218 208.41537991 -94.41268091 206.55978729 -106.93359375 201.8203125 C-107.7239502 201.52286133 -108.51430664 201.22541016 -109.32861328 200.91894531 C-123.48145044 195.35940609 -135.43739279 187.14733831 -146.55859375 176.8828125 C-147.29335937 176.22925781 -148.028125 175.57570313 -148.78515625 174.90234375 C-170.08521083 155.00249197 -180.75513709 124.27829864 -181.796875 95.7265625 C-182.47678887 62.72930122 -169.89510301 34.81435012 -147.24609375 11.1328125 C-131.21587017 -4.33057149 -112.03017984 -13.77592466 -90.55859375 -19.1171875 C-89.50414062 -19.38402344 -88.4496875 -19.65085938 -87.36328125 -19.92578125 C-58.12258334 -25.96552655 -23.54846767 -18.33544811 0 0 Z " fill="#E21E2D" transform="translate(245.55859375,169.1171875)"/>
<path d="M0 0 C23.76 0 47.52 0 72 0 C72 7.00471698 72 7.00471698 69.671875 11.84765625 C67.59033006 18.51586125 68.87957349 26.27744094 70 33 C64.39 33 58.78 33 53 33 C53.95588235 19.04411765 53.95588235 19.04411765 58.875 14.125 C61 13 61 13 63.48828125 12.74609375 C66.20139093 12.24874814 66.20139093 12.24874814 67.36328125 9.71484375 C67.67652344 8.79832031 67.98976563 7.88179687 68.3125 6.9375 C68.63863281 6.01839844 68.96476562 5.09929687 69.30078125 4.15234375 C69.53152344 3.44207031 69.76226562 2.73179687 70 2 C64.97734643 3.18180084 61.9050849 4.44992282 58 8 C57.505 6.02 57.505 6.02 57 4 C51.555 3.505 51.555 3.505 46 3 C45.896875 4.7325 45.79375 6.465 45.6875 8.25 C45.22164938 14.31271313 44.45655848 20.29863373 43.5625 26.3125 C43.44028076 27.14749023 43.31806152 27.98248047 43.19213867 28.84277344 C42.40539222 33.98959815 41.33766227 38.96784193 40 44 C43.63 44 47.26 44 51 44 C51.33 42.35 51.66 40.7 52 39 C58.27 39 64.54 39 71 39 C70 46 70 46 69 47 C66.97505769 47.09409479 64.9468013 47.11743122 62.91967773 47.11352539 C60.96776772 47.11341209 60.96776772 47.11341209 58.97642517 47.11329651 C57.54548098 47.10818909 56.11453718 47.10297308 54.68359375 47.09765625 C53.2277074 47.09579203 51.77182043 47.09436815 50.31593323 47.09336853 C46.47720621 47.08954365 42.63851681 47.07971364 38.79980469 47.06866455 C34.88542184 47.05844978 30.97103294 47.05387077 27.05664062 47.04882812 C19.37107657 47.03809134 11.68554355 47.02101529 4 47 C3.67 47.99 3.34 48.98 3 50 C3 48.68 3 47.36 3 46 C13.395 45.505 13.395 45.505 24 45 C21.1846875 44.38125 21.1846875 44.38125 18.3125 43.75 C12.37918529 42.25620077 9.03678137 40.6187189 5.25 35.75 C3.59954339 32.11899546 3.33638509 28.96934405 3 25 C1.02 25 -0.96 25 -3 25 C-4.01522809 20.37507206 -3.9109468 16.64582868 -3 12 C-2 11 -2 11 1.5625 10.9375 C2.696875 10.958125 3.83125 10.97875 5 11 C5 8.36 5 5.72 5 3 C3.35 2.67 1.7 2.34 0 2 C0 1.34 0 0.68 0 0 Z " fill="#DB2B3B" transform="translate(220,248)"/>
<path d="M0 0 C0.74886475 0.00523682 1.49772949 0.01047363 2.26928711 0.01586914 C3.07817383 0.0190918 3.88706055 0.02231445 4.72045898 0.02563477 C5.5705957 0.03401367 6.42073242 0.04239258 7.29663086 0.05102539 C8.15063477 0.05553711 9.00463867 0.06004883 9.88452148 0.06469727 C12.00108749 0.07652166 14.11761771 0.0944577 16.23413086 0.11352539 C17.48539679 5.53567774 17.64263599 10.97968844 17.95288086 16.51977539 C18.18525671 19.48902233 18.61866993 22.21064289 19.23413086 25.11352539 C19.52658691 24.42726074 19.81904297 23.74099609 20.12036133 23.03393555 C21.44499313 19.93331982 22.77696195 16.83590984 24.10913086 13.73852539 C24.56932617 12.65829102 25.02952148 11.57805664 25.50366211 10.46508789 C26.17075195 8.91821289 26.17075195 8.91821289 26.85131836 7.34008789 C27.46402588 5.91043701 27.46402588 5.91043701 28.08911133 4.4519043 C29.23413086 2.11352539 29.23413086 2.11352539 31.23413086 0.11352539 C33.20532227 -0.11352539 33.20532227 -0.11352539 35.58569336 -0.08178711 C36.43647461 -0.0753418 37.28725586 -0.06889648 38.16381836 -0.06225586 C39.49799805 -0.03711914 39.49799805 -0.03711914 40.85913086 -0.01147461 C42.20491211 0.00206055 42.20491211 0.00206055 43.57788086 0.01586914 C45.79689672 0.03947569 48.01538163 0.07240229 50.23413086 0.11352539 C50.1181958 0.70254639 50.00226074 1.29156738 49.8828125 1.8984375 C49.35030923 4.61524203 48.82344308 7.33311182 48.29663086 10.05102539 C48.11422852 10.9772168 47.93182617 11.9034082 47.74389648 12.85766602 C46.75694456 17.97187142 45.94231719 23.03372196 45.47192383 28.22241211 C45.23413086 30.11352539 45.23413086 30.11352539 44.29663086 33.30102539 C42.66962342 39.1391109 42.01659777 45.11183767 41.23413086 51.11352539 C37.60413086 51.11352539 33.97413086 51.11352539 30.23413086 51.11352539 C30.71062033 47.22219471 31.20300632 43.33614899 31.74584961 39.45336914 C31.83624512 38.80182861 31.92664063 38.15028809 32.01977539 37.47900391 C32.28778572 35.55211835 32.55971967 33.62577979 32.83178711 31.69946289 C33.34563165 27.72116746 33.34563165 27.72116746 33.23413086 22.11352539 C29.27413086 31.68352539 25.31413086 41.25352539 21.23413086 51.11352539 C16.94413086 51.11352539 12.65413086 51.11352539 8.23413086 51.11352539 C7.57413086 39.56352539 6.91413086 28.01352539 6.23413086 16.11352539 C5.57413086 20.40352539 4.91413086 24.69352539 4.23413086 29.11352539 C3.54056043 33.05472667 2.83726814 36.99138726 2.10913086 40.92602539 C1.92737305 41.91666992 1.74561523 42.90731445 1.55834961 43.92797852 C1.11859843 46.32346523 0.67661219 48.71854147 0.23413086 51.11352539 C-3.39586914 51.11352539 -7.02586914 51.11352539 -10.76586914 51.11352539 C-9.78616442 41.3938233 -8.45070234 31.78951771 -6.70336914 22.17602539 C-6.52902344 21.21100098 -6.35467773 20.24597656 -6.17504883 19.25170898 C-4.8979262 12.37763951 -4.8979262 12.37763951 -3.76586914 10.11352539 C-3.45795045 7.78275196 -3.2569164 5.45110643 -3.04711914 3.10961914 C-2.69245034 0.59245585 -2.5540028 0.16419346 0 0 Z " fill="#F8F6F7" transform="translate(85.765869140625,240.886474609375)"/>
<path d="M0 0 C3.63 0 7.26 0 11 0 C7.83626567 22.75196177 7.83626567 22.75196177 5.51269531 31.85009766 C4.63354477 35.53666894 4.00938877 39.2648743 3.375 43 C3.2409375 43.77472656 3.106875 44.54945313 2.96875 45.34765625 C2.64317951 47.23131407 2.32120574 49.11559298 2 51 C-1.3 51 -4.6 51 -8 51 C-8.33 50.01 -8.66 49.02 -9 48 C-9.825 48.66 -10.65 49.32 -11.5 50 C-15.27328846 52.49179427 -18.58848008 52.85583487 -23 52 C-29.17352211 49.03196053 -31.05584545 44.8883091 -34 39 C-34.94989022 29.89039704 -33.18103878 22.86153571 -27.5625 15.625 C-23.33649446 11.29592116 -20.68221946 9.81902159 -14.625 9.5625 C-9.30967706 9.68477401 -6.29591429 10.94512761 -2 14 C-1.90912109 12.98679688 -1.90912109 12.98679688 -1.81640625 11.953125 C-1.73261719 11.06109375 -1.64882813 10.1690625 -1.5625 9.25 C-1.48128906 8.36828125 -1.40007812 7.4865625 -1.31640625 6.578125 C-1 4 -1 4 0 0 Z " fill="#FAFAF9" transform="translate(421,241)"/>
<path d="M0 0 C3.39343546 3.67230775 3.41026274 6.27356632 3.26171875 11.08886719 C2.77357563 16.51854867 1.64514634 21.80161701 0.5 27.125 C0.26152344 28.27226562 0.02304688 29.41953125 -0.22265625 30.6015625 C-0.80629317 33.40301971 -1.39888365 36.20225103 -2 39 C-4.97 39 -7.94 39 -11 39 C-11.33 38.01 -11.66 37.02 -12 36 C-13.03640625 36.72896484 -13.03640625 36.72896484 -14.09375 37.47265625 C-17.48048988 39.25251551 -19.69397563 39.43305371 -23.5 39.4375 C-24.6034375 39.45683594 -25.706875 39.47617187 -26.84375 39.49609375 C-30.6570407 38.89672751 -32.29552201 37.7093774 -35 35 C-36.45984397 30.6204681 -36.5840684 26.57282823 -36 22 C-33.8985935 17.87223724 -32.64166151 16.61411196 -28.34765625 15.0078125 C-21.98668122 13.28863006 -15.56722657 12.42134861 -9 12 C-9.87255161 9.3593351 -9.87255161 9.3593351 -12 7 C-14.90588457 6.34885376 -17.72778626 6.52968097 -20.6875 6.6875 C-21.88342773 6.72133789 -21.88342773 6.72133789 -23.10351562 6.75585938 C-25.06981334 6.81473056 -27.03514491 6.90441245 -29 7 C-28.125 -0.875 -28.125 -0.875 -27 -2 C-17.86932786 -3.82613443 -8.43507342 -4.29421919 0 0 Z " fill="#FAF9F9" transform="translate(168,253)"/>
<path d="M0 0 C1.25941406 -0.03738281 2.51882813 -0.07476562 3.81640625 -0.11328125 C8.09655187 0.38999369 10.15514861 1.56033753 13.4375 4.3125 C17.58645063 11.08484512 15.25138814 20.12049282 14.125 27.5625 C14.00705078 28.43390625 13.88910156 29.3053125 13.76757812 30.203125 C12.4795811 38.8690332 12.4795811 38.8690332 9.4375 42.3125 C7.17578125 42.80078125 7.17578125 42.80078125 4.75 42.625 C3.94175781 42.57988281 3.13351562 42.53476562 2.30078125 42.48828125 C1.37845703 42.40126953 1.37845703 42.40126953 0.4375 42.3125 C0.4375 41.3225 0.4375 40.3325 0.4375 39.3125 C-0.655625 39.8075 -1.74875 40.3025 -2.875 40.8125 C-7.92416597 42.69356183 -13.24794861 43.36055594 -18.5625 42.3125 C-21.58704702 40.16388653 -22.44205379 38.95543357 -23.12890625 35.2890625 C-23.11705908 25.12418671 -23.11705908 25.12418671 -20.3125 21.625 C-12.91214915 15.4019777 -4.84292651 16.17734816 4.4375 16.3125 C3.31895414 12.58635847 3.31895414 12.58635847 0.4375 10.3125 C-1.68568064 10.2152114 -3.81209691 10.18272381 -5.9375 10.1875 C-7.07960938 10.18492187 -8.22171875 10.18234375 -9.3984375 10.1796875 C-12.7370306 10.21330712 -12.7370306 10.21330712 -16.5625 11.3125 C-15.9025 8.0125 -15.2425 4.7125 -14.5625 1.3125 C-9.68532011 0.53844435 -4.94916781 0.09644532 0 0 Z " fill="#FBFBFA" transform="translate(347.5625,249.6875)"/>
<path d="M0 0 C4.29383739 1.50660961 7.06829407 3.52538557 10 7 C11.02232879 10.06698637 11.1659049 12.28664878 11.1875 15.5 C11.20167969 16.4590625 11.21585937 17.418125 11.23046875 18.40625 C11 21 11 21 9 24 C6.56982422 24.34057617 6.56982422 24.34057617 3.5546875 24.29296875 C2.47832031 24.28330078 1.40195313 24.27363281 0.29296875 24.26367188 C-0.83496094 24.23853516 -1.96289062 24.21339844 -3.125 24.1875 C-4.26066406 24.17396484 -5.39632812 24.16042969 -6.56640625 24.14648438 C-9.37807387 24.11104319 -12.18880417 24.06163517 -15 24 C-13.73053486 28.82442184 -13.73053486 28.82442184 -10 32 C-6.96666607 32.28085768 -6.96666607 32.28085768 -3.625 32.1875 C-1.94277344 32.17783203 -1.94277344 32.17783203 -0.2265625 32.16796875 C2.62977637 32.01927314 5.22110266 31.65049095 8 31 C8.48492861 37.30407192 8.48492861 37.30407192 6.46484375 40.203125 C3.15047982 42.61930155 0.26359837 42.60596816 -3.6875 42.5 C-4.75834839 42.48078491 -4.75834839 42.48078491 -5.85083008 42.46118164 C-13.02173175 42.18666229 -18.94145961 40.60329863 -24.0625 35.3125 C-27.72753687 29.40487064 -27.16327945 20.66648606 -26 14 C-21.12390707 1.74518365 -12.18584812 -0.83119061 0 0 Z " fill="#FAF9FA" transform="translate(250,250)"/>
<path d="M0 0 C-0.14107747 1.45880109 -0.28802415 2.91703551 -0.4375 4.375 C-0.51871094 5.18710938 -0.59992188 5.99921875 -0.68359375 6.8359375 C-1 9 -1 9 -2 11 C-3.24136719 10.94199219 -4.48273438 10.88398438 -5.76171875 10.82421875 C-7.40360814 10.77730762 -9.04553832 10.73180891 -10.6875 10.6875 C-11.50412109 10.64560547 -12.32074219 10.60371094 -13.16210938 10.56054688 C-17.56362617 10.47144734 -19.39042561 10.52356949 -22.96875 13.3203125 C-27.67052263 19.52303563 -28.95601337 25.37773123 -28 33 C-26.75257627 35.99381696 -25.94248139 37.41607131 -23.203125 39.11328125 C-20.64561514 40.14263362 -18.74881175 40.23359288 -16 40.1875 C-15.154375 40.18105469 -14.30875 40.17460937 -13.4375 40.16796875 C-11.16747523 40.01154076 -9.18038396 39.63089814 -7 39 C-6.58746962 43.20780988 -6.44402772 45.27481876 -9.06640625 48.6953125 C-13.54815224 52.21625809 -17.79283675 51.83036768 -23.25390625 51.546875 C-29.45055795 50.64225431 -33.58981318 48.13931897 -37.39453125 43.18359375 C-41.63209029 36.25076747 -41.76359454 28.91680775 -41 21 C-38.73075925 12.47253924 -34.84228393 5.58533098 -27.23046875 0.9140625 C-18.98156082 -2.87175209 -8.70669828 -1.36575659 0 0 Z " fill="#FBFBFA" transform="translate(329,241)"/>
<path d="M0 0 C0.88945312 0.00644531 1.77890625 0.01289063 2.6953125 0.01953125 C3.61570313 0.03628906 4.53609375 0.05304688 5.484375 0.0703125 C6.42023438 0.07933594 7.35609375 0.08835938 8.3203125 0.09765625 C10.62510989 0.12117459 12.92977533 0.15704424 15.234375 0.1953125 C14.904375 3.1653125 14.574375 6.1353125 14.234375 9.1953125 C6.314375 9.6903125 6.314375 9.6903125 -1.765625 10.1953125 C0.37965793 15.62449251 0.37965793 15.62449251 5.171875 17.8203125 C11.19340459 20.46304566 11.19340459 20.46304566 13.234375 23.1953125 C14.16101958 27.57809091 13.58909782 31.35687674 11.859375 35.4453125 C7.40406649 40.11277856 2.54641456 42.79622202 -3.91015625 43.57421875 C-9.07008932 43.66965524 -13.02645818 43.34477068 -17.765625 41.1953125 C-17.765625 38.2253125 -17.765625 35.2553125 -17.765625 32.1953125 C-11.825625 32.1953125 -5.885625 32.1953125 0.234375 32.1953125 C-0.095625 30.2153125 -0.425625 28.2353125 -0.765625 26.1953125 C-1.631875 25.9478125 -2.498125 25.7003125 -3.390625 25.4453125 C-8.30023711 23.62693764 -11.84124485 21.58188272 -14.765625 17.1953125 C-15.10068327 12.12648226 -14.57440155 8.24453613 -11.453125 4.1953125 C-7.52438532 1.27159925 -4.93550747 -0.06327574 0 0 Z " fill="#F8F6F8" transform="translate(187.765625,249.8046875)"/>
<path d="M0 0 C3.3 0 6.6 0 10 0 C10.125 6.75 10.125 6.75 9 9 C9.804375 8.979375 10.60875 8.95875 11.4375 8.9375 C14 9 14 9 15 10 C14.82364548 12.69082872 14.38164079 15.32851446 14 18 C11.69 18.33 9.38 18.66 7 19 C6.01 26.59 5.02 34.18 4 42 C6.64 42 9.28 42 12 42 C11.39612676 47.43485915 11.39612676 47.43485915 9.828125 49.671875 C7.22523054 51.5628667 5.24994441 51.43356002 2.0625 51.4375 C1.02222656 51.45683594 -0.01804688 51.47617187 -1.08984375 51.49609375 C-4 51 -4 51 -6.3828125 49.37109375 C-9.65174995 44.57823136 -7.78801813 38.46618209 -7 33 C-6.32396791 29.51493803 -5.56260224 26.06293924 -4.7578125 22.60546875 C-3.68374349 17.49533632 -3.10305872 12.36660526 -2.52734375 7.1796875 C-2 4 -2 4 0 0 Z " fill="#F8F6F7" transform="translate(211,241)"/>
<path d="M0 0 C-0.59137853 3.56186606 -1.35713274 6.77056311 -3 10 C-5.26249436 11.41142572 -7.26785721 12.12752978 -9.84375 12.79296875 C-13.16667354 14.65308356 -13.98765129 17.51046466 -15 21 C-15.69441716 24.25328277 -16.17917184 27.51691799 -16.625 30.8125 C-16.86433152 32.50691627 -17.10638641 34.20095079 -17.3515625 35.89453125 C-17.45291504 36.63550049 -17.55426758 37.37646973 -17.65869141 38.13989258 C-18 40 -18 40 -19 42 C-22.63 42 -26.26 42 -30 42 C-30.16801196 38.63976077 -29.98029005 35.92467983 -29.125 32.65625 C-27.53376246 26.52850293 -26.76734842 20.25965888 -25.875 14 C-25.69324219 12.74832031 -25.51148438 11.49664062 -25.32421875 10.20703125 C-24.87916866 7.13852797 -24.43786764 4.069535 -24 1 C-20.37 1 -16.74 1 -13 1 C-12.34 2.32 -11.68 3.64 -11 5 C-10.113125 4.175 -9.22625 3.35 -8.3125 2.5 C-5.54894543 -0.07074844 -3.73691343 -0.25464487 0 0 Z " fill="#F8F6F7" transform="translate(290,250)"/>
<path d="M0 0 C3.63 0 7.26 0 11 0 C11.66 1.32 12.32 2.64 13 4 C13.556875 3.505 14.11375 3.01 14.6875 2.5 C17.38162983 0.75245633 18.85375007 0.73781251 22 1 C22 6.25396825 22 6.25396825 21 9 C19.08778481 10.39587333 17.18411433 11.18891726 15.00390625 12.1015625 C11.86235086 13.51005712 10.66408111 14.99185338 9 18 C8.04193534 21.62959113 7.51810113 25.28539995 7 29 C6.62618984 31.39601927 6.25119735 33.79185438 5.875 36.1875 C5.58181581 38.12477095 5.28959337 40.06218903 5 42 C1.37 42 -2.26 42 -6 42 C-4.38598334 27.94106537 -2.19474056 13.9781535 0 0 Z " fill="#F9F9F9" transform="translate(369,250)"/>
<path d="M0 0 C0.33 0 0.66 0 1 0 C1.48032656 8.71703754 0.07313419 16.54704214 -2 25 C1.63 25 5.26 25 9 25 C9.33 23.35 9.66 21.7 10 20 C16.27 20 22.54 20 29 20 C28 27 28 27 27 28 C24.97505769 28.09409479 22.9468013 28.11743122 20.91967773 28.11352539 C18.96776772 28.11341209 18.96776772 28.11341209 16.97642517 28.11329651 C15.54548098 28.10818909 14.11453718 28.10297308 12.68359375 28.09765625 C11.2277074 28.09579203 9.77182043 28.09436815 8.31593323 28.09336853 C4.47720621 28.08954365 0.63851681 28.07971364 -3.20019531 28.06866455 C-7.11457816 28.05844978 -11.02896706 28.05387077 -14.94335938 28.04882812 C-22.62892343 28.03809134 -30.31445645 28.02101529 -38 28 C-38.33 28.99 -38.66 29.98 -39 31 C-39 29.68 -39 28.36 -39 27 C-28.605 26.505 -28.605 26.505 -18 26 C-18 25.67 -18 25.34 -18 25 C-17.31292969 24.96261719 -16.62585938 24.92523438 -15.91796875 24.88671875 C-15.01691406 24.82097656 -14.11585938 24.75523437 -13.1875 24.6875 C-12.29417969 24.62949219 -11.40085938 24.57148438 -10.48046875 24.51171875 C-7.63155722 23.92399054 -6.68911103 23.33876912 -5 21 C-4.26958147 17.38976901 -4.26958147 17.38976901 -4 14 C-4.6909375 14.32097656 -5.381875 14.64195312 -6.09375 14.97265625 C-11.27735137 16.80503146 -16.58406021 16.68652758 -22 16 C-24.75044126 14.62203442 -25.33698087 13.71010525 -27 11 C-27 9.68 -27 8.36 -27 7 C-19.08 6.67 -11.16 6.34 -3 6 C-2.01 4.02 -1.02 2.04 0 0 Z " fill="#D73037" transform="translate(262,267)"/>
<path d="M0 0 C2.03667615 1.54506466 2.86073078 2.72146156 4 5 C4.54280937 11.40515061 3.8679143 14.80885186 0 20 C-3 22.0625 -3 22.0625 -6 23 C-8.74012115 22.31496971 -9.64101121 21.59702796 -11.08984375 19.1875 C-12.61974534 15.5104833 -12.4620588 11.91349804 -12 8 C-10.6875 5.125 -10.6875 5.125 -9 3 C-8.3503125 2.1028125 -8.3503125 2.1028125 -7.6875 1.1875 C-5.08087156 -0.64679409 -3.09377193 -0.38672149 0 0 Z " fill="#F2AF31" transform="translate(412,260)"/>
<path d="M0 0 C3.96 0.33 7.92 0.66 12 1 C12.66 5.95 13.32 10.9 14 16 C8.39 16 2.78 16 -3 16 C-2.54065039 10.33468819 -2.10318672 5.32807302 0 0 Z " fill="#D43737" transform="translate(276,265)"/>
<path d="M0 0 C9.9 0 19.8 0 30 0 C30 0.33 30 0.66 30 1 C28.948125 1.02126953 28.948125 1.02126953 27.875 1.04296875 C19.85945705 1.44592403 14.79286337 3.02494669 9.2109375 8.875 C4.38263794 15.09915867 4.02379274 21.30304984 4 29 C3.67 27.68 3.34 26.36 3 25 C1.02 25 -0.96 25 -3 25 C-4.01522809 20.37507206 -3.9109468 16.64582868 -3 12 C-2 11 -2 11 1.5625 10.9375 C2.696875 10.958125 3.83125 10.97875 5 11 C5 8.36 5 5.72 5 3 C3.35 2.67 1.7 2.34 0 2 C0 1.34 0 0.68 0 0 Z " fill="#E12130" transform="translate(220,248)"/>
<path d="M0 0 C6.27 0 12.54 0 19 0 C18.67 2.31 18.34 4.62 18 7 C10.74 7 3.48 7 -4 7 C-3.01 6.67 -2.02 6.34 -1 6 C-0.67 4.02 -0.34 2.04 0 0 Z " fill="#E0252E" transform="translate(272,287)"/>
<path d="M0 0 C0.48209366 6.26721763 0.48209366 6.26721763 -1.5625 9.375 C-4.77008296 11.51338864 -7.16371497 11.93024936 -11 12 C-13 10.875 -13 10.875 -14 9 C-14.0625 6.5 -14.0625 6.5 -13 4 C-8.75830969 1.36072603 -4.96390187 0 0 0 Z " fill="#DB2B3A" transform="translate(157,272)"/>
<path d="M0 0 C-0.6097561 6.46341463 -0.6097561 6.46341463 -2.25 8.71875 C-4.52988381 10.38795064 -5.8935396 10.30897654 -8.6875 10.1875 C-9.89986328 10.14689453 -9.89986328 10.14689453 -11.13671875 10.10546875 C-11.75160156 10.07066406 -12.36648438 10.03585937 -13 10 C-13.31068741 6.58243849 -13.3625104 4.59893023 -11.5625 1.625 C-7.79880462 -0.76173366 -4.34043107 -0.33387931 0 0 Z " fill="#F0AE33" transform="translate(350,273)"/>
<path d="M0 0 C2.15234375 0.046875 2.15234375 0.046875 4.0625 0.4375 C6.51571644 3.27403151 7.0625 4.68873496 7.0625 8.4375 C2.1125 8.4375 -2.8375 8.4375 -7.9375 8.4375 C-5.32211538 0.59134615 -5.32211538 0.59134615 0 0 Z " fill="#D93141" transform="translate(243.9375,258.5625)"/>
<path d="M0 0 C3.63 0 7.26 0 11 0 C11 1.98 11 3.96 11 6 C6.71 6 2.42 6 -2 6 C-1.34 4.02 -0.68 2.04 0 0 Z " fill="#F5AF2E" transform="translate(276,267)"/>
<path d="M0 0 C1.60080151 4.00200378 0.29279692 7.04556236 -1 11 C-4.63 11 -8.26 11 -12 11 C-11.34 9.68 -10.68 8.36 -10 7 C-8.865625 6.690625 -7.73125 6.38125 -6.5625 6.0625 C-2.84686346 5.34309872 -2.84686346 5.34309872 -1.0625 2.375 C-0.711875 1.59125 -0.36125 0.8075 0 0 Z " fill="#E12635" transform="translate(289,255)"/>
<path d="M0 0 C0.33 0 0.66 0 1 0 C1.33 1.98 1.66 3.96 2 6 C3.65 6.33 5.3 6.66 7 7 C7 10.3 7 13.6 7 17 C6.67 15.68 6.34 14.36 6 13 C4.02 13 2.04 13 0 13 C-1.0161692 8.37078475 -0.83796731 4.65537393 0 0 Z " fill="#E5A347" transform="translate(217,260)"/>
<path d="M0 0 C0 2.64 0 5.28 0 8 C-3 6 -3 6 -3.6875 3.375 C-3.790625 2.59125 -3.89375 1.8075 -4 1 C-1 0 -1 0 0 0 Z " fill="#DBBA7A" transform="translate(325,278)"/>
<path d="M0 0 C0.66 0.33 1.32 0.66 2 1 C2 2.98 2 4.96 2 7 C1.01 7.33 0.02 7.66 -1 8 C-0.67 5.36 -0.34 2.72 0 0 Z " fill="#CF6574" transform="translate(91,256)"/>
</svg>
