<?xml version="1.0" encoding="UTF-8"?>
<svg version="1.1" xmlns="http://www.w3.org/2000/svg" width="512" height="512">
<path d="M0 0 C27.39210306 -0.50830707 50.07647063 8.07474617 70.1328125 26.5 C72.94973062 29.26588699 75.34397757 31.82456011 77.5390625 35.1171875 C77.2013896 38.29029657 76.01189211 40.06367039 73.9140625 42.40234375 C73.37612061 43.01070068 72.83817871 43.61905762 72.28393555 44.24584961 C71.42022339 45.20309937 71.42022339 45.20309937 70.5390625 46.1796875 C69.3568373 47.51453168 68.17585641 48.85047888 66.99609375 50.1875 C66.41166504 50.84782227 65.82723633 51.50814453 65.22509766 52.18847656 C61.54415963 56.39922235 58.04462328 60.76014683 54.5390625 65.1171875 C51.5526732 63.77102514 49.45998332 62.25080878 47.1015625 59.9921875 C32.50810599 47.02022616 15.91757768 41.27560724 -3.37695312 41.98535156 C-18.62022187 42.94966332 -31.62585689 49.53214721 -42.4609375 60.1171875 C-48.21204131 66.74175247 -52.40418298 73.90794903 -55.4609375 82.1171875 C-55.780625 82.95894531 -56.1003125 83.80070312 -56.4296875 84.66796875 C-61.50941559 100.91839519 -59.85693786 121.10073219 -52.7109375 136.3671875 C-44.31236194 152.03217771 -32.02727087 162.0343346 -15.53125 168.21484375 C0.66420277 173.03758938 17.35168243 170.45462683 32.2265625 162.9296875 C39.75194046 158.66499963 46.52053576 153.33239812 52.5390625 147.1171875 C56.14033367 148.5879053 57.88351197 150.48465274 60.2265625 153.5546875 C60.91621094 154.44414062 61.60585937 155.33359375 62.31640625 156.25 C63.04988281 157.19617188 63.78335938 158.14234375 64.5390625 159.1171875 C66.11632685 161.05963128 67.69960889 162.99720518 69.2890625 164.9296875 C70.70778847 166.65716498 72.12454379 168.38626329 73.5390625 170.1171875 C74.69148438 171.39142578 74.69148438 171.39142578 75.8671875 172.69140625 C77.5390625 175.1171875 77.5390625 175.1171875 77.5234375 177.140625 C70.58056994 191.08146224 51.65822518 202.95444217 37.18212891 207.92675781 C28.52943827 210.59465649 19.62813603 212.89967121 10.5390625 213.1171875 C9.67152344 213.15585937 8.80398437 213.19453125 7.91015625 213.234375 C-22.03762872 213.96779014 -49.86770172 205.07845524 -71.953125 184.55078125 C-80.6340268 176.12679087 -86.97071649 167.80285256 -92.4609375 157.1171875 C-92.94433594 156.20195312 -93.42773438 155.28671875 -93.92578125 154.34375 C-105.73915157 130.42975415 -106.65670187 95.40159161 -98.4609375 70.1171875 C-98.25194824 69.4581543 -98.04295898 68.79912109 -97.82763672 68.12011719 C-93.09814185 53.75804063 -84.93208336 41.91023116 -74.4609375 31.1171875 C-73.86152344 30.44429687 -73.26210937 29.77140625 -72.64453125 29.078125 C-56.25266382 11.30551712 -29.90166911 1.44780244 -6.109375 0.171875 C-4.07254512 0.12981657 -2.03609721 0.06894234 0 0 Z " fill="#313580" transform="translate(102.4609375,208.8828125)"/>
<path d="M0 0 C0 21.45 0 42.9 0 65 C13.53 65 27.06 65 41 65 C41 76.22 41 87.44 41 99 C27.47 99 13.94 99 0 99 C0.0629594 114.36035402 0.13821084 129.72054019 0.23571491 145.08071041 C0.28060104 152.21337846 0.32003205 159.34599738 0.34643555 166.47875977 C0.36947405 172.69869401 0.40293686 178.91847184 0.44870156 185.13828188 C0.47255547 188.42892723 0.48977995 191.71938663 0.49761391 195.01011467 C0.5072643 198.69179033 0.53533669 202.37290611 0.56762695 206.05444336 C0.56619186 207.13482376 0.56475677 208.21520416 0.5632782 209.32832336 C0.64003493 215.53378107 1.08484141 221.40409767 4 227 C9.67176465 231.72647054 14.7846563 232.5566734 22 232 C32.2745346 230.51093701 40.96446761 225.82735931 50 221 C49.33658223 228.79515882 47.93280282 236.39737119 46.22070312 244.02124023 C45.90672004 245.46624641 45.61436677 246.91612107 45.34375 248.36987305 C43.08888082 260.39900387 43.08888082 260.39900387 38.05541992 264.25683594 C34.73525773 265.83176329 31.53218029 266.99837343 28 268 C27.28376465 268.23581787 26.5675293 268.47163574 25.82958984 268.71459961 C12.15058043 272.84429217 -4.98615709 273.077705 -18 267 C-28.7813428 260.82704119 -36.36449469 252.45523563 -40.30859375 240.640625 C-41.57000397 235.82303569 -42.12495686 231.20436 -42.12025452 226.22927856 C-42.12162918 225.10194809 -42.12300385 223.97461761 -42.12442017 222.81312561 C-42.11902725 220.98001076 -42.11902725 220.98001076 -42.11352539 219.10986328 C-42.11367142 217.81176224 -42.11381744 216.51366119 -42.1139679 215.17622375 C-42.11425405 211.62915756 -42.10838666 208.08212539 -42.10139394 204.53506708 C-42.09513018 200.82349986 -42.09455421 197.1119318 -42.09336853 193.40036011 C-42.09026412 186.37756611 -42.08206274 179.35478774 -42.07201904 172.33200061 C-42.06083025 164.33443418 -42.05534049 156.33686699 -42.05032361 148.33929467 C-42.03987937 131.89285254 -42.02154497 115.44643191 -42 99 C-55.86 99 -69.72 99 -84 99 C-84 87.78 -84 76.56 -84 65 C-70.14 65 -56.28 65 -42 65 C-42 50.81 -42 36.62 -42 22 C-18.63461538 9.01923077 -18.63461538 9.01923077 -12 5.375 C-10.57300781 4.58416016 -10.57300781 4.58416016 -9.1171875 3.77734375 C-8.21226562 3.28105469 -7.30734375 2.78476563 -6.375 2.2734375 C-5.57835937 1.83435059 -4.78171875 1.39526367 -3.9609375 0.94287109 C-2 0 -2 0 0 0 Z " fill="#313480" transform="translate(364,149)"/>
<path d="M0 0 C5.35125877 4.89438819 10.38904223 9.86464247 14.96289062 15.50415039 C15.97967305 16.72041717 16.99661613 17.93654966 18.01367188 19.15258789 C19.12291779 20.4979758 20.23098051 21.84434006 21.33789062 23.19165039 C21.87486572 23.83400635 22.41184082 24.4763623 22.96508789 25.13818359 C23.46709717 25.75781982 23.96910645 26.37745605 24.48632812 27.01586914 C24.93927246 27.56718506 25.3922168 28.11850098 25.85888672 28.68652344 C27.20995405 30.91091447 27.50333966 32.95966715 27.96289062 35.50415039 C21.24253292 35.86264534 14.52467685 36.10566841 7.796875 36.27319336 C5.51501398 36.34309226 3.23376845 36.43825996 0.95410156 36.56030273 C-19.02649073 37.60223546 -19.02649073 37.60223546 -25.46362305 32.55834961 C-28.536154 29.67048211 -31.17252092 26.496419 -33.72937012 23.14984131 C-36.36117553 19.8379133 -39.72721995 17.38892837 -43.09960938 14.87915039 C-43.79602539 14.35683838 -44.49244141 13.83452637 -45.20996094 13.29638672 C-79.31191084 -11.63551138 -121.39479702 -22.90823536 -163.33007812 -16.74194336 C-201.5654777 -10.66108462 -232.89398423 8.36102524 -260.03710938 35.50415039 C-262.28588867 35.74707031 -262.28588867 35.74707031 -265.11132812 35.73461914 C-266.16143066 35.73333008 -267.2115332 35.73204102 -268.29345703 35.73071289 C-269.4257373 35.71782227 -270.55801758 35.70493164 -271.72460938 35.69165039 C-272.87751465 35.68520508 -274.03041992 35.67875977 -275.21826172 35.67211914 C-286.50340108 35.5734108 -297.76909704 35.11305706 -309.03710938 34.50415039 C-303.30449106 22.21473541 -293.32106823 12.21130965 -284.03710938 2.50415039 C-283.4003125 1.82610352 -282.76351562 1.14805664 -282.10742188 0.44946289 C-268.74522281 -13.42420791 -251.85231552 -24.54197143 -234.89990234 -33.50952148 C-233.1573891 -34.43216284 -231.42682305 -35.37726949 -229.69726562 -36.32397461 C-153.23307027 -76.69270557 -62.21422209 -56.17546992 0 0 Z " fill="#E82E2F" transform="translate(484.037109375,147.495849609375)"/>
<path d="M0 0 C14.19 0 28.38 0 43 0 C43 68.64 43 137.28 43 208 C28.81 208 14.62 208 0 208 C0 139.36 0 70.72 0 0 Z " fill="#303480" transform="translate(445,214)"/>
<path d="M0 0 C13.86 0 27.72 0 42 0 C42 68.64 42 137.28 42 208 C28.14 208 14.28 208 0 208 C0 139.36 0 70.72 0 0 Z " fill="#0A0E49" transform="translate(206,214)"/>
<path d="M0 0 C13.53 0 27.06 0 41 0 C41.02578125 6.74179687 41.0515625 13.48359375 41.078125 20.4296875 C41.10330641 24.71357913 41.12964936 28.99740106 41.16015625 33.28125 C41.20841458 40.07324442 41.25248821 46.86507742 41.27099609 53.65722656 C41.28619602 59.1363343 41.32070119 64.61501832 41.36830902 70.09393692 C41.38308837 72.1789493 41.39103903 74.26402218 41.39188385 76.34908676 C41.39426562 79.28119253 41.42144266 82.21213872 41.45410156 85.14404297 C41.4490712 85.99641037 41.44404083 86.84877777 41.43885803 87.72697449 C41.54624888 94.00310056 42.94874236 99.47481436 46 105 C51.6613538 109.73705114 56.7833993 110.55677038 64 110 C74.2745346 108.51093701 82.96446761 103.82735931 92 99 C91.33658223 106.79515882 89.93280282 114.39737119 88.22070312 122.02124023 C87.90672004 123.46624641 87.61436677 124.91612107 87.34375 126.36987305 C85.08888082 138.39900387 85.08888082 138.39900387 80.05541992 142.25683594 C76.73525773 143.83176329 73.53218029 144.99837343 70 146 C69.28376465 146.23581787 68.5675293 146.47163574 67.82958984 146.71459961 C54.15058043 150.84429217 37.01384291 151.077705 24 145 C13.2186572 138.82704119 5.63550531 130.45523563 1.69140625 118.640625 C-0.01520331 112.12272633 -0.1374269 105.91582393 -0.11352539 99.22119141 C-0.11367142 98.14742249 -0.11381744 97.07365356 -0.1139679 95.96734619 C-0.11327289 92.42873087 -0.10549976 88.8901686 -0.09765625 85.3515625 C-0.09579061 82.89391102 -0.09436739 80.43625916 -0.09336853 77.97860718 C-0.08955488 71.51779143 -0.07973441 65.05699825 -0.06866455 58.59619141 C-0.05842568 52.00032863 -0.0538656 45.40446219 -0.04882812 38.80859375 C-0.03811112 25.87238434 -0.02052362 12.93619758 0 0 Z " fill="#0A0E4A" transform="translate(322,271)"/>
<path d="M0 0 C5.35125877 4.89438819 10.38904223 9.86464247 14.96289062 15.50415039 C15.97967305 16.72041717 16.99661613 17.93654966 18.01367188 19.15258789 C19.12291779 20.4979758 20.23098051 21.84434006 21.33789062 23.19165039 C21.87486572 23.83400635 22.41184082 24.4763623 22.96508789 25.13818359 C25.70077103 28.51487097 27.63626109 31.00869649 27.96289062 35.50415039 C24.10607273 36.20603453 20.79894252 36.40465594 16.96289062 35.50415039 C14.43023121 33.08415377 12.78147708 30.53959963 10.91601562 27.57836914 C7.82281945 22.70967835 3.91150076 18.68542274 -0.03710938 14.50415039 C-0.7615625 13.70364258 -1.48601562 12.90313477 -2.23242188 12.07836914 C-21.80031968 -8.71666802 -50.59512875 -22.48460885 -77.19824219 -31.84790039 C-78.83415477 -32.42433587 -80.4634961 -33.01934448 -82.09179688 -33.61694336 C-112.02976528 -43.82126415 -146.19867631 -43.63558845 -177.03710938 -38.49584961 C-177.84051758 -38.36194824 -178.64392578 -38.22804688 -179.47167969 -38.09008789 C-192.51325469 -35.79794912 -204.75987299 -31.371575 -217.03710938 -26.49584961 C-217.82085937 -26.18663574 -218.60460937 -25.87742187 -219.41210938 -25.55883789 C-240.547558 -17.07805566 -260.15809073 -4.9347826 -276.86914062 10.52758789 C-279.03710938 12.50415039 -279.03710938 12.50415039 -282.09960938 14.87915039 C-287.1525622 19.39455504 -291.66549134 24.87044323 -295.37304688 30.55102539 C-296.47460938 32.19165039 -296.47460938 32.19165039 -299.03710938 34.50415039 C-302.42995058 34.98208932 -305.63709271 34.86065699 -309.03710938 34.50415039 C-303.30449106 22.21473541 -293.32106823 12.21130965 -284.03710938 2.50415039 C-283.4003125 1.82610352 -282.76351562 1.14805664 -282.10742188 0.44946289 C-268.74522281 -13.42420791 -251.85231552 -24.54197143 -234.89990234 -33.50952148 C-233.1573891 -34.43216284 -231.42682305 -35.37726949 -229.69726562 -36.32397461 C-153.23307027 -76.69270557 -62.21422209 -56.17546992 0 0 Z " fill="#FD3C46" transform="translate(484.037109375,147.495849609375)"/>
<path d="M0 0 C6.6419338 3.3209669 12.01219774 6.16369812 17.6875 10.625 C18.91954542 11.57685228 20.1526771 12.52729969 21.38671875 13.4765625 C22.02844025 13.99805374 22.67016174 14.51954498 23.33132935 15.05683899 C25.44500323 16.59588566 27.39030549 17.77347923 29.68026733 18.9896698 C34.59689968 21.78068918 39.74434582 24.70708223 41.84243965 30.20927429 C43.12213662 36.62770432 42.72173527 43.13468696 42.46484375 49.63671875 C42.43682582 51.72842259 42.41549323 53.82022565 42.40052795 55.9120636 C42.34356402 61.38757691 42.1965361 66.8570101 42.02996826 72.33013916 C41.8486689 78.91280185 41.78051854 85.49751184 41.69316864 92.08196259 C41.54825735 102.05885508 41.26078808 112.02244124 41 122 C27.47 122 13.94 122 0 122 C0 81.74 0 41.48 0 0 Z " fill="#0A0E49" transform="translate(446,299)"/>
<path d="M0 0 C1.63126019 1.4663855 3.25101933 2.94573306 4.85546875 4.44140625 C7.70293507 7.08620593 10.6711622 9.57813899 13.65234375 12.0703125 C15.05078125 13.48046875 15.05078125 13.48046875 15.05078125 15.48046875 C-7.88892502 17.74628427 -7.88892502 17.74628427 -14.328125 12.65625 C-16.61851247 10.43856329 -18.5668375 8.0528874 -20.49609375 5.51953125 C-23.05551269 2.34878613 -24.22848203 1.74223278 -27.94921875 0.48046875 C-29.61669162 -0.8210406 -31.23875356 -2.18178395 -32.82421875 -3.58203125 C-39.40625837 -9.08028122 -46.45960399 -13.36899754 -53.94921875 -17.51953125 C-54.57425293 -17.86902832 -55.19928711 -18.21852539 -55.84326172 -18.57861328 C-91.98588436 -38.50999995 -135.05698801 -42.31616508 -174.61328125 -31.2734375 C-203.97725561 -22.40249776 -228.44050932 -5.02824068 -249.94921875 16.48046875 C-252.56298828 16.70751953 -252.56298828 16.70751953 -255.83203125 16.67578125 C-256.99863281 16.66933594 -258.16523438 16.66289062 -259.3671875 16.65625 C-260.59050781 16.63949219 -261.81382812 16.62273437 -263.07421875 16.60546875 C-264.30527344 16.59644531 -265.53632813 16.58742188 -266.8046875 16.578125 C-269.8530569 16.55449423 -272.90104257 16.52154929 -275.94921875 16.48046875 C-275.01251727 15.38082972 -274.07481967 14.28203917 -273.13671875 13.18359375 C-272.35361328 12.26562012 -272.35361328 12.26562012 -271.5546875 11.32910156 C-252.15684491 -11.00673543 -223.39678587 -26.61719603 -195.94921875 -36.51953125 C-195.27213867 -36.76541992 -194.59505859 -37.01130859 -193.89746094 -37.26464844 C-185.30337132 -40.3211968 -176.55050158 -42.37593326 -167.63671875 -44.26953125 C-166.64639648 -44.48053467 -165.65607422 -44.69153809 -164.63574219 -44.90893555 C-106.6968593 -56.69500045 -44.50043576 -38.01692857 0 0 Z " fill="#D4020D" transform="translate(473.94921875,166.51953125)"/>
<path d="M0 0 C13.86 0 27.72 0 42 0 C42 25.41 42 50.82 42 77 C35.4 79.97 28.8 82.94 22 86 C11.00304232 91.73310933 11.00304232 91.73310933 2 100 C1.25570257 103.45949795 1.30960519 106.86196679 1.34057617 110.38989258 C1.33009247 111.43425476 1.31960876 112.47861694 1.30880737 113.55462646 C1.28003981 117.00156297 1.2863513 120.44749611 1.29296875 123.89453125 C1.27985484 126.28636434 1.26455157 128.67818635 1.24714661 131.06999207 C1.2072484 137.36153998 1.19710298 143.6527985 1.19311523 149.94445801 C1.183793 156.36605637 1.14638508 162.78748406 1.11132812 169.20898438 C1.04670273 181.8060217 1.01609885 194.40280708 1 207 C14.53 207 28.06 207 42 207 C42 207.33 42 207.66 42 208 C28.14 208 14.28 208 0 208 C0 139.36 0 70.72 0 0 Z " fill="#30347F" transform="translate(206,214)"/>
<path d="M0 0 C28.6004377 -0.53072977 51.92638984 8.99825008 72.4140625 28.6171875 C74.28125 30.4609375 74.28125 30.4609375 75.5390625 32.1171875 C75.5390625 33.1071875 75.5390625 34.0971875 75.5390625 35.1171875 C63.7371852 35.21310605 52.00740471 34.96975681 40.22265625 34.34765625 C38.60891404 34.26573915 36.99515413 34.1841701 35.38137817 34.10292053 C31.12105107 33.88709897 26.86105774 33.66528135 22.60112381 33.44184875 C19.96217071 33.30393538 17.32313025 33.16783531 14.68405151 33.03234863 C-13.70900372 31.57428778 -42.09063247 29.97025581 -70.4609375 28.1171875 C-56.97111329 10.57457943 -32.01423069 3.96195891 -11.20703125 0.58984375 C-7.47122289 0.18341452 -3.75391823 0.12710784 0 0 Z " fill="#2F41C4" transform="translate(102.4609375,208.8828125)"/>
<path d="M0 0 C4.41954579 4.22629569 8.26328709 8.82682048 12.125 13.5625 C12.74503906 14.31724609 13.36507812 15.07199219 14.00390625 15.84960938 C15.67822967 17.89300409 17.35091894 19.93617531 19 22 C19.87180908 22.98794556 19.87180908 22.98794556 20.76123047 23.99584961 C22 26 22 26 21.86303711 28.04956055 C20.90009587 30.22578051 19.86662701 31.52085963 18.19140625 33.20703125 C17.61438965 33.79033203 17.03737305 34.37363281 16.44287109 34.97460938 C15.82234863 35.58111328 15.20182617 36.18761719 14.5625 36.8125 C13.92650879 37.43833984 13.29051758 38.06417969 12.63525391 38.70898438 C-0.96575036 51.86748434 -20.63583512 63.06438638 -40.0625 63.125 C-41.361875 63.08375 -42.66125 63.0425 -44 63 C-36.61719321 42.00643208 -19.05262525 22.85156847 -5 6 C-4.51015625 5.41154297 -4.0203125 4.82308594 -3.515625 4.21679688 C-2.34455556 2.81052669 -1.17240256 1.40515895 0 0 Z " fill="#0A0E4A" transform="translate(157,357)"/>
<path d="M0 0 C0 12.87 0 25.74 0 39 C-3.48875479 38.30224904 -5.78135742 37.80483254 -8.87231445 36.41772461 C-9.59268387 36.09746811 -10.31305328 35.77721161 -11.05525208 35.44725037 C-11.8169017 35.10243118 -12.57855133 34.757612 -13.36328125 34.40234375 C-14.15526413 34.04862198 -14.94724701 33.69490021 -15.76322937 33.33045959 C-18.28183047 32.20426292 -20.79717607 31.07099444 -23.3125 29.9375 C-25.02387833 29.1707546 -26.73546466 28.40447326 -28.44726562 27.63867188 C-32.6339393 25.76448267 -36.81770845 23.88394649 -41 22 C-38.38473655 18.9830495 -35.33592735 17.41757707 -31.828125 15.56640625 C-31.2274823 15.24719711 -30.6268396 14.92798798 -30.00799561 14.59910583 C-28.09134391 13.58174468 -26.17086896 12.57187228 -24.25 11.5625 C-22.34423951 10.555204 -20.43931285 9.54635496 -18.53485107 8.53660583 C-16.79711951 7.61619177 -15.05730881 6.69970625 -13.31738281 5.78344727 C-10.92245938 4.49592035 -8.60059061 3.16812183 -6.26855469 1.77709961 C-3 0 -3 0 0 0 Z " fill="#2F41C4" transform="translate(363,150)"/>
<path d="M0 0 C13.86 0 27.72 0 42 0 C42 5.28 42 10.56 42 16 C34.99891243 15.28125717 28.16797206 13.90382914 21.28100586 12.47094727 C19.30760915 12.06148519 17.33262993 11.66038706 15.35742188 11.25976562 C14.10123047 11.00001953 12.84503906 10.74027344 11.55078125 10.47265625 C10.41294189 10.23812744 9.27510254 10.00359863 8.1027832 9.76196289 C5.25468203 9.06254329 2.68570055 8.1664277 0 7 C0 4.69 0 2.38 0 0 Z " fill="#3041C5" transform="translate(206,214)"/>
<path d="M0 0 C12.54 0 25.08 0 38 0 C35.3097617 2.6902383 32.22696545 3.44189969 28.69140625 4.6015625 C27.96888168 4.8428891 27.24635712 5.0842157 26.50193787 5.33285522 C24.97385224 5.84166383 23.4447741 6.34749987 21.91479492 6.85058594 C19.57265259 7.6216576 17.23443864 8.40383368 14.89648438 9.1875 C13.41167989 9.68035548 11.92666071 10.17256473 10.44140625 10.6640625 C9.7413295 10.89839996 9.04125275 11.13273743 8.31996155 11.37417603 C5.42095524 12.3217697 3.07187959 13 0 13 C0 8.71 0 4.42 0 0 Z " fill="#3041C5" transform="translate(446,215)"/>
<path d="M0 0 C0.66 0.33 1.32 0.66 2 1 C-0.31 3.31 -2.62 5.62 -5 8 C-5.99 7.67 -6.98 7.34 -8 7 C-5.36 4.69 -2.72 2.38 0 0 Z " fill="#2D3EB5" transform="translate(40,229)"/>
</svg>
