<?xml version="1.0" encoding="UTF-8"?>
<svg version="1.1" xmlns="http://www.w3.org/2000/svg" width="512" height="512">
<path d="M0 0 C29.43777658 10.21649614 51.72231751 5.14424956 80.29101562 -5.25854492 C113.46060224 -17.23431635 146.07074876 -18.10309958 178.54541016 -3.48950195 C196.13935908 4.92004099 217.38028055 19.54031996 228.49853516 36.1394043 C228.49853516 37.1294043 228.49853516 38.1194043 228.49853516 39.1394043 C226.41967924 40.62343428 224.38349313 41.91705337 222.18603516 43.2019043 C215.17539636 47.48950567 209.37443278 52.36860403 203.49853516 58.1394043 C202.65033203 58.97084961 201.80212891 59.80229492 200.92822266 60.65893555 C178.91028004 83.13706024 171.98918285 111.57308882 172.29150391 142.1628418 C172.90272632 170.32407071 185.67725976 196.50902401 205.49853516 216.1394043 C206.04896484 216.72463867 206.59939453 217.30987305 207.16650391 217.9128418 C217.29726424 228.59050693 230.55178555 234.56239832 243.49853516 241.1394043 C241.09276135 249.11013531 237.69385202 256.47380884 234.06103516 263.9519043 C233.7524054 264.58979889 233.44377563 265.22769348 233.12579346 265.88491821 C227.54709348 277.37652351 221.4215252 288.3956423 214.49853516 299.1394043 C214.00643555 299.90784668 213.51433594 300.67628906 213.00732422 301.46801758 C205.97824334 312.38664516 198.45097482 322.87688775 190.49853516 333.1394043 C189.76376953 334.10104492 189.02900391 335.06268555 188.27197266 336.0534668 C173.48148919 354.83239524 152.84268049 375.42759375 127.89550781 378.45532227 C108.78415329 379.56863959 94.66492099 374.13790657 77.38232422 366.74365234 C69.20895312 363.29726196 61.2129743 360.80879685 52.49853516 359.1394043 C51.59619141 358.95120117 50.69384766 358.76299805 49.76416016 358.5690918 C27.68631624 355.66411233 6.82251302 359.72314583 -13.50146484 368.1394043 C-16.11410428 369.20320912 -18.72875701 370.26178285 -21.34521484 371.31616211 C-23.06676542 372.01174449 -24.78571051 372.71382467 -26.50146484 373.42358398 C-41.42270958 379.50956246 -59.3186547 381.16954732 -74.65771484 375.3972168 C-75.59615234 374.98213867 -76.53458984 374.56706055 -77.50146484 374.1394043 C-78.52240234 373.70370117 -79.54333984 373.26799805 -80.59521484 372.8190918 C-87.74086749 369.51693414 -93.60140411 365.31257755 -99.50146484 360.1394043 C-100.35869141 359.39174805 -101.21591797 358.6440918 -102.09912109 357.8737793 C-155.81461871 310.23469543 -188.9388364 232.14365583 -194.32055664 161.37890625 C-196.84174878 116.2322147 -190.81775389 70.01963321 -160.59912109 34.47143555 C-157.68331656 31.2298428 -154.65079932 28.15250802 -151.50146484 25.1394043 C-150.73833984 24.3556543 -149.97521484 23.5719043 -149.18896484 22.7644043 C-130.40979649 4.42196078 -106.03203847 -10.47371396 -79.50146484 -13.8605957 C-78.55916016 -13.98176758 -77.61685547 -14.10293945 -76.64599609 -14.2277832 C-49.78256117 -16.96418279 -25.03514718 -8.7356982 0 0 Z " fill="#000000" transform="translate(231.50146484375,133.860595703125)"/>
<path d="M0 0 C1.11768788 36.99546882 -8.69211782 66.93532923 -34.2890625 94.34375 C-52.62856399 112.31329036 -77.12961195 123.69708095 -102.94921875 124.0390625 C-103.62597656 124.02617188 -104.30273438 124.01328125 -105 124 C-109.31743062 97.01605862 -100.66228573 70.86925565 -85.1875 48.875 C-66.88072241 23.68244051 -41.50478745 8.27805252 -11.59375 0.36328125 C-7.73207025 -0.17758655 -3.89254796 -0.07632447 0 0 Z " fill="#000000" transform="translate(353,0)"/>
</svg>
